<?xml version="1.0" standalone="no"?>
<!DOCTYPE svg PUBLIC "-//W3C//DTD SVG 1.1//EN" "http://www.w3.org/Graphics/SVG/1.1/DTD/svg11.dtd" >
<svg xmlns="http://www.w3.org/2000/svg" xmlns:xlink="http://www.w3.org/1999/xlink" version="1.1">
<metadata>
Created by FontForge 20170731 at Wed Jan 18 17:38:21 2006
 By Aleksey,,,
Copyright (c) Village Type &#38; Design LLC. All rights reserved.
</metadata>
<defs>
<font id="ApexNew-BookItalic" horiz-adv-x="570" >
  <font-face 
    font-family="Apex New Book Italic"
    font-weight="525"
    font-style="italic"
    font-stretch="normal"
    units-per-em="1000"
    panose-1="2 1 6 0 4 5 1 1 1 3"
    ascent="750"
    descent="-250"
    x-height="500"
    cap-height="750"
    bbox="-110 -270 1466 995"
    underline-thickness="25"
    underline-position="-148"
    unicode-range="U+0020-FF3F"
  />
<missing-glyph horiz-adv-x="649" 
d="M403 293h-156v242h156v-242zM325 47q-143 0 -275 -57v166q124 52 275 52t275 -52v-166q-132 57 -275 57zM515 760q41 0 68 -27t27 -68q0 -40 -27.5 -67.5t-67.5 -27.5t-67.5 27.5t-27.5 67.5t27.5 67.5t67.5 27.5zM135 760q40 0 67.5 -27.5t27.5 -67.5t-27.5 -67.5
t-67.5 -27.5t-67.5 27.5t-27.5 67.5q0 41 27 68t68 27z" />
    <glyph glyph-name="interrobang" unicode="&#x21;&#x3f;" horiz-adv-x="470" 
d="M194 210h-40l33 486q-63 -5 -110 -21l8 60q25 10 73 17.5t84 7.5q75 0 124.5 -16t70.5 -45.5t26.5 -61.5t0.5 -75q-6 -46 -22 -78.5t-47 -56.5t-60 -38.5t-81 -34.5q-26 -10 -37 -19zM396 561q7 61 -16.5 94t-98.5 41l-53 -296q12 4 18 7q34 12 52.5 20.5t43 26t37.5 44
t17 63.5zM103 40q0 21 14.5 35.5t35.5 14.5t35.5 -14.5t14.5 -35.5t-14.5 -35.5t-35.5 -14.5t-35.5 14.5t-14.5 35.5z" />
    <glyph glyph-name="f_b" unicode="fb" horiz-adv-x="915" 
d="M687 510q205 0 173 -260q-31 -260 -237 -260q-76 0 -149 51l-20 -41h-39l85 694q-40 4 -65 4q-192 0 -207 -113l-10 -85h158l-7 -55h-158l-85 -695h-67l85 695h-100l4 31l104 29l9 80q11 86 84 130.5t198 44.5q69 0 134 -10l-35 -281q69 41 145 41zM680 448
q-82 0 -144 -32l-41 -332q55 -32 136 -32q43 0 73.5 16t47 47t25 61.5t13.5 73.5q7 37 5 72.5t-10.5 63.5t-35 45t-69.5 17z" />
    <glyph glyph-name="f_f_b" unicode="ffb" horiz-adv-x="1240" 
d="M432 753l-8 -63q-30 8 -69 8q-113 0 -124 -88l-13 -110h258l10 85q11 86 84 130.5t198 44.5q69 0 134 -10l-35 -281q69 41 145 41q206 0 173 -260q-31 -260 -237 -260q-76 0 -149 51l-20 -41h-39l85 694q-40 4 -65 4q-192 0 -207 -113l-10 -85h158l-7 -55h-158l-85 -695
h-67l85 695h-258l-85 -695h-67l85 695h-100l4 31l104 29l12 105q19 150 199 150q42 0 69 -7zM1005 448q-82 0 -144 -32l-41 -332q55 -32 136 -32q43 0 73.5 16t47 47t25 61.5t13.5 73.5q7 37 5 72.5t-10.5 63.5t-35 45t-69.5 17z" />
    <glyph glyph-name="f_h" unicode="fh" horiz-adv-x="880" 
d="M764 363q6 47 -17 66t-72 19q-82 0 -141 -32l-51 -416h-68l85 694q-40 4 -65 4q-192 0 -207 -113l-10 -85h158l-7 -55h-158l-85 -695h-67l85 695h-100l4 31l104 29l9 80q11 86 84 130.5t198 44.5q67 0 132 -10l-35 -281q69 41 142 41q87 0 123.5 -38t28.5 -112l-44 -360
h-70z" />
    <glyph glyph-name="f_f_h" unicode="ffh" horiz-adv-x="1205" 
d="M432 753l-8 -63q-30 8 -69 8q-113 0 -124 -88l-13 -110h258l10 85q11 86 84 130.5t198 44.5q67 0 132 -10l-35 -281q69 41 142 41q87 0 123.5 -38t28.5 -112l-44 -360h-70l44 363q6 47 -17 66t-72 19q-82 0 -141 -32l-51 -416h-68l85 694q-40 4 -65 4q-192 0 -207 -113
l-10 -85h158l-7 -55h-158l-85 -695h-67l85 695h-258l-85 -695h-67l85 695h-100l4 31l104 29l12 105q19 150 199 150q42 0 69 -7z" />
    <glyph glyph-name="f_j" unicode="fj" horiz-adv-x="594" 
d="M255 -260l7 59q54 7 94.5 34t47.5 80l65 532h-258l-85 -695h-67l85 695h-100l4 31l104 29l9 80q11 86 84 130.5t198 44.5q65 0 132 -9l-8 -66q-80 13 -132 13q-192 0 -207 -113l-10 -85h326l-73 -596q-9 -73 -74.5 -116.5t-141.5 -47.5z" />
    <glyph glyph-name="f_f_j" unicode="ffj" horiz-adv-x="919" 
d="M432 753l-8 -63q-30 8 -69 8q-113 0 -124 -88l-13 -110h258l10 85q11 86 84 130.5t198 44.5q65 0 132 -9l-8 -66q-80 13 -132 13q-192 0 -207 -113l-10 -85h326l-73 -596q-9 -73 -74.5 -116.5t-141.5 -47.5l7 59q54 7 94.5 34t47.5 80l65 532h-258l-85 -695h-67l85 695
h-258l-85 -695h-67l85 695h-100l4 31l104 29l12 105q19 150 199 150q42 0 69 -7z" />
    <glyph glyph-name="f_k" unicode="fk" horiz-adv-x="880" 
d="M864 500l-240 -206l206 -294h-87l-166 254l-71 -60l-23 -194h-68l85 694q-40 4 -65 4q-192 0 -207 -113l-10 -85h158l-7 -55h-158l-85 -695h-67l85 695h-100l4 31l104 29l9 80q11 86 84 130.5t198 44.5q67 0 132 -10l-59 -474l254 224h94z" />
    <glyph glyph-name="f_f_k" unicode="ffk" horiz-adv-x="1205" 
d="M432 753l-8 -63q-30 8 -69 8q-113 0 -124 -88l-13 -110h258l10 85q11 86 84 130.5t198 44.5q67 0 132 -10l-59 -474l254 224h94l-240 -206l206 -294h-87l-166 254l-71 -60l-23 -194h-68l85 694q-40 4 -65 4q-192 0 -207 -113l-10 -85h158l-7 -55h-158l-85 -695h-67
l85 695h-258l-85 -695h-67l85 695h-100l4 31l104 29l12 105q19 150 199 150q42 0 69 -7z" />
    <glyph glyph-name="f_t" unicode="ft" horiz-adv-x="700" 
d="M626 50l-7 -56q-17 -4 -46 -4q-69 0 -110 33.5t-33 102.5l39 319h-258l-85 -695h-67l85 695h-100l4 31l104 29l12 105q19 150 199 150q42 0 69 -7l-8 -63q-30 8 -69 8q-113 0 -124 -88l-13 -110h258l17 140l73 20l-20 -160h155l-7 -55h-155l-38 -311q-11 -86 85 -86
q14 0 40 2z" />
    <glyph glyph-name="f_f_t" unicode="fft" horiz-adv-x="1025" 
d="M432 753l-8 -63q-30 8 -69 8q-113 0 -124 -88l-13 -110h258l13 110q19 150 199 150q42 0 69 -7l-8 -63q-30 8 -69 8q-113 0 -124 -88l-13 -110h258l17 140l73 20l-20 -160h155l-7 -55h-155l-38 -311q-11 -86 85 -86q14 0 40 2l-7 -56q-17 -4 -46 -4q-69 0 -110 33.5
t-33 102.5l39 319h-258l-85 -695h-67l85 695h-258l-85 -695h-67l85 695h-100l4 31l104 29l12 105q19 150 199 150q42 0 69 -7z" />
    <glyph glyph-name="f_dotlessi" unicode="f&#x131;" horiz-adv-x="605" 
d="M152 505l12 105q19 150 199 150q42 0 69 -7l-8 -63q-30 8 -69 8q-113 0 -124 -88l-13 -110h326l-50 -408q-4 -26 4 -35.5t32 -9.5l-7 -57q-56 0 -79.5 25.5t-16.5 84.5l42 345h-258l-85 -695h-67l85 695h-100l4 31z" />
    <glyph glyph-name="f_f_dotlessi" unicode="ff&#x131;" horiz-adv-x="930" 
d="M543 500h326l-50 -408q-4 -26 4 -35.5t32 -9.5l-7 -57q-56 0 -79.5 25.5t-16.5 84.5l42 345h-258l-85 -695h-67l85 695h-258l-85 -695h-67l85 695h-100l4 31l104 29l12 105q19 150 199 150q42 0 69 -7l-8 -63q-30 8 -69 8q-113 0 -124 -88l-13 -110h258l13 110
q19 150 199 150q42 0 69 -7l-8 -63q-30 8 -69 8q-113 0 -124 -88z" />
    <glyph glyph-name="f_t_t" unicode="ftt" horiz-adv-x="1025" 
d="M626 50l-7 -56q-17 -4 -46 -4q-69 0 -110 33.5t-33 102.5l39 319h-258l-85 -695h-67l85 695h-100l4 31l104 29l12 105q19 150 199 150q42 0 69 -7l-8 -63q-30 8 -69 8q-113 0 -124 -88l-13 -110h258l17 140l73 20l-20 -160h255l17 140l73 20l-20 -160h155l-7 -55h-155
l-38 -311q-11 -86 85 -86q14 0 40 2l-7 -56q-17 -4 -46 -4q-69 0 -110 33.5t-33 102.5l39 319h-255l-38 -311q-11 -86 85 -86q14 0 40 2z" />
    <glyph glyph-name="t_t" unicode="tt" horiz-adv-x="700" 
d="M626 50l-7 -56q-17 -4 -46 -4q-69 0 -110 33.5t-33 102.5l39 319h-255l-38 -311q-11 -86 85 -86q14 0 40 2l-7 -56q-17 -4 -46 -4q-69 0 -110 33.5t-33 102.5l39 319h-100l4 31l104 29l16 135l73 20l-20 -160h255l17 140l73 20l-20 -160h155l-7 -55h-155l-38 -311
q-11 -86 85 -86q14 0 40 2z" />
    <glyph glyph-name="interrobangdown" unicode="&#xa1;&#xbf;" horiz-adv-x="470" 
d="M276 290h40l-33 -486q60 5 110 21l-7 -60q-26 -10 -73.5 -17.5t-83.5 -7.5q-75 0 -125 16.5t-70 44t-27.5 63.5t0.5 74q5 46 21 78.5t47 56.5t60 38.5t81 34.5q20 7 38 18zM74 -61q-7 -61 16.5 -94t98.5 -41l53 296q-6 -3 -18 -7q-34 -12 -52 -20.5t-42.5 -26t-37.5 -44
t-18 -63.5zM267 460q0 21 14.5 35.5t35.5 14.5t35.5 -14.5t14.5 -35.5t-14.5 -35.5t-35.5 -14.5t-35.5 14.5t-14.5 35.5z" />
    <glyph glyph-name="ff" unicode="ff" horiz-adv-x="700" 
d="M757 753l-8 -63q-30 8 -69 8q-113 0 -124 -88l-13 -110h158l-7 -55h-158l-85 -695h-67l85 695h-258l-85 -695h-67l85 695h-100l4 31l104 29l12 105q19 150 199 150q42 0 69 -7l-8 -63q-30 8 -69 8q-113 0 -124 -88l-13 -110h258l13 110q19 150 199 150q42 0 69 -7z" />
    <glyph glyph-name="fi" unicode="fi" horiz-adv-x="605" 
d="M523 -10q-56 0 -79.5 25.5t-16.5 84.5l42 345h-258l-85 -695h-67l85 695h-100l4 31l104 29l9 80q11 86 84 130.5t198 44.5q65 0 132 -9l-8 -66q-80 13 -132 13q-192 0 -207 -113l-10 -85h326l-50 -408q-4 -26 4 -35.5t32 -9.5z" />
    <glyph glyph-name="fl" unicode="fl" horiz-adv-x="605" 
d="M523 -10q-56 0 -79.5 25.5t-16.5 84.5l73 594q-40 4 -65 4q-192 0 -207 -113l-10 -85h158l-7 -55h-158l-85 -695h-67l85 695h-100l4 31l104 29l9 80q11 86 84 130.5t198 44.5q65 0 132 -9l-81 -659q-4 -26 4 -35.5t32 -9.5z" />
    <glyph glyph-name="ffi" unicode="ffi" horiz-adv-x="930" 
d="M848 -10q-56 0 -79.5 25.5t-16.5 84.5l42 345h-258l-85 -695h-67l85 695h-258l-85 -695h-67l85 695h-100l4 31l104 29l12 105q19 150 199 150q42 0 69 -7l-8 -63q-30 8 -69 8q-113 0 -124 -88l-13 -110h258l10 85q11 86 84 130.5t198 44.5q65 0 132 -9l-8 -66
q-80 13 -132 13q-192 0 -207 -113l-10 -85h326l-50 -408q-4 -26 4 -35.5t32 -9.5z" />
    <glyph glyph-name="ffl" unicode="ffl" horiz-adv-x="930" 
d="M432 753l-8 -63q-30 8 -69 8q-113 0 -124 -88l-13 -110h258l10 85q11 86 84 130.5t198 44.5q65 0 132 -9l-81 -659q-4 -26 4 -35.5t32 -9.5l-7 -57q-56 0 -79.5 25.5t-16.5 84.5l73 594q-40 4 -65 4q-192 0 -207 -113l-10 -85h158l-7 -55h-158l-85 -695h-67l85 695h-258
l-85 -695h-67l85 695h-100l4 31l104 29l12 105q19 150 199 150q42 0 69 -7z" />
    <glyph glyph-name=".notdef" horiz-adv-x="649" 
d="M403 293h-156v242h156v-242zM325 47q-143 0 -275 -57v166q124 52 275 52t275 -52v-166q-132 57 -275 57zM515 760q41 0 68 -27t27 -68q0 -40 -27.5 -67.5t-67.5 -27.5t-67.5 27.5t-27.5 67.5t27.5 67.5t67.5 27.5zM135 760q40 0 67.5 -27.5t27.5 -67.5t-27.5 -67.5
t-67.5 -27.5t-67.5 27.5t-27.5 67.5q0 41 27 68t68 27z" />
    <glyph glyph-name=".null" horiz-adv-x="0" 
 />
    <glyph glyph-name="nonmarkingreturn" horiz-adv-x="333" 
 />
    <glyph glyph-name="space" unicode=" " horiz-adv-x="170" 
 />
    <glyph glyph-name="exclam" unicode="!" horiz-adv-x="190" 
d="M110 210h-40l37 540h100zM19 40q0 21 14.5 35.5t35.5 14.5t35.5 -14.5t14.5 -35.5t-14.5 -35.5t-35.5 -14.5t-35.5 14.5t-14.5 35.5z" />
    <glyph glyph-name="quotedbl" unicode="&#x22;" horiz-adv-x="330" 
d="M145 500h-38v250h100zM285 500h-38v250h100z" />
    <glyph glyph-name="numbersign" unicode="#" horiz-adv-x="555" 
d="M37 224h95l75 177h-96l28 66h95l67 158h69l-67 -158h147l67 158h69l-67 -158h96l-28 -66h-95l-75 -177h96l-28 -66h-96l-66 -158h-69l66 158h-147l-66 -158h-69l66 158h-95zM276 401l-75 -177h147l75 177h-147z" />
    <glyph glyph-name="dollar" unicode="$" horiz-adv-x="515" 
d="M137 422q-4 -37 26 -51.5t109 -21.5q111 -9 153.5 -40t33.5 -102t-74 -113t-184 -42l-53 -114h-75l61 120q-71 9 -96 22l8 59q61 -26 173 -26q162 0 173 93q5 42 -25 60.5t-107 24.5q-111 10 -153 39t-35 92q9 72 72 111t178 39l53 115h75l-61 -120q59 -9 87 -21l-8 -59
q-68 24 -170 24q-78 0 -116.5 -21t-44.5 -68z" />
    <glyph glyph-name="percent" unicode="%" horiz-adv-x="943" 
d="M223 265q-171 0 -148 185t193 185q172 0 149 -185t-194 -185zM736 360q171 0 148 -185t-194 -185t-148 185t194 185zM259 0h-77l518 625h77zM230 325q57 0 86 29t37 96t-13.5 96t-78.5 29t-85.5 -29t-36.5 -96t13 -96t78 -29zM728 300q-57 0 -85.5 -29t-36.5 -96
t13.5 -96t78.5 -29t85.5 29t36.5 96t-13.5 96t-78.5 29z" />
    <glyph glyph-name="ampersand" unicode="&#x26;" horiz-adv-x="757" 
d="M747 374l-9 -66h-102q7 -38 3 -73q-14 -112 -97 -178.5t-223 -66.5q-142 0 -215.5 82.5t-56.5 227.5q18 145 112 227.5t236 82.5q29 0 55 -3q26 72 34 143h70q-11 -87 -42.5 -172t-83 -163t-130.5 -139t-175 -89q18 -66 70.5 -100.5t133.5 -34.5q219 0 240 183
q5 32 -5 73h-106l9 66h282zM115 252q111 34 188.5 112t123.5 182q-26 2 -40 2q-111 0 -182 -64.5t-86 -183.5q-4 -34 -4 -48z" />
    <glyph glyph-name="quotesingle" unicode="'" horiz-adv-x="190" 
d="M145 500h-38v250h100z" />
    <glyph glyph-name="parenleft" unicode="(" horiz-adv-x="280" 
d="M194 -206h-75q-39 70 -61 205t-1 306t76.5 306.5t111.5 204.5h75q-57 -70 -112.5 -205t-76.5 -306t1.5 -306t61.5 -205z" />
    <glyph glyph-name="parenright" unicode=")" horiz-adv-x="280" 
d="M49 -206h-75q57 71 112.5 205.5t76.5 305.5q21 170 -1.5 305t-61.5 206h75q39 -71 61 -205.5t1 -305.5t-76.5 -306t-111.5 -205z" />
    <glyph glyph-name="asterisk" unicode="*" horiz-adv-x="355" 
d="M219 528l35 22l86 -105l-68 -43zM176 550l29 -22l-83 -128l-56 46zM241 609h-38l-2 141h78zM260 564l-7 37l137 61l13 -74zM189 601l-15 -37l-138 24l33 73z" />
    <glyph glyph-name="plus" unicode="+" horiz-adv-x="490" 
d="M265 141h-66l20 167h-167l8 66h167l21 167h66l-21 -167h167l-8 -66h-167z" />
    <glyph glyph-name="comma" unicode="," horiz-adv-x="190" 
d="M28 66h90l-89 -191h-50z" />
    <glyph glyph-name="hyphen" unicode="-" horiz-adv-x="310" 
d="M291 338l-8 -66h-250l8 66h250z" />
    <glyph glyph-name="period" unicode="." horiz-adv-x="190" 
d="M19 40q0 21 14.5 35.5t35.5 14.5t35.5 -14.5t14.5 -35.5t-14.5 -35.5t-35.5 -14.5t-35.5 14.5t-14.5 35.5z" />
    <glyph glyph-name="slash" unicode="/" horiz-adv-x="390" 
d="M2 -206h-72l472 1022h73z" />
    <glyph glyph-name="zero" unicode="0" horiz-adv-x="574" 
d="M263 52q92 0 134 63t59 198q16 134 -10.5 197t-118.5 63t-134.5 -63.5t-58.5 -196.5q-17 -134 10 -197.5t119 -63.5zM255 -10q-131 0 -171.5 79t-20.5 244t80 243.5t191 78.5t172 -78.5t21 -243.5t-80.5 -244t-191.5 -79z" />
    <glyph glyph-name="one" unicode="1" horiz-adv-x="330" 
d="M233 635h30l-77 -635h-70l69 563l-136 -5l3 27z" />
    <glyph glyph-name="two" unicode="2" horiz-adv-x="495" 
d="M400 459q7 58 -23 86t-110 28q-72 0 -162 -30l8 64q73 28 162 28q65 0 107.5 -14.5t61.5 -41.5t24.5 -55.5t0.5 -65.5q-7 -60 -36 -106.5t-102.5 -111.5t-227.5 -178h329l-7 -62h-425l5 48q125 88 205.5 153.5t119 113t52.5 77.5t18 67z" />
    <glyph glyph-name="three" unicode="3" horiz-adv-x="505" 
d="M248 573q-72 0 -162 -30l8 64q73 28 161 28q123 0 171.5 -56t37.5 -146q-6 -51 -39.5 -97.5t-82.5 -66.5q59 -16 85.5 -67.5t18.5 -115.5q-12 -97 -79.5 -159t-198.5 -62q-99 0 -161 32l7 62q82 -32 162 -32q176 0 196 159q9 76 -26.5 110.5t-126.5 34.5h-111l8 66h111
q78 0 117 40t46 96q8 65 -21.5 102.5t-120.5 37.5z" />
    <glyph glyph-name="four" unicode="4" 
d="M480 635l-58 -479h107l-8 -62h-107l-27 -219h-68l27 219h-325l5 42l403 499h51zM107 154l247 2l46 361z" />
    <glyph glyph-name="five" unicode="5" horiz-adv-x="500" 
d="M165 -73q202 0 225 181q4 36 0.5 63t-17.5 43t-27.5 25.5t-40.5 13t-43 4.5t-48 1h-4h-140l45 367h395l-7 -62h-327l-30 -245q52 5 95 5q41 0 72 -4t64 -17t52.5 -35.5t29.5 -63t3 -95.5q-30 -243 -306 -243q-99 0 -161 32l7 62q82 -32 163 -32z" />
    <glyph glyph-name="six" unicode="6" horiz-adv-x="575" 
d="M385 696q-210 0 -251 -322q27 40 75.5 69t116.5 29q59 0 100.5 -15.5t61 -40.5t30.5 -56.5t9 -64.5t-4 -64q-31 -241 -256 -241q-103 0 -153 44.5t-54.5 123.5t7.5 187q12 98 33 169.5t58 129t96 87t139 29.5q113 0 171 -34l-8 -66q-66 36 -171 36zM127 231
q-22 -179 148 -179q48 0 83.5 17.5t54 47t27.5 57t13 57.5q6 25 2.5 56.5t-12.5 58.5t-41 45.5t-83 18.5q-50 0 -87.5 -16.5t-58.5 -44.5t-31.5 -56.5t-14.5 -61.5z" />
    <glyph glyph-name="seven" unicode="7" horiz-adv-x="435" 
d="M97 -125h-77l377 688h-348l7 62h415l-6 -48z" />
    <glyph glyph-name="eight" unicode="8" 
d="M253 -10q-131 0 -184.5 62t-41.5 159q8 62 46 114t101 70q-45 22 -65.5 64.5t-14.5 92.5q12 91 73.5 149.5t180.5 58.5t166.5 -58.5t35.5 -149.5q-6 -50 -37 -92.5t-81 -64.5q59 -18 84 -70.5t17 -113.5q-12 -97 -80.5 -159t-199.5 -62zM298 358q-178 0 -197 -147
q-7 -65 28.5 -112t131.5 -47t143.5 47t54.5 112q10 75 -31 111t-130 36zM306 420q78 0 120.5 38.5t49.5 93.5q3 28 -0.5 51.5t-16.5 46t-43.5 35.5t-75.5 13q-86 0 -125.5 -42.5t-46.5 -103.5q-7 -54 26.5 -93t111.5 -39z" />
    <glyph glyph-name="nine" unicode="9" horiz-adv-x="575" 
d="M211 -71q211 0 250 322q-26 -40 -75 -69t-117 -29q-59 0 -100.5 15.5t-61 40.5t-30.5 56.5t-8.5 64.5t4.5 64q29 241 255 241q78 0 125.5 -25.5t65.5 -72t20 -112t-10 -145.5q-12 -98 -33 -169.5t-58 -129t-96 -87t-139 -29.5q-115 0 -171 34l8 66q66 -36 171 -36z
M469 394q22 179 -148 179q-48 0 -83.5 -17.5t-54 -47t-27.5 -57t-13 -57.5q-6 -26 -2.5 -57t12.5 -58t41 -45.5t83 -18.5q50 0 87.5 16.5t58 44.5t31.5 56.5t15 61.5z" />
    <glyph glyph-name="colon" unicode=":" horiz-adv-x="190" 
d="M19 40q0 21 14.5 35.5t35.5 14.5t35.5 -14.5t14.5 -35.5t-14.5 -35.5t-35.5 -14.5t-35.5 14.5t-14.5 35.5zM61 375q0 21 14.5 35.5t35.5 14.5t35.5 -14.5t14.5 -35.5t-14.5 -35.5t-35.5 -14.5t-35.5 14.5t-14.5 35.5z" />
    <glyph glyph-name="semicolon" unicode=";" horiz-adv-x="190" 
d="M28 66h90l-89 -191h-50zM61 375q0 21 14.5 35.5t35.5 14.5t35.5 -14.5t14.5 -35.5t-14.5 -35.5t-35.5 -14.5t-35.5 14.5t-14.5 35.5z" />
    <glyph glyph-name="less" unicode="&#x3c;" horiz-adv-x="490" 
d="M433 148l-9 -73l-372 233l8 66l429 233l-9 -73l-355 -193z" />
    <glyph glyph-name="equal" unicode="=" horiz-adv-x="490" 
d="M469 440l-9 -66h-400l9 66h400zM452 308l-8 -66h-400l8 66h400z" />
    <glyph glyph-name="greater" unicode="&#x3e;" horiz-adv-x="490" 
d="M80 534l9 73l371 -233l-8 -66l-428 -233l9 73l354 193z" />
    <glyph glyph-name="question" unicode="?" horiz-adv-x="470" 
d="M235 698q-89 0 -158 -23l8 60q25 10 73 17.5t84 7.5q75 0 124.5 -16t70.5 -45.5t26.5 -61.5t0.5 -75q-6 -46 -22 -78.5t-47 -56.5t-60 -38.5t-81 -34.5q-37 -14 -56.5 -36t-25 -42.5t-10.5 -65.5h-37q-4 29 -1 58.5t13 54.5t37.5 48t72.5 39q30 11 42 15.5t35.5 18
t34.5 27t22.5 37t14.5 53.5q9 69 -24 103t-137 34zM92 40q0 21 14.5 35.5t35.5 14.5t35.5 -14.5t14.5 -35.5t-14.5 -35.5t-35.5 -14.5t-35.5 14.5t-14.5 35.5z" />
    <glyph glyph-name="at" unicode="@" horiz-adv-x="870" 
d="M40 250q47 385 447 385q193 0 281.5 -82.5t68.5 -244.5q-5 -45 -18.5 -84.5t-40 -81.5t-77 -67t-118.5 -25h-39l-11 37q-68 -47 -142 -47q-80 0 -125.5 53.5t-33.5 156.5q13 103 72 156.5t139 53.5q74 0 130 -47l20 37h39l-42 -343q86 -1 128.5 50t55.5 156
q17 141 -53.5 202t-240.5 61t-260 -77t-111 -249t50 -249t241 -77q156 0 260 42l-6 -62q-114 -39 -261 -39q-400 0 -353 385zM409 102q50 0 114 32l28 232q-55 32 -106 32q-65 0 -99.5 -36.5t-43.5 -111.5t16.5 -111.5t90.5 -36.5z" />
    <glyph glyph-name="A" unicode="A" horiz-adv-x="630" 
d="M72 0h-77l358 760h50l172 -760h-77l-44 210h-288zM364 646l-171 -377h249z" />
    <glyph glyph-name="B" unicode="B" horiz-adv-x="615" 
d="M45 0l92 750h237q123 0 171.5 -54t36.5 -144q-6 -51 -36.5 -93.5t-80.5 -62.5q59 -16 83.5 -68t16.5 -117q-11 -96 -77.5 -153.5t-198.5 -57.5h-244zM157 359l-37 -296h185q170 0 186 148q10 77 -23.5 112.5t-123.5 35.5h-187zM508 552q7 60 -19.5 97.5t-112.5 37.5h-179
l-33 -265h187q141 0 157 130z" />
    <glyph glyph-name="C" unicode="C" horiz-adv-x="610" 
d="M76 375q10 84 33.5 151t63 121t102 83.5t143.5 29.5q115 0 191 -35l-9 -67q-91 39 -190 39q-116 0 -180 -87.5t-82 -234.5q-12 -95 0 -164.5t58 -113.5t125 -44q98 0 200 39l-8 -67q-86 -35 -200 -35q-81 0 -136.5 30t-81 82.5t-34 122.5t4.5 150z" />
    <glyph glyph-name="D" unicode="D" horiz-adv-x="655" 
d="M249 0h-204l92 750h204q89 0 149 -28.5t87.5 -79t36.5 -119t-3 -148.5q-11 -84 -34 -149t-64.5 -117.5t-108 -80.5t-155.5 -28zM197 687l-77 -624h140q239 0 279 312q38 312 -202 312h-140z" />
    <glyph glyph-name="E" unicode="E" 
d="M496 422l-7 -63h-332l-37 -296h367l-7 -63h-435l92 750h435l-8 -63h-367l-33 -265h332z" />
    <glyph glyph-name="F" unicode="F" horiz-adv-x="550" 
d="M486 422l-7 -63h-322l-44 -359h-68l92 750h425l-8 -63h-357l-33 -265h322z" />
    <glyph glyph-name="G" unicode="G" horiz-adv-x="660" 
d="M323 -10q-81 0 -136.5 30t-81 82.5t-34 122.5t4.5 150q10 84 33.5 151t63 121t102 83.5t143.5 29.5q127 0 205 -42l-9 -68q-59 26 -102.5 36.5t-101.5 10.5q-116 0 -180 -87.5t-82 -234.5q-12 -95 0 -164.5t58 -113.5t125 -44q117 0 165 22l31 256h-157l8 63h225
l-45 -363q-92 -41 -235 -41z" />
    <glyph glyph-name="H" unicode="H" horiz-adv-x="660" 
d="M555 0h-68l44 359h-374l-44 -359h-68l92 750h68l-41 -328h374l41 328h68z" />
    <glyph glyph-name="I" unicode="I" horiz-adv-x="260" 
d="M135 0h-70l92 750h70z" />
    <glyph glyph-name="J" unicode="J" horiz-adv-x="379" 
d="M4 -3l8 64q31 -8 69 -8q109 0 119 85l76 612h70l-75 -610q-19 -150 -198 -150q-41 0 -69 7z" />
    <glyph glyph-name="K" unicode="K" horiz-adv-x="595" 
d="M455 0l-233 363l-74 -75l-35 -288h-68l92 750h68l-46 -374l359 374h88l-334 -336l272 -414h-89z" />
    <glyph glyph-name="L" unicode="L" horiz-adv-x="530" 
d="M205 750l-85 -687h347l-7 -63h-415l92 750h68z" />
    <glyph glyph-name="M" unicode="M" horiz-adv-x="840" 
d="M752 661l-320 -546h-56l-186 546l-77 -661h-68l92 750h92l185 -552l321 552h92l-92 -750h-68z" />
    <glyph glyph-name="N" unicode="N" horiz-adv-x="670" 
d="M565 0h-51l-328 611l-73 -611h-68l92 750h51l328 -611l73 611h68z" />
    <glyph glyph-name="O" unicode="O" horiz-adv-x="680" 
d="M316 53q53 0 93 17t66 44t44 70.5t27.5 87t17.5 103.5q11 67 8.5 126t-17 102.5t-55 68.5t-105.5 25q-53 0 -93 -17t-65.5 -44t-44 -70.5t-28 -87t-16.5 -103.5q-10 -92 -7 -163.5t46 -115t129 -43.5zM308 -10q-71 0 -120.5 22t-74.5 56.5t-36 87t-10 103t9 116.5
t19.5 116t35.5 103t58 87.5t88.5 56.5t125.5 22q51 0 91 -11.5t66.5 -30.5t44.5 -48t26.5 -60.5t11.5 -72.5t1 -78.5t-8 -83.5q-8 -66 -20 -116t-36 -103t-58 -87.5t-88.5 -56.5t-125.5 -22z" />
    <glyph glyph-name="P" unicode="P" horiz-adv-x="590" 
d="M149 300l-36 -300h-68l92 750h229q68 0 115.5 -18.5t71.5 -50.5t33 -71t3 -85q-12 -98 -80 -161.5t-199 -63.5h-161zM197 687l-40 -324h170q168 0 188 162t-148 162h-170z" />
    <glyph glyph-name="Q" unicode="Q" horiz-adv-x="680" 
d="M393 7v-1l280 -58l-9 -72l-446 124q-57 16 -92 51.5t-47 89t-12 107.5t9 127q9 70 21 123t36 104.5t58.5 84.5t88 53t123.5 20q71 0 120 -20.5t75 -53t37 -84.5t10.5 -104t-9.5 -123q-8 -62 -17 -107t-26.5 -92.5t-42.5 -78.5t-64.5 -55.5t-92.5 -34.5zM316 53
q53 0 93 17t66 44t44 70.5t27.5 87t17.5 103.5q11 67 8.5 126t-17 102.5t-55 68.5t-105.5 25q-53 0 -93 -17t-65.5 -44t-44 -70.5t-28 -87t-16.5 -103.5q-10 -92 -7 -163.5t46 -115t129 -43.5z" />
    <glyph glyph-name="R" unicode="R" horiz-adv-x="621" 
d="M153 328l-40 -328h-68l92 750h235q134 0 183 -54t36 -157q-10 -80 -48 -130t-115 -69l138 -340h-79l-128 329q-11 -1 -33 -1h-173zM197 687l-36 -296h185q91 0 126.5 38.5t44.5 109.5t-17.5 109.5t-117.5 38.5h-185z" />
    <glyph glyph-name="S" unicode="S" horiz-adv-x="595" 
d="M360 697q-102 0 -146.5 -39.5t-53.5 -107.5q-4 -32 2 -53.5t16 -34.5t35.5 -22t46.5 -12.5t64 -9.5q59 -8 97.5 -19.5t69 -33.5t42 -58.5t4.5 -90.5q-5 -42 -22.5 -79t-50.5 -71.5t-92.5 -55t-139.5 -20.5q-51 0 -110.5 12t-94.5 28l8 65q4 -1 23 -8t28 -10t29.5 -8.5
t36.5 -8t40 -5t49 -2.5q203 0 223 163q9 77 -22.5 104t-128.5 40q-135 17 -184.5 57t-37.5 134q4 29 13 55.5t29.5 55.5t50 50t77.5 34.5t108 13.5q119 0 191 -35l-9 -67q-86 39 -191 39z" />
    <glyph glyph-name="T" unicode="T" horiz-adv-x="560" 
d="M575 687h-207l-84 -687h-68l84 687h-207l8 63h482z" />
    <glyph glyph-name="U" unicode="U" horiz-adv-x="670" 
d="M311 53q197 0 221 193l62 504h68l-64 -515q-7 -61 -32 -107t-56.5 -71.5t-71.5 -41.5t-71.5 -20.5t-63.5 -4.5t-62 4.5t-66.5 20.5t-61.5 41.5t-38.5 71.5t-6.5 107l64 515h68l-62 -504q-6 -51 4 -89t27.5 -57t46 -30.5t49.5 -14t46 -2.5z" />
    <glyph glyph-name="V" unicode="V" horiz-adv-x="640" 
d="M595 750h77l-359 -760h-50l-171 760h77l133 -646z" />
    <glyph glyph-name="W" unicode="W" horiz-adv-x="880" 
d="M464 750h76l88 -654l212 654h72l-258 -760h-73l-90 670l-256 -670h-73l-70 760h72l50 -654z" />
    <glyph glyph-name="X" unicode="X" horiz-adv-x="630" 
d="M322 424l240 326h85l-286 -370l199 -380h-88l-161 334l-243 -334h-88l291 380l-194 370h85z" />
    <glyph glyph-name="Y" unicode="Y" horiz-adv-x="670" 
d="M702 750l-325 -440l-38 -310h-68l38 310l-217 440h75l182 -385l278 385h75z" />
    <glyph glyph-name="Z" unicode="Z" horiz-adv-x="610" 
d="M540 0h-530l5 46l506 643l-407 -2l8 63h495l-6 -46l-506 -643l442 2z" />
    <glyph glyph-name="bracketleft" unicode="[" horiz-adv-x="230" 
d="M198 750l-110 -890h64l-8 -66h-135l126 1022h135l-8 -66h-64z" />
    <glyph glyph-name="backslash" unicode="\" horiz-adv-x="390" 
d="M349 -206h-73l-221 1022h73z" />
    <glyph glyph-name="bracketright" unicode="]" horiz-adv-x="230" 
d="M46 -140l110 890h-64l8 66h135l-126 -1022h-135l8 66h64z" />
    <glyph glyph-name="asciicircum" unicode="^" horiz-adv-x="560" 
d="M103 375h-73l280 385h66l186 -385h-73l-155 311z" />
    <glyph glyph-name="underscore" unicode="_" horiz-adv-x="280" 
d="M-49 -155l8 60h279l-8 -60h-279z" />
    <glyph glyph-name="grave" unicode="`" 
d="M347 550h-50l-55 200h80z" />
    <glyph glyph-name="a" unicode="a" horiz-adv-x="535" 
d="M501 500l-61 -500h-39l-10 41q-88 -51 -163 -51q-112 0 -149.5 69.5t-23.5 190.5q15 121 70 190.5t167 69.5q86 0 150 -52l20 42h39zM236 52q80 0 144 32l41 332q-56 32 -136 32q-43 0 -73.5 -16t-47.5 -46.5t-25.5 -61.5t-13.5 -74q-7 -37 -5 -72.5t11 -63.5t35.5 -45
t69.5 -17z" />
    <glyph glyph-name="b" unicode="b" horiz-adv-x="535" 
d="M307 510q205 0 173 -260q-31 -260 -237 -260q-76 0 -149 51l-20 -41h-39l92 750h70l-35 -281q69 41 145 41zM300 448q-82 0 -144 -32l-41 -332q55 -32 136 -32q43 0 73.5 16t47 47t25 61.5t13.5 73.5q7 37 5 72.5t-10.5 63.5t-35 45t-69.5 17z" />
    <glyph glyph-name="c" unicode="c" horiz-adv-x="460" 
d="M55 250q7 58 22 102t42.5 81.5t72.5 57t106 19.5q91 0 146 -25l-7 -60q-67 23 -147 23q-45 0 -76.5 -16t-49 -47t-26 -61.5t-13.5 -73.5q-7 -37 -5 -72.5t11 -63.5t37 -45t73 -17q80 0 153 23l-8 -60q-61 -25 -152 -25q-61 0 -101.5 20.5t-57.5 55.5t-23 82.5t3 101.5z
" />
    <glyph glyph-name="d" unicode="d" horiz-adv-x="535" 
d="M292 510q78 0 135 -41l35 281h70l-92 -750h-39l-10 41q-88 -51 -163 -51q-112 0 -149.5 69.5t-23.5 190.5q15 121 70 190.5t167 69.5zM285 448q-43 0 -73.5 -16t-47.5 -46.5t-25.5 -61.5t-13.5 -74q-7 -37 -5 -72.5t11 -63.5t35.5 -45t69.5 -17q80 0 144 32l41 332
q-56 32 -136 32z" />
    <glyph glyph-name="e" unicode="e" horiz-adv-x="510" 
d="M128 275h140q69 0 97.5 22.5t33.5 64.5q5 41 -17.5 63.5t-91.5 22.5q-79 0 -114.5 -46.5t-47.5 -126.5zM261 218h-140q-3 -37 0.5 -63.5t15 -51.5t37.5 -38t67 -13q100 0 168 28l-7 -60q-71 -30 -169 -30q-61 0 -101.5 20.5t-57.5 55.5t-22.5 82.5t3.5 101.5q7 58 22 102
t42 81.5t72 57t106 19.5q97 0 136.5 -43.5t31.5 -104.5t-57 -102.5t-147 -41.5z" />
    <glyph glyph-name="f" unicode="f" horiz-adv-x="375" 
d="M432 753l-8 -63q-30 8 -69 8q-113 0 -124 -88l-13 -110h158l-7 -55h-158l-85 -695h-67l85 695h-100l4 31l104 29l12 105q19 150 199 150q42 0 69 -7z" />
    <glyph glyph-name="g" unicode="g" horiz-adv-x="535" 
d="M228 -10q-112 0 -149.5 69.5t-23.5 190.5q15 121 70 190.5t167 69.5q86 0 150 -52l20 42h39l-66 -540q-7 -52 -18.5 -87.5t-36 -68.5t-69 -49t-109.5 -16q-120 0 -190 40l9 69q87 -50 189 -50q38 0 66.5 11t43 24.5t25 40.5t13.5 41.5t7 44.5l8 71q-76 -41 -145 -41z
M236 52q80 0 144 32l41 332q-56 32 -136 32q-43 0 -73.5 -16t-47.5 -46.5t-25.5 -61.5t-13.5 -74q-7 -37 -5 -72.5t11 -63.5t35.5 -45t69.5 -17z" />
    <glyph glyph-name="h" unicode="h" horiz-adv-x="500" 
d="M384 363q6 47 -17 66t-72 19q-82 0 -141 -32l-51 -416h-68l92 750h68l-35 -281q69 41 142 41q87 0 123.5 -38t28.5 -112l-44 -360h-70z" />
    <glyph glyph-name="i" unicode="i" horiz-adv-x="240" 
d="M159 -10q-56 0 -79.5 25.5t-16.5 84.5l49 400h68l-50 -408q-4 -26 4 -35.5t32 -9.5zM114 650q0 21 14.5 35.5t35.5 14.5t35.5 -14.5t14.5 -35.5t-14.5 -35.5t-35.5 -14.5t-35.5 14.5t-14.5 35.5z" />
    <glyph glyph-name="j" unicode="j" horiz-adv-x="230" 
d="M-108 -260l7 59q54 7 94 34t47 80l72 587h68l-73 -596q-6 -49 -41.5 -87t-80.5 -56t-93 -21zM114 650q0 21 14.5 35.5t35.5 14.5t35.5 -14.5t14.5 -35.5t-14.5 -35.5t-35.5 -14.5t-35.5 14.5t-14.5 35.5z" />
    <glyph glyph-name="k" unicode="k" horiz-adv-x="500" 
d="M484 500l-240 -206l206 -294h-87l-166 254l-71 -60l-23 -194h-68l92 750h68l-59 -474l254 224h94z" />
    <glyph glyph-name="l" unicode="l" horiz-adv-x="240" 
d="M159 -10q-56 0 -79.5 25.5t-16.5 84.5l80 650h68l-81 -658q-4 -26 4 -35.5t32 -9.5z" />
    <glyph glyph-name="m" unicode="m" horiz-adv-x="785" 
d="M625 0l44 363q6 46 -16 65.5t-68 19.5q-73 0 -141 -33q3 -24 0 -52l-44 -363h-70l44 363q6 46 -16 65.5t-68 19.5q-72 0 -134 -30l-51 -418h-70l61 500h39l10 -41q76 51 152 51q101 0 133 -57q90 57 162 57q165 0 147 -150l-44 -360h-70z" />
    <glyph glyph-name="n" unicode="n" horiz-adv-x="500" 
d="M340 0l44 363q6 47 -17 66t-72 19q-80 0 -139 -32l-51 -416h-70l61 500h39l10 -42q76 52 157 52q87 0 123.5 -38t28.5 -112l-44 -360h-70z" />
    <glyph glyph-name="o" unicode="o" horiz-adv-x="530" 
d="M475 250q-16 -128 -69 -194t-173 -66q-82 0 -126.5 33.5t-52 91t0.5 135.5q16 127 69 193.5t173 66.5t157 -66.5t21 -193.5zM405 250q6 58 5.5 102t-29.5 70t-91 26q-39 0 -67 -10.5t-44.5 -26t-27.5 -43.5t-16 -53t-10 -65q-6 -58 -5.5 -102t29.5 -70t92 -26q47 0 78 14
t48 44t24.5 60t13.5 80z" />
    <glyph glyph-name="p" unicode="p" horiz-adv-x="535" 
d="M243 -10q-76 0 -135 41l-34 -281h-70l92 750h39l10 -41q87 51 162 51q205 0 173 -260q-31 -260 -237 -260zM251 52q43 0 73.5 16t47 47t25 61.5t13.5 73.5q7 37 5 72.5t-10.5 63.5t-35 45t-69.5 17q-82 0 -144 -32l-41 -332q55 -32 136 -32z" />
    <glyph glyph-name="q" unicode="q" horiz-adv-x="535" 
d="M228 -10q-112 0 -149.5 69.5t-23.5 190.5q15 121 70 190.5t167 69.5q76 0 150 -51l20 41h39l-92 -750h-70l34 281q-67 -41 -145 -41zM236 52q80 0 144 32l41 332q-56 32 -136 32q-43 0 -73.5 -16t-47.5 -46.5t-25.5 -61.5t-13.5 -74q-7 -37 -5 -72.5t11 -63.5t35.5 -45
t69.5 -17z" />
    <glyph glyph-name="r" unicode="r" horiz-adv-x="363" 
d="M372 505l-8 -65q-24 8 -59 8q-90 0 -149 -32l-51 -416h-70l61 500h39l10 -42q76 52 167 52q28 0 60 -5z" />
    <glyph glyph-name="s" unicode="s" horiz-adv-x="460" 
d="M132 362q-4 -35 16.5 -52t88.5 -23q100 -9 133 -43t25 -100t-61.5 -110t-158.5 -44q-86 0 -146 25l8 60q61 -23 147 -23q131 0 143 91q5 39 -14.5 59.5t-87.5 26.5q-101 9 -134 42t-25 91q8 62 58 105t147 43q86 0 141 -25l-7 -60q-67 23 -142 23q-69 0 -97.5 -22.5
t-33.5 -63.5z" />
    <glyph glyph-name="t" unicode="t" horiz-adv-x="375" 
d="M301 50l-7 -56q-17 -4 -46 -4q-69 0 -110 33.5t-33 102.5l39 319h-100l4 31l104 29l16 135l73 20l-20 -160h155l-7 -55h-155l-38 -311q-11 -86 85 -86q14 0 40 2z" />
    <glyph glyph-name="u" unicode="u" horiz-adv-x="500" 
d="M161 500l-45 -363q-6 -46 17.5 -65.5t72.5 -19.5q78 0 139 32l51 416h70l-61 -500h-39l-10 42q-77 -52 -158 -52q-170 0 -151 150l44 360h70z" />
    <glyph glyph-name="v" unicode="v" horiz-adv-x="480" 
d="M51 500h77l93 -410l193 410h77l-258 -510h-50z" />
    <glyph glyph-name="w" unicode="w" horiz-adv-x="700" 
d="M636 500h75l-204 -510h-52l-83 435l-191 -435h-52l-78 510h75l46 -392l172 392h74l76 -392z" />
    <glyph glyph-name="x" unicode="x" horiz-adv-x="490" 
d="M73 0h-83l216 257l-145 243h83l108 -196l156 196h83l-205 -243l154 -257h-83l-117 210z" />
    <glyph glyph-name="y" unicode="y" horiz-adv-x="500" 
d="M167 -261q-88 0 -146 27l7 60q82 -28 147 -28q38 0 66.5 11t43 24.5t25 40.5t13.5 41.5t7 44.5l8 71q-67 -41 -140 -41q-170 0 -151 150l44 360h70l-45 -363q-6 -46 17.5 -65.5t72.5 -19.5q78 0 139 32l51 416h70l-66 -540q-7 -52 -18.5 -87.5t-36 -68.5t-69 -49
t-109.5 -16z" />
    <glyph glyph-name="z" unicode="z" horiz-adv-x="455" 
d="M395 0h-390l5 45l342 396h-278l7 59h365l-6 -45l-341 -396h303z" />
    <glyph glyph-name="braceleft" unicode="{" horiz-adv-x="210" 
d="M29 338h10q44 0 47 39l22 330q4 56 38 82.5t89 26.5h15l-8 -66h-15q-44 0 -47 -39l-23 -330q-4 -45 -39 -76q27 -30 21 -76l-59 -330q-6 -39 37 -39h15l-8 -66h-15q-55 0 -82 27t-17 82l58 330q6 36 -32 39h-15z" />
    <glyph glyph-name="bar" unicode="|" horiz-adv-x="245" 
d="M102 -206h-71l126 1022h71z" />
    <glyph glyph-name="braceright" unicode="}" horiz-adv-x="210" 
d="M193 338h10l-8 -66h-15q-39 -3 -42 -39l-22 -330q-4 -56 -38 -82.5t-89 -26.5h-15l8 66h15q44 0 47 39l23 330q1 22 13.5 43.5t28.5 32.5q-13 11 -20.5 32.5t-3.5 43.5l59 330q6 39 -37 39h-15l8 66h15q55 0 82 -27t17 -82l-58 -330q-6 -39 37 -39z" />
    <glyph glyph-name="asciitilde" unicode="~" horiz-adv-x="490" 
d="M353 334q34 0 63.5 13t43.5 27l-8 -65q-40 -34 -105 -34q-34 0 -61 11.5t-41.5 25t-36.5 25t-48 11.5q-34 0 -63.5 -13t-44.5 -27l8 65q40 34 105 34q34 0 61 -11.5t42 -25t37 -25t48 -11.5z" />
    <glyph glyph-name="nbspace" unicode="&#xa0;" horiz-adv-x="170" 
 />
    <glyph glyph-name="exclamdown" unicode="&#xa1;" horiz-adv-x="190" 
d="M80 290h40l-36 -540h-100zM71 460q0 21 14.5 35.5t35.5 14.5t35.5 -14.5t14.5 -35.5t-14.5 -35.5t-35.5 -14.5t-35.5 14.5t-14.5 35.5z" />
    <glyph glyph-name="cent" unicode="&#xa2;" horiz-adv-x="515" 
d="M406 568q52 -6 88 -23l-7 -60q-74 26 -157 26q-90 0 -138 -54t-59 -144q-11 -91 24 -144.5t125 -53.5q84 0 163 25l-8 -60q-65 -27 -162 -27q-22 0 -32 1l-53 -116h-75l65 128q-141 49 -117 247q15 122 84 191t192 69l53 115h75z" />
    <glyph glyph-name="sterling" unicode="&#xa3;" horiz-adv-x="543" 
d="M191 453l-12 -98h249l-7 -61h-249l-29 -233h339l-7 -61h-484l7 61h75l29 233h-75l7 61h75l12 97q22 183 238 183q106 0 170 -29l-7 -60q-79 27 -170 27q-78 0 -115.5 -28t-45.5 -92z" />
    <glyph glyph-name="currency" unicode="&#xa4;" horiz-adv-x="640" 
d="M320 114q48 0 80.5 7.5t61 27.5t42.5 60.5t14 102.5t-14 102.5t-42.5 60.5t-61 27.5t-80.5 7.5t-80.5 -7.5t-61 -27.5t-42.5 -60.5t-14 -102.5t14 -102.5t42.5 -60.5t61 -27.5t80.5 -7.5zM598 33l-51 -43l-76 90q-59 -28 -151 -28q-94 0 -151 28l-76 -90l-51 43l73 86
q-60 63 -60 193t59 192l-72 87l51 43l75 -90q59 28 152 28q94 0 151 -28l76 90l51 -43l-73 -87q60 -63 60 -192q0 -128 -60 -193z" />
    <glyph glyph-name="yen" unicode="&#xa5;" horiz-adv-x="561" 
d="M173 395l-107 230h84l137 -327l216 327h84l-163 -230h105l-7 -61h-141l-55 -76h186l-7 -61h-196l-24 -197h-68l24 197h-197l7 61h186l-35 76h-141l7 61h105z" />
    <glyph glyph-name="brokenbar" unicode="&#xa6;" horiz-adv-x="245" 
d="M102 -206h-71l59 478h71zM228 815l-59 -477h-71l59 477h71z" />
    <glyph glyph-name="section" unicode="&#xa7;" horiz-adv-x="619" 
d="M137 555q4 37 19 69.5t45 65t85 51.5t130 19q119 0 191 -35l-9 -67q-86 39 -191 39q-103 0 -148 -38t-53 -105q-5 -36 3.5 -59.5t36 -38t52 -21t76.5 -16.5q132 -24 173.5 -62t29.5 -130q-14 -116 -113 -171q28 -41 19 -111q-5 -37 -19.5 -69.5t-44.5 -65t-85 -51.5
t-130 -19q-119 0 -191 35l8 67q87 -39 191 -39q103 0 148.5 38t53.5 105q4 29 -3 50.5t-18 34t-38 23t-47.5 15t-62.5 12.5q-132 23 -173 61.5t-30 130.5q14 115 113 171q-27 37 -18 111zM509 228q5 36 -1 58.5t-27 35.5t-44 19t-69 15q-8 1 -12 2q-107 18 -149 43
q-85 -34 -97 -129q-5 -36 1.5 -58.5t26.5 -35.5t45 -19.5t67 -14.5q4 0 7 -0.5t6 -1.5q109 -20 149 -43q87 34 97 129z" />
    <glyph glyph-name="dieresis" unicode="&#xa8;" 
d="M189 650q0 21 14.5 35.5t35.5 14.5t35.5 -14.5t14.5 -35.5t-14.5 -35.5t-35.5 -14.5t-35.5 14.5t-14.5 35.5zM379 650q0 21 14.5 35.5t35.5 14.5t35.5 -14.5t14.5 -35.5t-14.5 -35.5t-35.5 -14.5t-35.5 14.5t-14.5 35.5z" />
    <glyph glyph-name="copyright" unicode="&#xa9;" horiz-adv-x="774" 
d="M363 52q121 0 199 68.5t94 192.5q15 123 -46.5 191.5t-182.5 68.5t-199.5 -68.5t-93.5 -191.5q-16 -124 46 -192.5t183 -68.5zM355 -10q-143 0 -226.5 86.5t-65.5 236.5t123 236t248 86t227 -86t66 -236t-123.5 -236.5t-248.5 -86.5zM204 313q13 101 74 149.5t142 48.5
q76 0 126 -23l-7 -60q-25 9 -35 12t-34 6t-58 3q-54 0 -92 -33t-46 -103t21 -103.5t83 -33.5q34 0 59 3t35.5 6t38.5 12l-8 -60q-56 -23 -132 -23q-82 0 -131 49t-36 150z" />
    <glyph glyph-name="ordfeminine" unicode="&#xaa;" horiz-adv-x="411" 
d="M74 563q23 198 198 198q61 0 104 -34l10 24h42l-46 -376h-42l-5 24q-50 -34 -112 -34q-174 0 -149 198zM355 679q-37 26 -86 26q-115 0 -132 -142q-19 -142 97 -142q49 0 92 26z" />
    <glyph glyph-name="guillemotleft" unicode="&#xab;" horiz-adv-x="465" 
d="M36 217l8 66l207 140l-8 -66l-139 -107l113 -107l-8 -67zM226 217l8 66l207 140l-8 -66l-139 -107l113 -107l-8 -67z" />
    <glyph glyph-name="logicalnot" unicode="&#xac;" horiz-adv-x="646" 
d="M506 214h-67l27 222h-363l8 64h430z" />
    <glyph glyph-name="uni00AD" unicode="&#xad;" horiz-adv-x="310" 
d="M291 338l-8 -66h-250l8 66h250z" />
    <glyph glyph-name="registered" unicode="&#xae;" horiz-adv-x="774" 
d="M363 52q121 0 199 68.5t94 192.5q15 123 -46.5 191.5t-182.5 68.5t-199.5 -68.5t-93.5 -191.5q-16 -124 46 -192.5t183 -68.5zM355 -10q-143 0 -226.5 86.5t-65.5 236.5t123 236t248 86t227 -86t66 -236t-123.5 -236.5t-248.5 -86.5zM463 124l-53 134h-94l-16 -134h-66
l46 376h160q125 0 110 -121q-4 -34 -22.5 -64.5t-48.5 -44.5l62 -146h-78zM479 379q7 60 -45 60h-96l-14 -121h96q52 0 59 61z" />
    <glyph glyph-name="macron" unicode="&#xaf;" 
d="M194 620l7 60h274l-7 -60h-274z" />
    <glyph glyph-name="degree" unicode="&#xb0;" horiz-adv-x="336" 
d="M198 490q-59 0 -95 31.5t-27 103.5q9 73 52.5 104t102.5 31t94.5 -31t26.5 -104q-9 -72 -52 -103.5t-102 -31.5zM224 705q-79 0 -89 -80t69 -80t89 80t-69 80z" />
    <glyph glyph-name="plusminus" unicode="&#xb1;" horiz-adv-x="490" 
d="M273 207h-66l20 167h-167l9 66h167l20 167h66l-20 -167h167l-9 -66h-167zM424 75h-400l8 66h400z" />
    <glyph glyph-name="uni00B2" unicode="&#xb2;" horiz-adv-x="416" 
d="M387 341h-341l7 50q185 113 233.5 152t54.5 85q4 33 -18.5 51t-76.5 18q-58 0 -138 -22l8 61q63 24 137 24q89 0 124.5 -36.5t28.5 -96.5q-3 -29 -21.5 -56t-53 -54t-72 -50.5t-94.5 -57.5q-3 -2 -5 -3t-4.5 -2.5t-4.5 -2.5h244z" />
    <glyph glyph-name="uni00B3" unicode="&#xb3;" horiz-adv-x="430" 
d="M217 331q-107 0 -159 22l7 62q76 -23 161 -23q119 0 127 68q5 37 -12.5 51.5t-69.5 14.5h-117l7 58h116q43 0 61 14t21 45q4 26 -20.5 40.5t-77.5 14.5q-73 0 -156 -20l7 61q55 21 156 21q171 0 156 -117q-3 -30 -18 -51t-34 -29q25 -10 39.5 -36.5t9.5 -67.5
q-7 -59 -59 -93.5t-145 -34.5z" />
    <glyph glyph-name="acute" unicode="&#xb4;" 
d="M347 550h-50l75 200h80z" />
    <glyph glyph-name="mu" unicode="&#xb5;" horiz-adv-x="475" 
d="M161 500l-45 -363q-6 -46 17.5 -65.5t72.5 -19.5q78 0 139 32l51 416h70l-61 -500h-39l-10 42q-77 -52 -158 -52q-61 0 -97 19l-32 -259h-70l92 750h70z" />
    <glyph glyph-name="paragraph" unicode="&#xb6;" horiz-adv-x="590" 
d="M417 0l36 300h-77l-36 -300h-68l36 300h-16q-68 0 -115.5 18.5t-71.5 50.5t-33 71t-3 85q12 98 80 161.5t199 63.5h229l-92 -750h-68zM143 525q-20 -162 148 -162h25l40 324h-25q-168 0 -188 -162zM461 363l40 324h-77l-40 -324h77z" />
    <glyph glyph-name="periodcentered" unicode="&#xb7;" horiz-adv-x="160" 
d="M52 305q0 21 14.5 35.5t35.5 14.5t35.5 -14.5t14.5 -35.5t-14.5 -35.5t-35.5 -14.5t-35.5 14.5t-14.5 35.5z" />
    <glyph glyph-name="cedilla" unicode="&#xb8;" 
d="M235 0h40l-3 -64q91 -24 83 -97q-5 -41 -37.5 -65t-84.5 -24q-62 0 -92 18l6 46q34 -13 75 -13q67 0 71 36q4 30 -18.5 44t-62.5 19z" />
    <glyph glyph-name="uni00B9" unicode="&#xb9;" horiz-adv-x="290" 
d="M245 760h31l-52 -419h-68l43 348l-108 -3l4 32z" />
    <glyph glyph-name="ordmasculine" unicode="&#xba;" horiz-adv-x="419" 
d="M74 563q11 98 58.5 147.5t136.5 49.5q177 0 154 -197q-25 -198 -203 -198q-89 0 -123.5 50t-22.5 148zM136 563q-10 -74 12 -107t79 -33q118 0 135 140q9 72 -16 105.5t-84 33.5q-57 0 -87 -32.5t-39 -106.5z" />
    <glyph glyph-name="guillemotright" unicode="&#xbb;" horiz-adv-x="465" 
d="M429 282l-8 -66l-207 -140l8 66l139 107l-113 107l8 67zM239 282l-8 -66l-207 -140l8 66l139 107l-113 107l8 67z" />
    <glyph glyph-name="uni00BC" unicode="&#xbc;" horiz-adv-x="933" 
d="M245 760h31l-52 -419h-68l43 348l-108 -3l4 32zM167 0h-77l622 750h77zM792 118l-14 -118h-65l14 118h-233l5 41l282 260h48l-30 -240h85l-7 -61h-85zM599 179h135l18 139z" />
    <glyph glyph-name="uni00BD" unicode="&#xbd;" horiz-adv-x="946" 
d="M245 760h31l-52 -419h-68l43 348l-108 -3l4 32zM167 0h-77l622 750h77zM886 0h-341l6 50q185 113 233.5 152t54.5 85q4 33 -18.5 51t-76.5 18q-59 0 -137 -22l7 61q65 24 137 24q89 0 125 -36.5t29 -96.5q-3 -20 -11.5 -38.5t-30 -39.5t-35.5 -33.5t-53.5 -37.5t-56 -35
t-69.5 -42h244z" />
    <glyph glyph-name="uni00BE" unicode="&#xbe;" horiz-adv-x="1063" 
d="M217 331q-107 0 -159 22l7 62q76 -23 161 -23q119 0 127 68q5 37 -12.5 51.5t-69.5 14.5h-117l7 58h116q43 0 61 14t21 45q4 26 -20.5 40.5t-77.5 14.5q-73 0 -156 -20l7 61q55 21 156 21q171 0 156 -117q-3 -30 -18 -51t-34 -29q25 -10 39.5 -36.5t9.5 -67.5
q-7 -59 -59 -93.5t-145 -34.5zM297 0h-77l622 750h77zM922 118l-14 -118h-65l14 118h-233l5 41l282 260h48l-30 -240h85l-7 -61h-85zM729 179h135l18 139z" />
    <glyph glyph-name="questiondown" unicode="&#xbf;" horiz-adv-x="470" 
d="M235 -198q91 0 158 23l-7 -60q-26 -10 -73.5 -17.5t-83.5 -7.5q-75 0 -125 16.5t-70 44t-27.5 63.5t0.5 74q5 46 21 78.5t47 56.5t60 38.5t81 34.5q37 14 56.5 36t25 42.5t10.5 65.5h37q4 -29 1 -58.5t-12.5 -54.5t-37 -48t-72.5 -39q-36 -13 -52.5 -20.5t-42 -24.5
t-38 -43t-17.5 -63q-8 -69 24.5 -103t136.5 -34zM278 460q0 21 14.5 35.5t35.5 14.5t35.5 -14.5t14.5 -35.5t-14.5 -35.5t-35.5 -14.5t-35.5 14.5t-14.5 35.5z" />
    <glyph glyph-name="Agrave" unicode="&#xc0;" horiz-adv-x="630" 
d="M72 0h-77l358 760h50l172 -760h-77l-44 210h-288zM364 646l-171 -377h249zM408 800h-50l-78 100h90z" />
    <glyph glyph-name="Aacute" unicode="&#xc1;" horiz-adv-x="630" 
d="M72 0h-77l358 760h50l172 -760h-77l-44 210h-288zM364 646l-171 -377h249zM408 800h-50l62 100h90z" />
    <glyph glyph-name="Acircumflex" unicode="&#xc2;" horiz-adv-x="630" 
d="M72 0h-77l358 760h50l172 -760h-77l-44 210h-288zM364 646l-171 -377h249zM538 800h-56l-92 56l-106 -56h-56l127 100h80z" />
    <glyph glyph-name="Atilde" unicode="&#xc3;" horiz-adv-x="630" 
d="M72 0h-77l358 760h50l172 -760h-77l-44 210h-288zM364 646l-171 -377h249zM465 849q50 0 55 51h56q-3 -52 -36 -81t-87 -29q-31 0 -55 15t-44.5 30.5t-40.5 15.5q-50 0 -55 -51h-56q2 52 35 81t87 29q31 0 55.5 -15t45 -30.5t40.5 -15.5z" />
    <glyph glyph-name="Adieresis" unicode="&#xc4;" horiz-adv-x="630" 
d="M72 0h-77l358 760h50l172 -760h-77l-44 210h-288zM364 646l-171 -377h249zM244 850q0 21 14.5 35.5t35.5 14.5t35.5 -14.5t14.5 -35.5t-14.5 -35.5t-35.5 -14.5t-35.5 14.5t-14.5 35.5zM434 850q0 21 14.5 35.5t35.5 14.5t35.5 -14.5t14.5 -35.5t-14.5 -35.5t-35.5 -14.5
t-35.5 14.5t-14.5 35.5z" />
    <glyph glyph-name="Aring" unicode="&#xc5;" horiz-adv-x="630" 
d="M72 0h-77l358 760h50l172 -760h-77l-44 210h-288zM364 646l-171 -377h249zM398 921q94 0 85 -71t-103 -71t-85 71t103 71zM386 828q44 0 47 22q2 11 -8.5 16.5t-32.5 5.5q-44 0 -47 -22q-2 -11 8.5 -16.5t32.5 -5.5z" />
    <glyph glyph-name="AE" unicode="&#xc6;" horiz-adv-x="975" 
d="M529 687l10 -265h362l-7 -63h-351l11 -296h338l-7 -63h-396l-10 210h-287l-126 -210h-76l468 750h519l-8 -63h-440zM462 655l-233 -386h249z" />
    <glyph glyph-name="Ccedilla" unicode="&#xc7;" horiz-adv-x="610" 
d="M76 375q10 84 33.5 151t63 121t102 83.5t143.5 29.5q115 0 191 -35l-9 -67q-91 39 -190 39q-116 0 -180 -87.5t-82 -234.5q-12 -95 0 -164.5t58 -113.5t125 -44q98 0 200 39l-8 -67q-76 -31 -179 -34l-2 -55q91 -24 83 -97q-5 -41 -37.5 -65t-84.5 -24q-62 0 -92 18l6 46
q34 -13 75 -13q67 0 71 36q4 30 -18.5 44t-62.5 19l20 91q-75 4 -126 35.5t-74 83t-30.5 120t4.5 145.5z" />
    <glyph glyph-name="Egrave" unicode="&#xc8;" 
d="M496 422l-7 -63h-332l-37 -296h367l-7 -63h-435l92 750h435l-8 -63h-367l-33 -265h332zM393 800h-50l-78 100h90z" />
    <glyph glyph-name="Eacute" unicode="&#xc9;" 
d="M496 422l-7 -63h-332l-37 -296h367l-7 -63h-435l92 750h435l-8 -63h-367l-33 -265h332zM393 800h-50l62 100h90z" />
    <glyph glyph-name="Ecircumflex" unicode="&#xca;" 
d="M496 422l-7 -63h-332l-37 -296h367l-7 -63h-435l92 750h435l-8 -63h-367l-33 -265h332zM523 800h-56l-92 56l-106 -56h-56l127 100h80z" />
    <glyph glyph-name="Edieresis" unicode="&#xcb;" 
d="M496 422l-7 -63h-332l-37 -296h367l-7 -63h-435l92 750h435l-8 -63h-367l-33 -265h332zM229 850q0 21 14.5 35.5t35.5 14.5t35.5 -14.5t14.5 -35.5t-14.5 -35.5t-35.5 -14.5t-35.5 14.5t-14.5 35.5zM419 850q0 21 14.5 35.5t35.5 14.5t35.5 -14.5t14.5 -35.5t-14.5 -35.5
t-35.5 -14.5t-35.5 14.5t-14.5 35.5z" />
    <glyph glyph-name="Igrave" unicode="&#xcc;" horiz-adv-x="260" 
d="M135 0h-70l92 750h70zM223 800h-50l-78 100h90z" />
    <glyph glyph-name="Iacute" unicode="&#xcd;" horiz-adv-x="260" 
d="M135 0h-70l92 750h70zM223 800h-50l62 100h90z" />
    <glyph glyph-name="Icircumflex" unicode="&#xce;" horiz-adv-x="260" 
d="M135 0h-70l92 750h70zM353 800h-56l-92 56l-106 -56h-56l127 100h80z" />
    <glyph glyph-name="Idieresis" unicode="&#xcf;" horiz-adv-x="260" 
d="M135 0h-70l92 750h70zM79 850q0 21 14.5 35.5t35.5 14.5t35.5 -14.5t14.5 -35.5t-14.5 -35.5t-35.5 -14.5t-35.5 14.5t-14.5 35.5zM229 850q0 21 14.5 35.5t35.5 14.5t35.5 -14.5t14.5 -35.5t-14.5 -35.5t-35.5 -14.5t-35.5 14.5t-14.5 35.5z" />
    <glyph glyph-name="Eth" unicode="&#xd0;" horiz-adv-x="685" 
d="M29 362l6 53h90l42 335h204q89 0 149 -28.5t87.5 -79t36.5 -119t-3 -148.5q-11 -84 -34 -149t-64.5 -117.5t-108 -80.5t-155.5 -28h-204l44 362h-90zM227 687l-34 -272h183l-6 -53h-183l-37 -299h140q239 0 279 312q38 312 -202 312h-140z" />
    <glyph glyph-name="Ntilde" unicode="&#xd1;" horiz-adv-x="670" 
d="M565 0h-51l-328 611l-73 -611h-68l92 750h51l328 -611l73 611h68zM485 849q50 0 55 51h56q-3 -52 -36 -81t-87 -29q-31 0 -55 15t-44.5 30.5t-40.5 15.5q-50 0 -55 -51h-56q2 52 35 81t87 29q31 0 55.5 -15t45 -30.5t40.5 -15.5z" />
    <glyph glyph-name="Ograve" unicode="&#xd2;" horiz-adv-x="680" 
d="M316 53q53 0 93 17t66 44t44 70.5t27.5 87t17.5 103.5q11 67 8.5 126t-17 102.5t-55 68.5t-105.5 25q-53 0 -93 -17t-65.5 -44t-44 -70.5t-28 -87t-16.5 -103.5q-10 -92 -7 -163.5t46 -115t129 -43.5zM308 -10q-71 0 -120.5 22t-74.5 56.5t-36 87t-10 103t9 116.5
t19.5 116t35.5 103t58 87.5t88.5 56.5t125.5 22q51 0 91 -11.5t66.5 -30.5t44.5 -48t26.5 -60.5t11.5 -72.5t1 -78.5t-8 -83.5q-8 -66 -20 -116t-36 -103t-58 -87.5t-88.5 -56.5t-125.5 -22zM433 800h-50l-78 100h90z" />
    <glyph glyph-name="Oacute" unicode="&#xd3;" horiz-adv-x="680" 
d="M316 53q53 0 93 17t66 44t44 70.5t27.5 87t17.5 103.5q11 67 8.5 126t-17 102.5t-55 68.5t-105.5 25q-53 0 -93 -17t-65.5 -44t-44 -70.5t-28 -87t-16.5 -103.5q-10 -92 -7 -163.5t46 -115t129 -43.5zM308 -10q-71 0 -120.5 22t-74.5 56.5t-36 87t-10 103t9 116.5
t19.5 116t35.5 103t58 87.5t88.5 56.5t125.5 22q51 0 91 -11.5t66.5 -30.5t44.5 -48t26.5 -60.5t11.5 -72.5t1 -78.5t-8 -83.5q-8 -66 -20 -116t-36 -103t-58 -87.5t-88.5 -56.5t-125.5 -22zM433 800h-50l62 100h90z" />
    <glyph glyph-name="Ocircumflex" unicode="&#xd4;" horiz-adv-x="680" 
d="M316 53q53 0 93 17t66 44t44 70.5t27.5 87t17.5 103.5q11 67 8.5 126t-17 102.5t-55 68.5t-105.5 25q-53 0 -93 -17t-65.5 -44t-44 -70.5t-28 -87t-16.5 -103.5q-10 -92 -7 -163.5t46 -115t129 -43.5zM308 -10q-71 0 -120.5 22t-74.5 56.5t-36 87t-10 103t9 116.5
t19.5 116t35.5 103t58 87.5t88.5 56.5t125.5 22q51 0 91 -11.5t66.5 -30.5t44.5 -48t26.5 -60.5t11.5 -72.5t1 -78.5t-8 -83.5q-8 -66 -20 -116t-36 -103t-58 -87.5t-88.5 -56.5t-125.5 -22zM563 800h-56l-92 56l-106 -56h-56l127 100h80z" />
    <glyph glyph-name="Otilde" unicode="&#xd5;" horiz-adv-x="680" 
d="M316 53q53 0 93 17t66 44t44 70.5t27.5 87t17.5 103.5q11 67 8.5 126t-17 102.5t-55 68.5t-105.5 25q-53 0 -93 -17t-65.5 -44t-44 -70.5t-28 -87t-16.5 -103.5q-10 -92 -7 -163.5t46 -115t129 -43.5zM308 -10q-71 0 -120.5 22t-74.5 56.5t-36 87t-10 103t9 116.5
t19.5 116t35.5 103t58 87.5t88.5 56.5t125.5 22q51 0 91 -11.5t66.5 -30.5t44.5 -48t26.5 -60.5t11.5 -72.5t1 -78.5t-8 -83.5q-8 -66 -20 -116t-36 -103t-58 -87.5t-88.5 -56.5t-125.5 -22zM490 849q50 0 55 51h56q-3 -52 -36 -81t-87 -29q-31 0 -55 15t-44.5 30.5
t-40.5 15.5q-50 0 -55 -51h-56q2 52 35 81t87 29q31 0 55.5 -15t45 -30.5t40.5 -15.5z" />
    <glyph glyph-name="Odieresis" unicode="&#xd6;" horiz-adv-x="680" 
d="M316 53q53 0 93 17t66 44t44 70.5t27.5 87t17.5 103.5q11 67 8.5 126t-17 102.5t-55 68.5t-105.5 25q-53 0 -93 -17t-65.5 -44t-44 -70.5t-28 -87t-16.5 -103.5q-10 -92 -7 -163.5t46 -115t129 -43.5zM308 -10q-71 0 -120.5 22t-74.5 56.5t-36 87t-10 103t9 116.5
t19.5 116t35.5 103t58 87.5t88.5 56.5t125.5 22q51 0 91 -11.5t66.5 -30.5t44.5 -48t26.5 -60.5t11.5 -72.5t1 -78.5t-8 -83.5q-8 -66 -20 -116t-36 -103t-58 -87.5t-88.5 -56.5t-125.5 -22zM269 850q0 21 14.5 35.5t35.5 14.5t35.5 -14.5t14.5 -35.5t-14.5 -35.5
t-35.5 -14.5t-35.5 14.5t-14.5 35.5zM459 850q0 21 14.5 35.5t35.5 14.5t35.5 -14.5t14.5 -35.5t-14.5 -35.5t-35.5 -14.5t-35.5 14.5t-14.5 35.5z" />
    <glyph glyph-name="multiply" unicode="&#xd7;" horiz-adv-x="490" 
d="M41 191l168 150l-131 150l53 47l131 -150l169 150l41 -47l-169 -150l132 -150l-53 -47l-131 150l-169 -150z" />
    <glyph glyph-name="Oslash" unicode="&#xd8;" horiz-adv-x="660" 
d="M308 -10q-109 0 -167 49l-28 -39h-63l57 78q-57 88 -31 297q8 66 19.5 116t35.5 103t58 87.5t88.5 56.5t125.5 22q106 0 167 -50l29 40h63l-58 -79q56 -87 32 -296q-8 -66 -20 -116t-36 -103t-58 -87.5t-88.5 -56.5t-125.5 -22zM316 53q53 0 93 17t66 44t44 70.5t27.5 87
t17.5 103.5q19 158 -9 229l-370 -506q42 -45 131 -45zM148 375q-21 -159 7 -230l371 506q-43 46 -131 46q-53 0 -93 -17t-65.5 -44t-44 -70.5t-28 -87t-16.5 -103.5z" />
    <glyph glyph-name="Ugrave" unicode="&#xd9;" horiz-adv-x="670" 
d="M311 53q197 0 221 193l62 504h68l-64 -515q-7 -61 -32 -107t-56.5 -71.5t-71.5 -41.5t-71.5 -20.5t-63.5 -4.5t-62 4.5t-66.5 20.5t-61.5 41.5t-38.5 71.5t-6.5 107l64 515h68l-62 -504q-6 -51 4 -89t27.5 -57t46 -30.5t49.5 -14t46 -2.5zM428 800h-50l-78 100h90z" />
    <glyph glyph-name="Uacute" unicode="&#xda;" horiz-adv-x="670" 
d="M311 53q197 0 221 193l62 504h68l-64 -515q-7 -61 -32 -107t-56.5 -71.5t-71.5 -41.5t-71.5 -20.5t-63.5 -4.5t-62 4.5t-66.5 20.5t-61.5 41.5t-38.5 71.5t-6.5 107l64 515h68l-62 -504q-6 -51 4 -89t27.5 -57t46 -30.5t49.5 -14t46 -2.5zM428 800h-50l62 100h90z" />
    <glyph glyph-name="Ucircumflex" unicode="&#xdb;" horiz-adv-x="670" 
d="M311 53q197 0 221 193l62 504h68l-64 -515q-7 -61 -32 -107t-56.5 -71.5t-71.5 -41.5t-71.5 -20.5t-63.5 -4.5t-62 4.5t-66.5 20.5t-61.5 41.5t-38.5 71.5t-6.5 107l64 515h68l-62 -504q-6 -51 4 -89t27.5 -57t46 -30.5t49.5 -14t46 -2.5zM558 800h-56l-92 56l-106 -56
h-56l127 100h80z" />
    <glyph glyph-name="Udieresis" unicode="&#xdc;" horiz-adv-x="670" 
d="M311 53q197 0 221 193l62 504h68l-64 -515q-7 -61 -32 -107t-56.5 -71.5t-71.5 -41.5t-71.5 -20.5t-63.5 -4.5t-62 4.5t-66.5 20.5t-61.5 41.5t-38.5 71.5t-6.5 107l64 515h68l-62 -504q-6 -51 4 -89t27.5 -57t46 -30.5t49.5 -14t46 -2.5zM264 850q0 21 14.5 35.5
t35.5 14.5t35.5 -14.5t14.5 -35.5t-14.5 -35.5t-35.5 -14.5t-35.5 14.5t-14.5 35.5zM454 850q0 21 14.5 35.5t35.5 14.5t35.5 -14.5t14.5 -35.5t-14.5 -35.5t-35.5 -14.5t-35.5 14.5t-14.5 35.5z" />
    <glyph glyph-name="Yacute" unicode="&#xdd;" horiz-adv-x="670" 
d="M702 750l-325 -440l-38 -310h-68l38 310l-217 440h75l182 -385l278 385h75zM428 800h-50l62 100h90z" />
    <glyph glyph-name="Thorn" unicode="&#xde;" 
d="M131 150l-18 -150h-68l92 750h68l-19 -150h161q68 0 115.5 -18.5t72 -50.5t33.5 -71t3 -85q-13 -98 -80.5 -161.5t-198.5 -63.5h-161zM178 537l-39 -324h170q168 0 188 162q18 162 -149 162h-170z" />
    <glyph glyph-name="germandbls" unicode="&#xdf;" horiz-adv-x="538" 
d="M314 -10q-75 0 -118 27l7 60q68 -25 119 -25q100 0 111 90q5 37 -11.5 55.5t-70.5 35.5q-73 23 -97.5 54t-17.5 85q5 39 24 66t44 43.5t50 31.5t44 39t23 58q6 46 -22.5 67t-79.5 21q-113 0 -124 -88l-105 -860h-67l105 860q9 73 59.5 111.5t139.5 38.5q88 0 127.5 -38.5
t30.5 -111.5q-5 -43 -25 -74t-44.5 -48t-49 -32t-43 -35.5t-22.5 -48.5q-4 -32 11 -48t62 -32q77 -26 105 -57t21 -92q-8 -65 -54 -109t-132 -44z" />
    <glyph glyph-name="agrave" unicode="&#xe0;" horiz-adv-x="535" 
d="M501 500l-61 -500h-39l-10 41q-88 -51 -163 -51q-112 0 -149.5 69.5t-23.5 190.5q15 121 70 190.5t167 69.5q86 0 150 -52l20 42h39zM236 52q80 0 144 32l41 332q-56 32 -136 32q-43 0 -73.5 -16t-47.5 -46.5t-25.5 -61.5t-13.5 -74q-7 -37 -5 -72.5t11 -63.5t35.5 -45
t69.5 -17zM327 550h-50l-55 200h80z" />
    <glyph glyph-name="aacute" unicode="&#xe1;" horiz-adv-x="535" 
d="M501 500l-61 -500h-39l-10 41q-88 -51 -163 -51q-112 0 -149.5 69.5t-23.5 190.5q15 121 70 190.5t167 69.5q86 0 150 -52l20 42h39zM236 52q80 0 144 32l41 332q-56 32 -136 32q-43 0 -73.5 -16t-47.5 -46.5t-25.5 -61.5t-13.5 -74q-7 -37 -5 -72.5t11 -63.5t35.5 -45
t69.5 -17zM327 550h-50l75 200h80z" />
    <glyph glyph-name="acircumflex" unicode="&#xe2;" horiz-adv-x="535" 
d="M501 500l-61 -500h-39l-10 41q-88 -51 -163 -51q-112 0 -149.5 69.5t-23.5 190.5q15 121 70 190.5t167 69.5q86 0 150 -52l20 42h39zM236 52q80 0 144 32l41 332q-56 32 -136 32q-43 0 -73.5 -16t-47.5 -46.5t-25.5 -61.5t-13.5 -74q-7 -37 -5 -72.5t11 -63.5t35.5 -45
t69.5 -17zM487 550h-55l-113 141l-147 -141h-55l170 200h80z" />
    <glyph glyph-name="atilde" unicode="&#xe3;" horiz-adv-x="535" 
d="M501 500l-61 -500h-39l-10 41q-88 -51 -163 -51q-112 0 -149.5 69.5t-23.5 190.5q15 121 70 190.5t167 69.5q86 0 150 -52l20 42h39zM236 52q80 0 144 32l41 332q-56 32 -136 32q-43 0 -73.5 -16t-47.5 -46.5t-25.5 -61.5t-13.5 -74q-7 -37 -5 -72.5t11 -63.5t35.5 -45
t69.5 -17zM390 644q21 0 33.5 9.5t16 18.5t5.5 23h56q-3 -52 -36 -81t-87 -29q-28 0 -48.5 11t-31 24.5t-26 24.5t-33.5 11q-50 0 -55 -51h-56q2 52 35 81t87 29q28 0 49 -11t31.5 -24.5t26 -24.5t33.5 -11z" />
    <glyph glyph-name="adieresis" unicode="&#xe4;" horiz-adv-x="535" 
d="M501 500l-61 -500h-39l-10 41q-88 -51 -163 -51q-112 0 -149.5 69.5t-23.5 190.5q15 121 70 190.5t167 69.5q86 0 150 -52l20 42h39zM236 52q80 0 144 32l41 332q-56 32 -136 32q-43 0 -73.5 -16t-47.5 -46.5t-25.5 -61.5t-13.5 -74q-7 -37 -5 -72.5t11 -63.5t35.5 -45
t69.5 -17zM169 650q0 21 14.5 35.5t35.5 14.5t35.5 -14.5t14.5 -35.5t-14.5 -35.5t-35.5 -14.5t-35.5 14.5t-14.5 35.5zM359 650q0 21 14.5 35.5t35.5 14.5t35.5 -14.5t14.5 -35.5t-14.5 -35.5t-35.5 -14.5t-35.5 14.5t-14.5 35.5z" />
    <glyph glyph-name="aring" unicode="&#xe5;" horiz-adv-x="535" 
d="M501 500l-61 -500h-39l-10 41q-88 -51 -163 -51q-112 0 -149.5 69.5t-23.5 190.5q15 121 70 190.5t167 69.5q86 0 150 -52l20 42h39zM236 52q80 0 144 32l41 332q-56 32 -136 32q-43 0 -73.5 -16t-47.5 -46.5t-25.5 -61.5t-13.5 -74q-7 -37 -5 -72.5t11 -63.5t35.5 -45
t69.5 -17zM321 702q-54 0 -61 -52q-6 -52 48 -52t60 52q7 52 -47 52zM302 549q-47 0 -72.5 25.5t-19.5 75.5q7 50 38.5 75.5t78.5 25.5t72.5 -25.5t18.5 -75.5q-6 -50 -37.5 -75.5t-78.5 -25.5z" />
    <glyph glyph-name="ae" unicode="&#xe6;" horiz-adv-x="835" 
d="M377 224h-151q-60 0 -86.5 -21.5t-31.5 -61.5q-12 -89 109 -89q87 0 146 45l19 15q-10 46 -5 111v1zM453 275h140q69 0 97.5 22.5t33.5 64.5q5 41 -17.5 63.5t-91.5 22.5q-79 0 -114.5 -46.5t-47.5 -126.5zM558 -10q-112 0 -154 68l-34 -24q-65 -44 -163 -44
q-96 0 -137.5 41.5t-32.5 109.5q8 65 53 102.5t148 37.5h146l8 62q7 56 -20 80.5t-98 24.5q-83 0 -162 -25l8 60q65 27 161 27q134 0 169 -69q59 69 172 69q97 0 136.5 -43.5t31.5 -104.5t-57 -102.5t-147 -41.5h-140q-3 -37 0.5 -63.5t15 -51.5t37.5 -38t67 -13
q100 0 168 28l-7 -60q-71 -30 -169 -30z" />
    <glyph glyph-name="ccedilla" unicode="&#xe7;" horiz-adv-x="460" 
d="M55 250q7 58 22 102t42.5 81.5t72.5 57t106 19.5q91 0 146 -25l-7 -60q-67 23 -147 23q-45 0 -76.5 -16t-49 -47t-26 -61.5t-13.5 -73.5q-7 -37 -5 -72.5t11 -63.5t37 -45t73 -17q80 0 153 23l-8 -60q-59 -23 -141 -25l-2 -54q91 -24 83 -97q-5 -41 -37.5 -65t-84.5 -24
q-62 0 -92 18l6 46q34 -13 75 -13q67 0 71 36q4 30 -18.5 44t-62.5 19l21 92q-99 9 -130.5 77t-18.5 181z" />
    <glyph glyph-name="egrave" unicode="&#xe8;" horiz-adv-x="510" 
d="M327 550h-50l-55 200h80zM128 275h140q69 0 97.5 22.5t33.5 64.5q5 41 -17.5 63.5t-91.5 22.5q-79 0 -114.5 -46.5t-47.5 -126.5zM261 218h-140q-3 -37 0.5 -63.5t15 -51.5t37.5 -38t67 -13q100 0 168 28l-7 -60q-71 -30 -169 -30q-61 0 -101.5 20.5t-57.5 55.5
t-22.5 82.5t3.5 101.5q7 58 22 102t42 81.5t72 57t106 19.5q97 0 136.5 -43.5t31.5 -104.5t-57 -102.5t-147 -41.5z" />
    <glyph glyph-name="eacute" unicode="&#xe9;" horiz-adv-x="510" 
d="M327 550h-50l75 200h80zM128 275h140q69 0 97.5 22.5t33.5 64.5q5 41 -17.5 63.5t-91.5 22.5q-79 0 -114.5 -46.5t-47.5 -126.5zM261 218h-140q-3 -37 0.5 -63.5t15 -51.5t37.5 -38t67 -13q100 0 168 28l-7 -60q-71 -30 -169 -30q-61 0 -101.5 20.5t-57.5 55.5
t-22.5 82.5t3.5 101.5q7 58 22 102t42 81.5t72 57t106 19.5q97 0 136.5 -43.5t31.5 -104.5t-57 -102.5t-147 -41.5z" />
    <glyph glyph-name="ecircumflex" unicode="&#xea;" horiz-adv-x="510" 
d="M487 550h-55l-113 141l-147 -141h-55l170 200h80zM128 275h140q69 0 97.5 22.5t33.5 64.5q5 41 -17.5 63.5t-91.5 22.5q-79 0 -114.5 -46.5t-47.5 -126.5zM261 218h-140q-3 -37 0.5 -63.5t15 -51.5t37.5 -38t67 -13q100 0 168 28l-7 -60q-71 -30 -169 -30
q-61 0 -101.5 20.5t-57.5 55.5t-22.5 82.5t3.5 101.5q7 58 22 102t42 81.5t72 57t106 19.5q97 0 136.5 -43.5t31.5 -104.5t-57 -102.5t-147 -41.5z" />
    <glyph glyph-name="edieresis" unicode="&#xeb;" horiz-adv-x="510" 
d="M128 275h140q69 0 97.5 22.5t33.5 64.5q5 41 -17.5 63.5t-91.5 22.5q-79 0 -114.5 -46.5t-47.5 -126.5zM261 218h-140q-3 -37 0.5 -63.5t15 -51.5t37.5 -38t67 -13q100 0 168 28l-7 -60q-71 -30 -169 -30q-61 0 -101.5 20.5t-57.5 55.5t-22.5 82.5t3.5 101.5q7 58 22 102
t42 81.5t72 57t106 19.5q97 0 136.5 -43.5t31.5 -104.5t-57 -102.5t-147 -41.5zM169 650q0 21 14.5 35.5t35.5 14.5t35.5 -14.5t14.5 -35.5t-14.5 -35.5t-35.5 -14.5t-35.5 14.5t-14.5 35.5zM359 650q0 21 14.5 35.5t35.5 14.5t35.5 -14.5t14.5 -35.5t-14.5 -35.5
t-35.5 -14.5t-35.5 14.5t-14.5 35.5z" />
    <glyph glyph-name="igrave" unicode="&#xec;" horiz-adv-x="240" 
d="M159 -10q-56 0 -79.5 25.5t-16.5 84.5l49 400h68l-50 -408q-4 -26 4 -35.5t32 -9.5zM177 550h-50l-55 200h80z" />
    <glyph glyph-name="iacute" unicode="&#xed;" horiz-adv-x="240" 
d="M159 -10q-56 0 -79.5 25.5t-16.5 84.5l49 400h68l-50 -408q-4 -26 4 -35.5t32 -9.5zM177 550h-50l75 200h80z" />
    <glyph glyph-name="icircumflex" unicode="&#xee;" horiz-adv-x="240" 
d="M159 -10q-56 0 -79.5 25.5t-16.5 84.5l49 400h68l-50 -408q-4 -26 4 -35.5t32 -9.5zM337 550h-55l-113 141l-147 -141h-54l169 200h80z" />
    <glyph glyph-name="idieresis" unicode="&#xef;" horiz-adv-x="240" 
d="M159 -10q-56 0 -79.5 25.5t-16.5 84.5l49 400h68l-50 -408q-4 -26 4 -35.5t32 -9.5zM39 650q0 21 14.5 35.5t35.5 14.5t35.5 -14.5t14.5 -35.5t-14.5 -35.5t-35.5 -14.5t-35.5 14.5t-14.5 35.5zM189 650q0 21 14.5 35.5t35.5 14.5t35.5 -14.5t14.5 -35.5t-14.5 -35.5
t-35.5 -14.5t-35.5 14.5t-14.5 35.5z" />
    <glyph glyph-name="eth" unicode="&#xf0;" horiz-adv-x="550" 
d="M487 750l-8 -59l-81 -39q122 -153 97 -402q-16 -125 -73.5 -192.5t-178.5 -67.5t-162 67.5t-26 192.5q16 125 73.5 192.5t178.5 67.5q57 0 103 -26q-22 73 -76 137l-163 -78l7 59l119 57q-49 46 -123 91h114q47 -32 74 -60zM425 250q7 42 4.5 78.5t-13 63t-40 41.5
t-76.5 15q-91 0 -127 -50t-48 -148q-6 -58 -3 -102t34.5 -70t94.5 -26q47 0 79.5 14t51 43t28 61.5t15.5 79.5z" />
    <glyph glyph-name="ntilde" unicode="&#xf1;" horiz-adv-x="500" 
d="M340 0l44 363q6 47 -17 66t-72 19q-80 0 -139 -32l-51 -416h-70l61 500h39l10 -42q76 52 157 52q87 0 123.5 -38t28.5 -112l-44 -360h-70zM380 644q21 0 33.5 9.5t16 18.5t5.5 23h56q-3 -52 -36 -81t-87 -29q-28 0 -48.5 11t-31 24.5t-26 24.5t-33.5 11q-50 0 -55 -51
h-56q2 52 35 81t87 29q28 0 49 -11t31.5 -24.5t26 -24.5t33.5 -11z" />
    <glyph glyph-name="ograve" unicode="&#xf2;" horiz-adv-x="530" 
d="M475 250q-16 -128 -69 -194t-173 -66q-82 0 -126.5 33.5t-52 91t0.5 135.5q16 127 69 193.5t173 66.5t157 -66.5t21 -193.5zM405 250q6 58 5.5 102t-29.5 70t-91 26q-39 0 -67 -10.5t-44.5 -26t-27.5 -43.5t-16 -53t-10 -65q-6 -58 -5.5 -102t29.5 -70t92 -26q47 0 78 14
t48 44t24.5 60t13.5 80zM327 550h-50l-55 200h80z" />
    <glyph glyph-name="oacute" unicode="&#xf3;" horiz-adv-x="530" 
d="M475 250q-16 -128 -69 -194t-173 -66q-82 0 -126.5 33.5t-52 91t0.5 135.5q16 127 69 193.5t173 66.5t157 -66.5t21 -193.5zM405 250q6 58 5.5 102t-29.5 70t-91 26q-39 0 -67 -10.5t-44.5 -26t-27.5 -43.5t-16 -53t-10 -65q-6 -58 -5.5 -102t29.5 -70t92 -26q47 0 78 14
t48 44t24.5 60t13.5 80zM327 550h-50l75 200h80z" />
    <glyph glyph-name="ocircumflex" unicode="&#xf4;" horiz-adv-x="530" 
d="M475 250q-16 -128 -69 -194t-173 -66q-82 0 -126.5 33.5t-52 91t0.5 135.5q16 127 69 193.5t173 66.5t157 -66.5t21 -193.5zM405 250q6 58 5.5 102t-29.5 70t-91 26q-39 0 -67 -10.5t-44.5 -26t-27.5 -43.5t-16 -53t-10 -65q-6 -58 -5.5 -102t29.5 -70t92 -26q47 0 78 14
t48 44t24.5 60t13.5 80zM487 550h-55l-113 141l-147 -141h-55l170 200h80z" />
    <glyph glyph-name="otilde" unicode="&#xf5;" horiz-adv-x="530" 
d="M475 250q-16 -128 -69 -194t-173 -66q-82 0 -126.5 33.5t-52 91t0.5 135.5q16 127 69 193.5t173 66.5t157 -66.5t21 -193.5zM405 250q6 58 5.5 102t-29.5 70t-91 26q-39 0 -67 -10.5t-44.5 -26t-27.5 -43.5t-16 -53t-10 -65q-6 -58 -5.5 -102t29.5 -70t92 -26q47 0 78 14
t48 44t24.5 60t13.5 80zM390 644q21 0 33.5 9.5t16 18.5t5.5 23h56q-3 -52 -36 -81t-87 -29q-28 0 -48.5 11t-31 24.5t-26 24.5t-33.5 11q-50 0 -55 -51h-56q2 52 35 81t87 29q28 0 49 -11t31.5 -24.5t26 -24.5t33.5 -11z" />
    <glyph glyph-name="odieresis" unicode="&#xf6;" horiz-adv-x="530" 
d="M475 250q-16 -128 -69 -194t-173 -66q-82 0 -126.5 33.5t-52 91t0.5 135.5q16 127 69 193.5t173 66.5t157 -66.5t21 -193.5zM405 250q6 58 5.5 102t-29.5 70t-91 26q-39 0 -67 -10.5t-44.5 -26t-27.5 -43.5t-16 -53t-10 -65q-6 -58 -5.5 -102t29.5 -70t92 -26q47 0 78 14
t48 44t24.5 60t13.5 80zM169 650q0 21 14.5 35.5t35.5 14.5t35.5 -14.5t14.5 -35.5t-14.5 -35.5t-35.5 -14.5t-35.5 14.5t-14.5 35.5zM359 650q0 21 14.5 35.5t35.5 14.5t35.5 -14.5t14.5 -35.5t-14.5 -35.5t-35.5 -14.5t-35.5 14.5t-14.5 35.5z" />
    <glyph glyph-name="divide" unicode="&#xf7;" horiz-adv-x="490" 
d="M60 374h400l-8 -66h-400zM187 181q0 21 14.5 35.5t35.5 14.5t35.5 -14.5t14.5 -35.5t-14.5 -35.5t-35.5 -14.5t-35.5 14.5t-14.5 35.5zM226 501q0 21 14.5 35.5t35.5 14.5t35.5 -14.5t14.5 -35.5t-14.5 -35.5t-35.5 -14.5t-35.5 14.5t-14.5 35.5z" />
    <glyph glyph-name="oslash" unicode="&#xf8;" horiz-adv-x="530" 
d="M35 0l43 54q-40 61 -23 196q16 127 69 193.5t173 66.5q77 0 121 -30l16 20h62l-44 -55q40 -61 23 -195q-16 -128 -69 -194t-173 -66q-78 0 -121 29l-15 -19h-62zM125 250q-11 -100 0 -136l250 312q-30 22 -85 22q-39 0 -67 -10.5t-44.5 -26t-27.5 -43.5t-16 -53t-10 -65z
M405 250q12 93 -1 135l-250 -312q30 -21 87 -21q47 0 78 14t48 44t24.5 60t13.5 80z" />
    <glyph glyph-name="ugrave" unicode="&#xf9;" horiz-adv-x="500" 
d="M161 500l-45 -363q-6 -46 17.5 -65.5t72.5 -19.5q78 0 139 32l51 416h70l-61 -500h-39l-10 42q-77 -52 -158 -52q-170 0 -151 150l44 360h70zM309 550h-50l-55 200h80z" />
    <glyph glyph-name="uacute" unicode="&#xfa;" horiz-adv-x="500" 
d="M161 500l-45 -363q-6 -46 17.5 -65.5t72.5 -19.5q78 0 139 32l51 416h70l-61 -500h-39l-10 42q-77 -52 -158 -52q-170 0 -151 150l44 360h70zM309 550h-50l75 200h80z" />
    <glyph glyph-name="ucircumflex" unicode="&#xfb;" horiz-adv-x="500" 
d="M161 500l-45 -363q-6 -46 17.5 -65.5t72.5 -19.5q78 0 139 32l51 416h70l-61 -500h-39l-10 42q-77 -52 -158 -52q-170 0 -151 150l44 360h70zM469 550h-55l-113 141l-147 -141h-55l170 200h80z" />
    <glyph glyph-name="udieresis" unicode="&#xfc;" horiz-adv-x="500" 
d="M161 500l-45 -363q-6 -46 17.5 -65.5t72.5 -19.5q78 0 139 32l51 416h70l-61 -500h-39l-10 42q-77 -52 -158 -52q-170 0 -151 150l44 360h70zM151 650q0 21 14.5 35.5t35.5 14.5t35.5 -14.5t14.5 -35.5t-14.5 -35.5t-35.5 -14.5t-35.5 14.5t-14.5 35.5zM341 650
q0 21 14.5 35.5t35.5 14.5t35.5 -14.5t14.5 -35.5t-14.5 -35.5t-35.5 -14.5t-35.5 14.5t-14.5 35.5z" />
    <glyph glyph-name="yacute" unicode="&#xfd;" horiz-adv-x="500" 
d="M167 -261q-88 0 -146 27l7 60q82 -28 147 -28q38 0 66.5 11t43 24.5t25 40.5t13.5 41.5t7 44.5l8 71q-67 -41 -140 -41q-170 0 -151 150l44 360h70l-45 -363q-6 -46 17.5 -65.5t72.5 -19.5q78 0 139 32l51 416h70l-66 -540q-7 -52 -18.5 -87.5t-36 -68.5t-69 -49
t-109.5 -16zM309 550h-50l75 200h80z" />
    <glyph glyph-name="thorn" unicode="&#xfe;" horiz-adv-x="535" 
d="M480 250q-31 -260 -237 -260q-76 0 -135 41l-34 -281h-70l123 1000h70l-35 -281q69 41 145 41q205 0 173 -260zM300 448q-82 0 -144 -32l-41 -332q55 -32 136 -32q43 0 73.5 16t47 47t25 61.5t13.5 73.5q7 37 5 72.5t-10.5 63.5t-35 45t-69.5 17z" />
    <glyph glyph-name="ydieresis" unicode="&#xff;" horiz-adv-x="500" 
d="M167 -261q-88 0 -146 27l7 60q82 -28 147 -28q38 0 66.5 11t43 24.5t25 40.5t13.5 41.5t7 44.5l8 71q-67 -41 -140 -41q-170 0 -151 150l44 360h70l-45 -363q-6 -46 17.5 -65.5t72.5 -19.5q78 0 139 32l51 416h70l-66 -540q-7 -52 -18.5 -87.5t-36 -68.5t-69 -49
t-109.5 -16zM151 650q0 21 14.5 35.5t35.5 14.5t35.5 -14.5t14.5 -35.5t-14.5 -35.5t-35.5 -14.5t-35.5 14.5t-14.5 35.5zM341 650q0 21 14.5 35.5t35.5 14.5t35.5 -14.5t14.5 -35.5t-14.5 -35.5t-35.5 -14.5t-35.5 14.5t-14.5 35.5z" />
    <glyph glyph-name="Amacron" unicode="&#x100;" horiz-adv-x="630" 
d="M72 0h-77l358 760h50l172 -760h-77l-44 210h-288zM364 646l-171 -377h249zM248 820l8 60h274l-8 -60h-274z" />
    <glyph glyph-name="amacron" unicode="&#x101;" horiz-adv-x="535" 
d="M501 500l-61 -500h-39l-10 41q-88 -51 -163 -51q-112 0 -149.5 69.5t-23.5 190.5q15 121 70 190.5t167 69.5q86 0 150 -52l20 42h39zM236 52q80 0 144 32l41 332q-56 32 -136 32q-43 0 -73.5 -16t-47.5 -46.5t-25.5 -61.5t-13.5 -74q-7 -37 -5 -72.5t11 -63.5t35.5 -45
t69.5 -17zM174 620l7 60h274l-7 -60h-274z" />
    <glyph glyph-name="Abreve" unicode="&#x102;" horiz-adv-x="630" 
d="M72 0h-77l358 760h50l172 -760h-77l-44 210h-288zM364 646l-171 -377h249zM381 790q-71 0 -103.5 27t-27.5 83h51q-2 -30 20 -42.5t67 -12.5q92 0 101 55h51q-18 -110 -159 -110z" />
    <glyph glyph-name="abreve" unicode="&#x103;" horiz-adv-x="535" 
d="M501 500l-61 -500h-39l-10 41q-88 -51 -163 -51q-112 0 -149.5 69.5t-23.5 190.5q15 121 70 190.5t167 69.5q86 0 150 -52l20 42h39zM236 52q80 0 144 32l41 332q-56 32 -136 32q-43 0 -73.5 -16t-47.5 -46.5t-25.5 -61.5t-13.5 -74q-7 -37 -5 -72.5t11 -63.5t35.5 -45
t69.5 -17zM302 550q-171 0 -150 200h51q-8 -73 14.5 -106.5t91.5 -33.5t100 33.5t42 106.5h51q-30 -200 -200 -200z" />
    <glyph glyph-name="Aogonek" unicode="&#x104;" horiz-adv-x="630" 
d="M72 0h-77l358 760h50l172 -760q-53 -27 -86.5 -65t-37.5 -77q-7 -57 47 -57q30 0 58 8l-6 -48q-33 -11 -72 -11q-46 0 -70.5 25.5t-19.5 69.5q13 93 109 156l-43 209h-288zM364 646l-171 -377h249z" />
    <glyph glyph-name="aogonek" unicode="&#x105;" horiz-adv-x="535" 
d="M501 500l-61 -500q-53 -27 -86.5 -65t-37.5 -77q-7 -57 47 -57q30 0 58 8l-6 -48q-33 -11 -72 -11q-46 0 -70.5 25.5t-19.5 69.5q7 52 44 98t98 78l-4 20q-88 -51 -163 -51q-112 0 -149.5 69.5t-23.5 190.5q15 121 70 190.5t167 69.5q86 0 150 -52l20 42h39zM236 52
q80 0 144 32l41 332q-56 32 -136 32q-43 0 -73.5 -16t-47.5 -46.5t-25.5 -61.5t-13.5 -74q-7 -37 -5 -72.5t11 -63.5t35.5 -45t69.5 -17z" />
    <glyph glyph-name="Cacute" unicode="&#x106;" horiz-adv-x="610" 
d="M76 375q10 84 33.5 151t63 121t102 83.5t143.5 29.5q115 0 191 -35l-9 -67q-91 39 -190 39q-116 0 -180 -87.5t-82 -234.5q-12 -95 0 -164.5t58 -113.5t125 -44q98 0 200 39l-8 -67q-86 -35 -200 -35q-81 0 -136.5 30t-81 82.5t-34 122.5t4.5 150zM448 800h-50l62 100h90
z" />
    <glyph glyph-name="cacute" unicode="&#x107;" horiz-adv-x="460" 
d="M55 250q7 58 22 102t42.5 81.5t72.5 57t106 19.5q91 0 146 -25l-7 -60q-67 23 -147 23q-45 0 -76.5 -16t-49 -47t-26 -61.5t-13.5 -73.5q-7 -37 -5 -72.5t11 -63.5t37 -45t73 -17q80 0 153 23l-8 -60q-61 -25 -152 -25q-61 0 -101.5 20.5t-57.5 55.5t-23 82.5t3 101.5z
M328 550h-50l75 200h80z" />
    <glyph glyph-name="Ccircumflex" unicode="&#x108;" horiz-adv-x="610" 
d="M76 375q10 84 33.5 151t63 121t102 83.5t143.5 29.5q115 0 191 -35l-9 -67q-91 39 -190 39q-116 0 -180 -87.5t-82 -234.5q-12 -95 0 -164.5t58 -113.5t125 -44q98 0 200 39l-8 -67q-86 -35 -200 -35q-81 0 -136.5 30t-81 82.5t-34 122.5t4.5 150zM578 800h-56l-92 56
l-106 -56h-56l127 100h80z" />
    <glyph glyph-name="ccircumflex" unicode="&#x109;" horiz-adv-x="460" 
d="M55 250q7 58 22 102t42.5 81.5t72.5 57t106 19.5q91 0 146 -25l-7 -60q-67 23 -147 23q-45 0 -76.5 -16t-49 -47t-26 -61.5t-13.5 -73.5q-7 -37 -5 -72.5t11 -63.5t37 -45t73 -17q80 0 153 23l-8 -60q-61 -25 -152 -25q-61 0 -101.5 20.5t-57.5 55.5t-23 82.5t3 101.5z
M488 550h-55l-113 141l-147 -141h-55l170 200h80z" />
    <glyph glyph-name="Cdotaccent" unicode="&#x10a;" horiz-adv-x="610" 
d="M76 375q10 84 33.5 151t63 121t102 83.5t143.5 29.5q115 0 191 -35l-9 -67q-91 39 -190 39q-116 0 -180 -87.5t-82 -234.5q-12 -95 0 -164.5t58 -113.5t125 -44q98 0 200 39l-8 -67q-86 -35 -200 -35q-81 0 -136.5 30t-81 82.5t-34 122.5t4.5 150zM379 850
q0 21 14.5 35.5t35.5 14.5t35.5 -14.5t14.5 -35.5t-14.5 -35.5t-35.5 -14.5t-35.5 14.5t-14.5 35.5z" />
    <glyph glyph-name="cdotaccent" unicode="&#x10b;" horiz-adv-x="460" 
d="M55 250q7 58 22 102t42.5 81.5t72.5 57t106 19.5q91 0 146 -25l-7 -60q-67 23 -147 23q-45 0 -76.5 -16t-49 -47t-26 -61.5t-13.5 -73.5q-7 -37 -5 -72.5t11 -63.5t37 -45t73 -17q80 0 153 23l-8 -60q-61 -25 -152 -25q-61 0 -101.5 20.5t-57.5 55.5t-23 82.5t3 101.5z
M265 650q0 21 14.5 35.5t35.5 14.5t35.5 -14.5t14.5 -35.5t-14.5 -35.5t-35.5 -14.5t-35.5 14.5t-14.5 35.5z" />
    <glyph glyph-name="Ccaron" unicode="&#x10c;" horiz-adv-x="610" 
d="M76 375q10 84 33.5 151t63 121t102 83.5t143.5 29.5q115 0 191 -35l-9 -67q-91 39 -190 39q-116 0 -180 -87.5t-82 -234.5q-12 -95 0 -164.5t58 -113.5t125 -44q98 0 200 39l-8 -67q-86 -35 -200 -35q-81 0 -136.5 30t-81 82.5t-34 122.5t4.5 150zM280 900h56l92 -56
l106 56h56l-127 -100h-80z" />
    <glyph glyph-name="ccaron" unicode="&#x10d;" horiz-adv-x="460" 
d="M55 250q7 58 22 102t42.5 81.5t72.5 57t106 19.5q91 0 146 -25l-7 -60q-67 23 -147 23q-45 0 -76.5 -16t-49 -47t-26 -61.5t-13.5 -73.5q-7 -37 -5 -72.5t11 -63.5t37 -45t73 -17q80 0 153 23l-8 -60q-61 -25 -152 -25q-61 0 -101.5 20.5t-57.5 55.5t-23 82.5t3 101.5z
M458 750h55l-170 -200h-80l-120 200h55l112 -141z" />
    <glyph glyph-name="Dcaron" unicode="&#x10e;" horiz-adv-x="655" 
d="M249 0h-204l92 750h204q89 0 149 -28.5t87.5 -79t36.5 -119t-3 -148.5q-11 -84 -34 -149t-64.5 -117.5t-108 -80.5t-155.5 -28zM197 687l-77 -624h140q239 0 279 312q38 312 -202 312h-140zM225 900h56l92 -56l106 56h56l-127 -100h-80z" />
    <glyph glyph-name="dcaron" unicode="&#x10f;" horiz-adv-x="555" 
d="M292 510q78 0 135 -41l35 281h70l-92 -750h-39l-10 41q-88 -51 -163 -51q-112 0 -149.5 69.5t-23.5 190.5q15 121 70 190.5t167 69.5zM285 448q-43 0 -73.5 -16t-47.5 -46.5t-25.5 -61.5t-13.5 -74q-7 -37 -5 -72.5t11 -63.5t35.5 -45t69.5 -17q80 0 144 32l41 332
q-56 32 -136 32zM598 750h78l-73 -200h-46z" />
    <glyph glyph-name="Dcroat" unicode="&#x110;" horiz-adv-x="685" 
d="M29 362l6 53h90l42 335h204q89 0 149 -28.5t87.5 -79t36.5 -119t-3 -148.5q-11 -84 -34 -149t-64.5 -117.5t-108 -80.5t-155.5 -28h-204l44 362h-90zM227 687l-34 -272h183l-6 -53h-183l-37 -299h140q239 0 279 312q38 312 -202 312h-140z" />
    <glyph glyph-name="dcroat" unicode="&#x111;" horiz-adv-x="535" 
d="M292 510q68 0 135 -41l17 134h-135l6 51h135l12 96h70l-12 -96h90l-6 -51h-90l-74 -603h-39l-10 41q-88 -51 -163 -51q-112 0 -149.5 69.5t-23.5 190.5q15 121 70 190.5t167 69.5zM236 52q80 0 144 32l41 332q-56 32 -136 32q-43 0 -73.5 -16t-47.5 -46.5t-25.5 -61.5
t-13.5 -74q-7 -37 -5 -72.5t11 -63.5t35.5 -45t69.5 -17z" />
    <glyph glyph-name="Emacron" unicode="&#x112;" 
d="M496 422l-7 -63h-332l-37 -296h367l-7 -63h-435l92 750h435l-8 -63h-367l-33 -265h332zM233 820l8 60h274l-8 -60h-274z" />
    <glyph glyph-name="emacron" unicode="&#x113;" horiz-adv-x="510" 
d="M174 620l7 60h274l-7 -60h-274zM128 275h140q69 0 97.5 22.5t33.5 64.5q5 41 -17.5 63.5t-91.5 22.5q-79 0 -114.5 -46.5t-47.5 -126.5zM261 218h-140q-3 -37 0.5 -63.5t15 -51.5t37.5 -38t67 -13q100 0 168 28l-7 -60q-71 -30 -169 -30q-61 0 -101.5 20.5t-57.5 55.5
t-22.5 82.5t3.5 101.5q7 58 22 102t42 81.5t72 57t106 19.5q97 0 136.5 -43.5t31.5 -104.5t-57 -102.5t-147 -41.5z" />
    <glyph glyph-name="Ebreve" unicode="&#x114;" 
d="M496 422l-7 -63h-332l-37 -296h367l-7 -63h-435l92 750h435l-8 -63h-367l-33 -265h332zM366 790q-71 0 -103.5 27t-27.5 83h51q-2 -30 20 -42.5t67 -12.5q92 0 101 55h51q-18 -110 -159 -110z" />
    <glyph glyph-name="ebreve" unicode="&#x115;" horiz-adv-x="510" 
d="M302 550q-171 0 -150 200h51q-8 -73 14.5 -106.5t91.5 -33.5t100 33.5t42 106.5h51q-30 -200 -200 -200zM128 275h140q69 0 97.5 22.5t33.5 64.5q5 41 -17.5 63.5t-91.5 22.5q-79 0 -114.5 -46.5t-47.5 -126.5zM261 218h-140q-3 -37 0.5 -63.5t15 -51.5t37.5 -38t67 -13
q100 0 168 28l-7 -60q-71 -30 -169 -30q-61 0 -101.5 20.5t-57.5 55.5t-22.5 82.5t3.5 101.5q7 58 22 102t42 81.5t72 57t106 19.5q97 0 136.5 -43.5t31.5 -104.5t-57 -102.5t-147 -41.5z" />
    <glyph glyph-name="Edotaccent" unicode="&#x116;" 
d="M496 422l-7 -63h-332l-37 -296h367l-7 -63h-435l92 750h435l-8 -63h-367l-33 -265h332zM324 850q0 21 14.5 35.5t35.5 14.5t35.5 -14.5t14.5 -35.5t-14.5 -35.5t-35.5 -14.5t-35.5 14.5t-14.5 35.5z" />
    <glyph glyph-name="edotaccent" unicode="&#x117;" horiz-adv-x="510" 
d="M128 275h140q69 0 97.5 22.5t33.5 64.5q5 41 -17.5 63.5t-91.5 22.5q-79 0 -114.5 -46.5t-47.5 -126.5zM261 218h-140q-3 -37 0.5 -63.5t15 -51.5t37.5 -38t67 -13q100 0 168 28l-7 -60q-71 -30 -169 -30q-61 0 -101.5 20.5t-57.5 55.5t-22.5 82.5t3.5 101.5q7 58 22 102
t42 81.5t72 57t106 19.5q97 0 136.5 -43.5t31.5 -104.5t-57 -102.5t-147 -41.5zM264 650q0 21 14.5 35.5t35.5 14.5t35.5 -14.5t14.5 -35.5t-14.5 -35.5t-35.5 -14.5t-35.5 14.5t-14.5 35.5z" />
    <glyph glyph-name="Eogonek" unicode="&#x118;" 
d="M496 422l-7 -63h-332l-37 -296h367l-7 -63q-53 -27 -86.5 -65t-37.5 -77q-7 -57 47 -57q30 0 58 8l-6 -48q-33 -11 -72 -11q-46 0 -70.5 25.5t-19.5 69.5q13 92 107 155h-355l92 750h435l-8 -63h-367l-33 -265h332z" />
    <glyph glyph-name="eogonek" unicode="&#x119;" horiz-adv-x="510" 
d="M128 275h140q69 0 97.5 22.5t33.5 64.5q5 41 -17.5 63.5t-91.5 22.5q-79 0 -114.5 -46.5t-47.5 -126.5zM409 80l-7 -60q-36 -15 -64 -20q-53 -27 -86.5 -65t-37.5 -77q-7 -57 47 -57q30 0 58 8l-6 -48q-33 -11 -72 -11q-46 0 -70.5 25.5t-19.5 69.5q11 84 93 145h-11
q-61 0 -101.5 20.5t-57.5 55.5t-22.5 82.5t3.5 101.5q7 58 22 102t42 81.5t72 57t106 19.5q97 0 136.5 -43.5t31.5 -104.5t-57 -102.5t-147 -41.5h-140q-3 -37 0.5 -63.5t15 -51.5t37.5 -38t67 -13q100 0 168 28z" />
    <glyph glyph-name="Ecaron" unicode="&#x11a;" 
d="M496 422l-7 -63h-332l-37 -296h367l-7 -63h-435l92 750h435l-8 -63h-367l-33 -265h332zM225 900h56l92 -56l106 56h56l-127 -100h-80z" />
    <glyph glyph-name="ecaron" unicode="&#x11b;" horiz-adv-x="510" 
d="M457 750h55l-170 -200h-80l-120 200h55l112 -141zM128 275h140q69 0 97.5 22.5t33.5 64.5q5 41 -17.5 63.5t-91.5 22.5q-79 0 -114.5 -46.5t-47.5 -126.5zM261 218h-140q-3 -37 0.5 -63.5t15 -51.5t37.5 -38t67 -13q100 0 168 28l-7 -60q-71 -30 -169 -30
q-61 0 -101.5 20.5t-57.5 55.5t-22.5 82.5t3.5 101.5q7 58 22 102t42 81.5t72 57t106 19.5q97 0 136.5 -43.5t31.5 -104.5t-57 -102.5t-147 -41.5z" />
    <glyph glyph-name="Gcircumflex" unicode="&#x11c;" horiz-adv-x="660" 
d="M323 -10q-81 0 -136.5 30t-81 82.5t-34 122.5t4.5 150q10 84 33.5 151t63 121t102 83.5t143.5 29.5q127 0 205 -42l-9 -68q-59 26 -102.5 36.5t-101.5 10.5q-116 0 -180 -87.5t-82 -234.5q-12 -95 0 -164.5t58 -113.5t125 -44q117 0 165 22l31 256h-157l8 63h225
l-45 -363q-92 -41 -235 -41zM578 800h-56l-92 56l-106 -56h-56l127 100h80z" />
    <glyph glyph-name="gcircumflex" unicode="&#x11d;" horiz-adv-x="535" 
d="M228 -10q-112 0 -149.5 69.5t-23.5 190.5q15 121 70 190.5t167 69.5q86 0 150 -52l20 42h39l-66 -540q-7 -52 -18.5 -87.5t-36 -68.5t-69 -49t-109.5 -16q-120 0 -190 40l9 69q87 -50 189 -50q38 0 66.5 11t43 24.5t25 40.5t13.5 41.5t7 44.5l8 71q-76 -41 -145 -41z
M236 52q80 0 144 32l41 332q-56 32 -136 32q-43 0 -73.5 -16t-47.5 -46.5t-25.5 -61.5t-13.5 -74q-7 -37 -5 -72.5t11 -63.5t35.5 -45t69.5 -17zM482 550h-55l-113 141l-147 -141h-55l170 200h80z" />
    <glyph glyph-name="Gbreve" unicode="&#x11e;" horiz-adv-x="660" 
d="M323 -10q-81 0 -136.5 30t-81 82.5t-34 122.5t4.5 150q10 84 33.5 151t63 121t102 83.5t143.5 29.5q127 0 205 -42l-9 -68q-59 26 -102.5 36.5t-101.5 10.5q-116 0 -180 -87.5t-82 -234.5q-12 -95 0 -164.5t58 -113.5t125 -44q117 0 165 22l31 256h-157l8 63h225
l-45 -363q-92 -41 -235 -41zM421 790q-71 0 -103.5 27t-27.5 83h51q-2 -30 20 -42.5t67 -12.5q92 0 101 55h51q-18 -110 -159 -110z" />
    <glyph glyph-name="gbreve" unicode="&#x11f;" horiz-adv-x="535" 
d="M228 -10q-112 0 -149.5 69.5t-23.5 190.5q15 121 70 190.5t167 69.5q86 0 150 -52l20 42h39l-66 -540q-7 -52 -18.5 -87.5t-36 -68.5t-69 -49t-109.5 -16q-120 0 -190 40l9 69q87 -50 189 -50q38 0 66.5 11t43 24.5t25 40.5t13.5 41.5t7 44.5l8 71q-76 -41 -145 -41z
M236 52q80 0 144 32l41 332q-56 32 -136 32q-43 0 -73.5 -16t-47.5 -46.5t-25.5 -61.5t-13.5 -74q-7 -37 -5 -72.5t11 -63.5t35.5 -45t69.5 -17zM297 550q-171 0 -150 200h51q-8 -73 14.5 -106.5t91.5 -33.5t100 33.5t42 106.5h51q-30 -200 -200 -200z" />
    <glyph glyph-name="Gdotaccent" unicode="&#x120;" horiz-adv-x="660" 
d="M323 -10q-81 0 -136.5 30t-81 82.5t-34 122.5t4.5 150q10 84 33.5 151t63 121t102 83.5t143.5 29.5q127 0 205 -42l-9 -68q-59 26 -102.5 36.5t-101.5 10.5q-116 0 -180 -87.5t-82 -234.5q-12 -95 0 -164.5t58 -113.5t125 -44q117 0 165 22l31 256h-157l8 63h225
l-45 -363q-92 -41 -235 -41zM379 850q0 21 14.5 35.5t35.5 14.5t35.5 -14.5t14.5 -35.5t-14.5 -35.5t-35.5 -14.5t-35.5 14.5t-14.5 35.5z" />
    <glyph glyph-name="gdotaccent" unicode="&#x121;" horiz-adv-x="535" 
d="M228 -10q-112 0 -149.5 69.5t-23.5 190.5q15 121 70 190.5t167 69.5q86 0 150 -52l20 42h39l-66 -540q-7 -52 -18.5 -87.5t-36 -68.5t-69 -49t-109.5 -16q-120 0 -190 40l9 69q87 -50 189 -50q38 0 66.5 11t43 24.5t25 40.5t13.5 41.5t7 44.5l8 71q-76 -41 -145 -41z
M236 52q80 0 144 32l41 332q-56 32 -136 32q-43 0 -73.5 -16t-47.5 -46.5t-25.5 -61.5t-13.5 -74q-7 -37 -5 -72.5t11 -63.5t35.5 -45t69.5 -17zM259 650q0 21 14.5 35.5t35.5 14.5t35.5 -14.5t14.5 -35.5t-14.5 -35.5t-35.5 -14.5t-35.5 14.5t-14.5 35.5z" />
    <glyph glyph-name="Gcommaaccent" unicode="&#x122;" horiz-adv-x="660" 
d="M323 -10q-81 0 -136.5 30t-81 82.5t-34 122.5t4.5 150q10 84 33.5 151t63 121t102 83.5t143.5 29.5q127 0 205 -42l-9 -68q-59 26 -102.5 36.5t-101.5 10.5q-116 0 -180 -87.5t-82 -234.5q-12 -95 0 -164.5t58 -113.5t125 -44q117 0 165 22l31 256h-157l8 63h225
l-45 -363q-92 -41 -235 -41zM279 -50h92l-92 -200h-50z" />
    <glyph glyph-name="gcommaaccent" unicode="&#x123;" horiz-adv-x="535" 
d="M228 -10q-112 0 -149.5 69.5t-23.5 190.5q15 121 70 190.5t167 69.5q86 0 150 -52l20 42h39l-66 -540q-7 -52 -18.5 -87.5t-36 -68.5t-69 -49t-109.5 -16q-120 0 -190 40l9 69q87 -50 189 -50q38 0 66.5 11t43 24.5t25 40.5t13.5 41.5t7 44.5l8 71q-76 -41 -145 -41z
M236 52q80 0 144 32l41 332q-56 32 -136 32q-43 0 -73.5 -16t-47.5 -46.5t-25.5 -61.5t-13.5 -74q-7 -37 -5 -72.5t11 -63.5t35.5 -45t69.5 -17zM336 550h-80l81 200h50z" />
    <glyph glyph-name="Hcircumflex" unicode="&#x124;" horiz-adv-x="660" 
d="M555 0h-68l44 359h-374l-44 -359h-68l92 750h68l-41 -328h374l41 328h68zM553 800h-56l-92 56l-106 -56h-56l127 100h80z" />
    <glyph glyph-name="hcircumflex" unicode="&#x125;" horiz-adv-x="500" 
d="M384 363q6 47 -17 66t-72 19q-82 0 -141 -32l-51 -416h-68l92 750h68l-35 -281q69 41 142 41q87 0 123.5 -38t28.5 -112l-44 -360h-70zM322 800h-56l-92 56l-106 -56h-56l127 100h80z" />
    <glyph glyph-name="Hbar" unicode="&#x126;" horiz-adv-x="660" 
d="M555 0h-68l44 359h-374l-44 -359h-68l92 750h68l-18 -144h374l18 144h68zM164 422h374l15 121h-374z" />
    <glyph glyph-name="hbar" unicode="&#x127;" horiz-adv-x="500" 
d="M25 654h90l12 96h68l-12 -96h137l-6 -51h-137l-17 -134q69 41 142 41q87 0 123.5 -38t28.5 -112l-44 -360h-70l44 363q6 47 -17 66t-72 19q-82 0 -141 -32l-51 -416h-68l74 603h-90z" />
    <glyph glyph-name="Itilde" unicode="&#x128;" horiz-adv-x="260" 
d="M135 0h-70l92 750h70zM280 849q50 0 55 51h56q-3 -52 -36 -81t-87 -29q-31 0 -55 15t-44.5 30.5t-40.5 15.5q-50 0 -55 -51h-56q2 52 35 81t87 29q31 0 55.5 -15t45 -30.5t40.5 -15.5z" />
    <glyph glyph-name="itilde" unicode="&#x129;" horiz-adv-x="240" 
d="M159 -10q-56 0 -79.5 25.5t-16.5 84.5l49 400h68l-50 -408q-4 -26 4 -35.5t32 -9.5zM240 644q21 0 33.5 9.5t16 18.5t5.5 23h56q-3 -52 -36 -81t-87 -29q-28 0 -48.5 11t-31 24.5t-26 24.5t-33.5 11q-50 0 -55 -51h-56q2 52 35 81t87 29q28 0 49 -11t31.5 -24.5t26 -24.5
t33.5 -11z" />
    <glyph glyph-name="Imacron" unicode="&#x12a;" horiz-adv-x="260" 
d="M135 0h-70l92 750h70zM63 820l8 60h274l-8 -60h-274z" />
    <glyph glyph-name="imacron" unicode="&#x12b;" horiz-adv-x="240" 
d="M159 -10q-56 0 -79.5 25.5t-16.5 84.5l49 400h68l-50 -408q-4 -26 4 -35.5t32 -9.5zM24 620l7 60h274l-7 -60h-274z" />
    <glyph glyph-name="Ibreve" unicode="&#x12c;" horiz-adv-x="260" 
d="M135 0h-70l92 750h70zM196 790q-71 0 -103.5 27t-27.5 83h51q-2 -30 20 -42.5t67 -12.5q92 0 101 55h51q-18 -110 -159 -110z" />
    <glyph glyph-name="Iogonek" unicode="&#x12e;" horiz-adv-x="260" 
d="M135 0q-95 -61 -104 -142q-7 -57 47 -57q30 0 58 8l-6 -48q-33 -11 -72 -11q-45 0 -69.5 25.5t-19.5 69.5q11 97 96 156l92 749h70z" />
    <glyph glyph-name="iogonek" unicode="&#x12f;" horiz-adv-x="240" 
d="M159 -10q-41 -21 -74 -58t-37 -74q-7 -57 47 -57q30 0 58 8l-6 -48q-33 -11 -72 -11q-46 0 -70.5 25.5t-19.5 69.5q12 92 114 156q-46 22 -36 99l49 400h68l-50 -408q-4 -26 4 -35.5t32 -9.5zM114 650q0 21 14.5 35.5t35.5 14.5t35.5 -14.5t14.5 -35.5t-14.5 -35.5
t-35.5 -14.5t-35.5 14.5t-14.5 35.5z" />
    <glyph glyph-name="Idotaccent" unicode="&#x130;" horiz-adv-x="260" 
d="M135 0h-70l92 750h70zM154 850q0 21 14.5 35.5t35.5 14.5t35.5 -14.5t14.5 -35.5t-14.5 -35.5t-35.5 -14.5t-35.5 14.5t-14.5 35.5z" />
    <glyph glyph-name="dotlessi" unicode="&#x131;" horiz-adv-x="240" 
d="M159 -10q-56 0 -79.5 25.5t-16.5 84.5l49 400h68l-50 -408q-4 -26 4 -35.5t32 -9.5z" />
    <glyph glyph-name="IJ" unicode="&#x132;" horiz-adv-x="639" 
d="M135 0h-70l92 750h70zM264 -3l8 64q31 -8 69 -8q109 0 119 85l76 612h70l-75 -610q-19 -150 -198 -150q-41 0 -69 7z" />
    <glyph glyph-name="ij" unicode="&#x133;" horiz-adv-x="420" 
d="M159 -10q-56 0 -79.5 25.5t-16.5 84.5l49 400h68l-50 -408q-4 -26 4 -35.5t32 -9.5zM81 -260l7 59q54 7 94.5 34t47.5 80l72 587h68l-73 -596q-9 -73 -74.5 -116.5t-141.5 -47.5zM114 650q0 21 14.5 35.5t35.5 14.5t35.5 -14.5t14.5 -35.5t-14.5 -35.5t-35.5 -14.5
t-35.5 14.5t-14.5 35.5zM304 650q0 21 14.5 35.5t35.5 14.5t35.5 -14.5t14.5 -35.5t-14.5 -35.5t-35.5 -14.5t-35.5 14.5t-14.5 35.5z" />
    <glyph glyph-name="Jcircumflex" unicode="&#x134;" horiz-adv-x="379" 
d="M4 -3l8 64q31 -8 69 -8q109 0 119 85l76 612h70l-75 -610q-19 -150 -198 -150q-41 0 -69 7zM472 800h-56l-92 56l-106 -56h-56l127 100h80z" />
    <glyph glyph-name="jcircumflex" unicode="&#x135;" horiz-adv-x="230" 
d="M-108 -260l7 59q54 7 94 34t47 80l72 587h68l-73 -596q-6 -49 -41.5 -87t-80.5 -56t-93 -21zM337 550h-55l-113 141l-147 -141h-54l169 200h80z" />
    <glyph glyph-name="Kcommaaccent" unicode="&#x136;" horiz-adv-x="595" 
d="M222 363l-74 -75l-35 -288h-68l92 750h68l-46 -374l359 374h88l-334 -336l272 -414h-89zM224 -50h92l-92 -200h-50z" />
    <glyph glyph-name="kcommaaccent" unicode="&#x137;" horiz-adv-x="500" 
d="M484 500l-240 -206l206 -294h-87l-166 254l-71 -60l-23 -194h-68l92 750h68l-59 -474l254 224h94zM186 -50h80l-80 -200h-50z" />
    <glyph glyph-name="kgreenlandic" unicode="&#x138;" horiz-adv-x="500" 
d="M484 500l-240 -206l206 -294h-87l-166 254l-71 -60l-23 -194h-68l61 500h68l-28 -224l254 224h94z" />
    <glyph glyph-name="Lacute" unicode="&#x139;" horiz-adv-x="530" 
d="M205 750l-85 -687h347l-7 -63h-415l92 750h68zM202 800h-50l62 100h90z" />
    <glyph glyph-name="lacute" unicode="&#x13a;" horiz-adv-x="240" 
d="M159 -10q-56 0 -79.5 25.5t-16.5 84.5l80 650h68l-81 -658q-4 -26 4 -35.5t32 -9.5zM208 800h-50l62 100h90z" />
    <glyph glyph-name="Lcommaaccent" unicode="&#x13b;" horiz-adv-x="530" 
d="M205 750l-85 -687h347l-7 -63h-415l92 750h68zM209 -50h92l-92 -200h-50z" />
    <glyph glyph-name="lcommaaccent" unicode="&#x13c;" horiz-adv-x="240" 
d="M159 -10q-56 0 -79.5 25.5t-16.5 84.5l80 650h68l-81 -658q-4 -26 4 -35.5t32 -9.5zM66 -50h80l-80 -200h-50z" />
    <glyph glyph-name="Lcaron" unicode="&#x13d;" horiz-adv-x="530" 
d="M205 750l-85 -687h347l-7 -63h-415l92 750h68zM301 750h78l-73 -200h-46z" />
    <glyph glyph-name="lcaron" unicode="&#x13e;" horiz-adv-x="260" 
d="M159 -10q-56 0 -79.5 25.5t-16.5 84.5l80 650h68l-81 -658q-4 -26 4 -35.5t32 -9.5zM277 750h78l-73 -200h-46z" />
    <glyph glyph-name="Ldot" unicode="&#x13f;" horiz-adv-x="530" 
d="M205 750l-85 -687h347l-7 -63h-415l92 750h68zM340 375q0 21 14.5 35.5t35.5 14.5t35.5 -14.5t14.5 -35.5t-14.5 -35.5t-35.5 -14.5t-35.5 14.5t-14.5 35.5z" />
    <glyph glyph-name="ldot" unicode="&#x140;" horiz-adv-x="360" 
d="M159 -10q-56 0 -79.5 25.5t-16.5 84.5l80 650h68l-81 -658q-4 -26 4 -35.5t32 -9.5zM256 300q0 21 14.5 35.5t35.5 14.5t35.5 -14.5t14.5 -35.5t-14.5 -35.5t-35.5 -14.5t-35.5 14.5t-14.5 35.5z" />
    <glyph glyph-name="Lslash" unicode="&#x141;" horiz-adv-x="560" 
d="M233 750l-45 -367l224 127l-7 -61l-225 -127l-32 -259h347l-7 -63h-415l34 280l-105 -59l7 61l105 59l51 409h68z" />
    <glyph glyph-name="lslash" unicode="&#x142;" horiz-adv-x="290" 
d="M30 288l8 64l82 48l43 350h68l-38 -306l113 66l-8 -64l-113 -66l-35 -288q-4 -26 4 -35.5t32 -9.5l-7 -57q-56 0 -79.5 25.5t-16.5 84.5l29 236z" />
    <glyph glyph-name="Nacute" unicode="&#x143;" horiz-adv-x="670" 
d="M565 0h-51l-328 611l-73 -611h-68l92 750h51l328 -611l73 611h68zM428 800h-50l62 100h90z" />
    <glyph glyph-name="nacute" unicode="&#x144;" horiz-adv-x="500" 
d="M340 0l44 363q6 47 -17 66t-72 19q-80 0 -139 -32l-51 -416h-70l61 500h39l10 -42q76 52 157 52q87 0 123.5 -38t28.5 -112l-44 -360h-70zM307 550h-50l75 200h80z" />
    <glyph glyph-name="Ncommaaccent" unicode="&#x145;" horiz-adv-x="670" 
d="M565 0h-51l-328 611l-73 -611h-68l92 750h51l328 -611l73 611h68zM259 -50h92l-92 -200h-50z" />
    <glyph glyph-name="ncommaaccent" unicode="&#x146;" horiz-adv-x="500" 
d="M340 0l44 363q6 47 -17 66t-72 19q-80 0 -139 -32l-51 -416h-70l61 500h39l10 -42q76 52 157 52q87 0 123.5 -38t28.5 -112l-44 -360h-70zM175 -50h80l-80 -200h-50z" />
    <glyph glyph-name="Ncaron" unicode="&#x147;" horiz-adv-x="670" 
d="M565 0h-51l-328 611l-73 -611h-68l92 750h51l328 -611l73 611h68zM260 900h56l92 -56l106 56h56l-127 -100h-80z" />
    <glyph glyph-name="ncaron" unicode="&#x148;" horiz-adv-x="500" 
d="M340 0l44 363q6 47 -17 66t-72 19q-80 0 -139 -32l-51 -416h-70l61 500h39l10 -42q76 52 157 52q87 0 123.5 -38t28.5 -112l-44 -360h-70zM437 750h55l-170 -200h-80l-120 200h55l112 -141z" />
    <glyph glyph-name="Eng" unicode="&#x14a;" horiz-adv-x="670" 
d="M339 -260l7 59q54 7 94.5 34t47.5 80l13 109l-315 589l-73 -611h-68l92 750h51l328 -611l73 611h68l-104 -846q-9 -73 -73.5 -116.5t-140.5 -47.5z" />
    <glyph glyph-name="eng" unicode="&#x14b;" horiz-adv-x="500" 
d="M295 448q-80 0 -139 -32l-51 -416h-70l61 500h39l10 -42q76 52 157 52q87 0 123.5 -38t28.5 -112l-56 -456q-9 -72 -75 -116t-143 -48l7 59q54 7 94.5 34t47.5 80l55 450q6 47 -17 66t-72 19z" />
    <glyph glyph-name="Omacron" unicode="&#x14c;" horiz-adv-x="680" 
d="M316 53q53 0 93 17t66 44t44 70.5t27.5 87t17.5 103.5q11 67 8.5 126t-17 102.5t-55 68.5t-105.5 25q-53 0 -93 -17t-65.5 -44t-44 -70.5t-28 -87t-16.5 -103.5q-10 -92 -7 -163.5t46 -115t129 -43.5zM308 -10q-71 0 -120.5 22t-74.5 56.5t-36 87t-10 103t9 116.5
t19.5 116t35.5 103t58 87.5t88.5 56.5t125.5 22q51 0 91 -11.5t66.5 -30.5t44.5 -48t26.5 -60.5t11.5 -72.5t1 -78.5t-8 -83.5q-8 -66 -20 -116t-36 -103t-58 -87.5t-88.5 -56.5t-125.5 -22zM273 820l8 60h274l-8 -60h-274z" />
    <glyph glyph-name="omacron" unicode="&#x14d;" horiz-adv-x="530" 
d="M475 250q-16 -128 -69 -194t-173 -66q-82 0 -126.5 33.5t-52 91t0.5 135.5q16 127 69 193.5t173 66.5t157 -66.5t21 -193.5zM405 250q6 58 5.5 102t-29.5 70t-91 26q-39 0 -67 -10.5t-44.5 -26t-27.5 -43.5t-16 -53t-10 -65q-6 -58 -5.5 -102t29.5 -70t92 -26q47 0 78 14
t48 44t24.5 60t13.5 80zM174 620l7 60h274l-7 -60h-274z" />
    <glyph glyph-name="Obreve" unicode="&#x14e;" horiz-adv-x="680" 
d="M316 53q53 0 93 17t66 44t44 70.5t27.5 87t17.5 103.5q11 67 8.5 126t-17 102.5t-55 68.5t-105.5 25q-53 0 -93 -17t-65.5 -44t-44 -70.5t-28 -87t-16.5 -103.5q-10 -92 -7 -163.5t46 -115t129 -43.5zM308 -10q-71 0 -120.5 22t-74.5 56.5t-36 87t-10 103t9 116.5
t19.5 116t35.5 103t58 87.5t88.5 56.5t125.5 22q51 0 91 -11.5t66.5 -30.5t44.5 -48t26.5 -60.5t11.5 -72.5t1 -78.5t-8 -83.5q-8 -66 -20 -116t-36 -103t-58 -87.5t-88.5 -56.5t-125.5 -22zM406 790q-71 0 -103.5 27t-27.5 83h51q-2 -30 20 -42.5t67 -12.5q92 0 101 55h51
q-18 -110 -159 -110z" />
    <glyph glyph-name="obreve" unicode="&#x14f;" horiz-adv-x="530" 
d="M475 250q-16 -128 -69 -194t-173 -66q-82 0 -126.5 33.5t-52 91t0.5 135.5q16 127 69 193.5t173 66.5t157 -66.5t21 -193.5zM405 250q6 58 5.5 102t-29.5 70t-91 26q-39 0 -67 -10.5t-44.5 -26t-27.5 -43.5t-16 -53t-10 -65q-6 -58 -5.5 -102t29.5 -70t92 -26q47 0 78 14
t48 44t24.5 60t13.5 80zM302 550q-171 0 -150 200h51q-8 -73 14.5 -106.5t91.5 -33.5t100 33.5t42 106.5h51q-30 -200 -200 -200z" />
    <glyph glyph-name="Ohungarumlaut" unicode="&#x150;" horiz-adv-x="680" 
d="M316 53q53 0 93 17t66 44t44 70.5t27.5 87t17.5 103.5q11 67 8.5 126t-17 102.5t-55 68.5t-105.5 25q-53 0 -93 -17t-65.5 -44t-44 -70.5t-28 -87t-16.5 -103.5q-10 -92 -7 -163.5t46 -115t129 -43.5zM308 -10q-71 0 -120.5 22t-74.5 56.5t-36 87t-10 103t9 116.5
t19.5 116t35.5 103t58 87.5t88.5 56.5t125.5 22q51 0 91 -11.5t66.5 -30.5t44.5 -48t26.5 -60.5t11.5 -72.5t1 -78.5t-8 -83.5q-8 -66 -20 -116t-36 -103t-58 -87.5t-88.5 -56.5t-125.5 -22zM373 800h-50l62 100h90zM493 800h-50l62 100h90z" />
    <glyph glyph-name="ohungarumlaut" unicode="&#x151;" horiz-adv-x="530" 
d="M475 250q-16 -128 -69 -194t-173 -66q-82 0 -126.5 33.5t-52 91t0.5 135.5q16 127 69 193.5t173 66.5t157 -66.5t21 -193.5zM405 250q6 58 5.5 102t-29.5 70t-91 26q-39 0 -67 -10.5t-44.5 -26t-27.5 -43.5t-16 -53t-10 -65q-6 -58 -5.5 -102t29.5 -70t92 -26q47 0 78 14
t48 44t24.5 60t13.5 80zM387 550h-50l75 200h80zM267 550h-50l75 200h80z" />
    <glyph glyph-name="OE" unicode="&#x152;" horiz-adv-x="890" 
d="M816 422l-7 -63h-290l-37 -296h325l-7 -63h-454q-72 0 -125 18.5t-84 52t-48.5 80.5t-18.5 103.5t6 120.5q10 84 33.5 149t65 117.5t108 80.5t155.5 28h454l-8 -63h-325l-33 -265h290zM414 63l77 624h-65q-240 0 -278 -312q-40 -312 201 -312h65z" />
    <glyph glyph-name="oe" unicode="&#x153;" horiz-adv-x="860" 
d="M405 250q6 58 5.5 102t-29.5 70t-91 26q-39 0 -67 -10.5t-44.5 -26t-27.5 -43.5t-16 -53t-10 -65q-6 -58 -5.5 -102t29.5 -70t92 -26q47 0 78 14t48 44t24.5 60t13.5 80zM478 275h140q69 0 97.5 22.5t33.5 64.5q5 41 -17.5 63.5t-91.5 22.5q-79 0 -114.5 -46.5
t-47.5 -126.5zM583 -10q-124 0 -163 84q-59 -84 -187 -84q-82 0 -126.5 33.5t-52 91t0.5 135.5q16 127 69 193.5t173 66.5q128 0 166 -84q60 84 184 84q97 0 136.5 -43.5t31.5 -104.5t-57 -102.5t-147 -41.5h-140q-3 -37 0.5 -63.5t15 -51.5t37.5 -38t67 -13q100 0 168 28
l-7 -60q-71 -30 -169 -30z" />
    <glyph glyph-name="Racute" unicode="&#x154;" horiz-adv-x="621" 
d="M153 328l-40 -328h-68l92 750h235q134 0 183 -54t36 -157q-10 -80 -48 -130t-115 -69l138 -340h-79l-128 329q-11 -1 -33 -1h-173zM197 687l-36 -296h185q91 0 126.5 38.5t44.5 109.5t-17.5 109.5t-117.5 38.5h-185zM383 800h-50l62 100h90z" />
    <glyph glyph-name="racute" unicode="&#x155;" horiz-adv-x="363" 
d="M372 505l-8 -65q-24 8 -59 8q-90 0 -149 -32l-51 -416h-70l61 500h39l10 -42q76 52 167 52q28 0 60 -5zM272 550h-50l75 200h80z" />
    <glyph glyph-name="Rcommaaccent" unicode="&#x156;" horiz-adv-x="621" 
d="M153 328l-40 -328h-68l92 750h235q134 0 183 -54t36 -157q-10 -80 -48 -130t-115 -69l138 -340h-79l-128 329q-11 -1 -33 -1h-173zM197 687l-36 -296h185q91 0 126.5 38.5t44.5 109.5t-17.5 109.5t-117.5 38.5h-185zM234 -50h92l-92 -200h-50z" />
    <glyph glyph-name="rcommaaccent" unicode="&#x157;" horiz-adv-x="363" 
d="M372 505l-8 -65q-24 8 -59 8q-90 0 -149 -32l-51 -416h-70l61 500h39l10 -42q76 52 167 52q28 0 60 -5zM25 -50h80l-80 -200h-50z" />
    <glyph glyph-name="Rcaron" unicode="&#x158;" horiz-adv-x="621" 
d="M153 328l-40 -328h-68l92 750h235q134 0 183 -54t36 -157q-10 -80 -48 -130t-115 -69l138 -340h-79l-128 329q-11 -1 -33 -1h-173zM197 687l-36 -296h185q91 0 126.5 38.5t44.5 109.5t-17.5 109.5t-117.5 38.5h-185zM215 900h56l92 -56l106 56h56l-127 -100h-80z" />
    <glyph glyph-name="rcaron" unicode="&#x159;" horiz-adv-x="363" 
d="M372 505l-8 -65q-24 8 -59 8q-90 0 -149 -32l-51 -416h-70l61 500h39l10 -42q76 52 167 52q28 0 60 -5zM402 750h55l-170 -200h-80l-120 200h55l112 -141z" />
    <glyph glyph-name="Sacute" unicode="&#x15a;" horiz-adv-x="595" 
d="M360 697q-102 0 -146.5 -39.5t-53.5 -107.5q-4 -32 2 -53.5t16 -34.5t35.5 -22t46.5 -12.5t64 -9.5q59 -8 97.5 -19.5t69 -33.5t42 -58.5t4.5 -90.5q-5 -42 -22.5 -79t-50.5 -71.5t-92.5 -55t-139.5 -20.5q-51 0 -110.5 12t-94.5 28l8 65q4 -1 23 -8t28 -10t29.5 -8.5
t36.5 -8t40 -5t49 -2.5q203 0 223 163q9 77 -22.5 104t-128.5 40q-135 17 -184.5 57t-37.5 134q4 29 13 55.5t29.5 55.5t50 50t77.5 34.5t108 13.5q119 0 191 -35l-9 -67q-86 39 -191 39zM399 800h-50l62 100h90z" />
    <glyph glyph-name="sacute" unicode="&#x15b;" horiz-adv-x="460" 
d="M132 362q-4 -35 16.5 -52t88.5 -23q100 -9 133 -43t25 -100t-61.5 -110t-158.5 -44q-86 0 -146 25l8 60q61 -23 147 -23q131 0 143 91q5 39 -14.5 59.5t-87.5 26.5q-101 9 -134 42t-25 91q8 62 58 105t147 43q86 0 141 -25l-7 -60q-67 23 -142 23q-69 0 -97.5 -22.5
t-33.5 -63.5zM301 550h-50l75 200h80z" />
    <glyph glyph-name="Scircumflex" unicode="&#x15c;" horiz-adv-x="595" 
d="M360 697q-102 0 -146.5 -39.5t-53.5 -107.5q-4 -32 2 -53.5t16 -34.5t35.5 -22t46.5 -12.5t64 -9.5q59 -8 97.5 -19.5t69 -33.5t42 -58.5t4.5 -90.5q-5 -42 -22.5 -79t-50.5 -71.5t-92.5 -55t-139.5 -20.5q-51 0 -110.5 12t-94.5 28l8 65q4 -1 23 -8t28 -10t29.5 -8.5
t36.5 -8t40 -5t49 -2.5q203 0 223 163q9 77 -22.5 104t-128.5 40q-135 17 -184.5 57t-37.5 134q4 29 13 55.5t29.5 55.5t50 50t77.5 34.5t108 13.5q119 0 191 -35l-9 -67q-86 39 -191 39zM529 800h-56l-92 56l-106 -56h-56l127 100h80z" />
    <glyph glyph-name="scircumflex" unicode="&#x15d;" horiz-adv-x="460" 
d="M132 362q-4 -35 16.5 -52t88.5 -23q100 -9 133 -43t25 -100t-61.5 -110t-158.5 -44q-86 0 -146 25l8 60q61 -23 147 -23q131 0 143 91q5 39 -14.5 59.5t-87.5 26.5q-101 9 -134 42t-25 91q8 62 58 105t147 43q86 0 141 -25l-7 -60q-67 23 -142 23q-69 0 -97.5 -22.5
t-33.5 -63.5zM451 550h-55l-113 141l-147 -141h-55l170 200h80z" />
    <glyph glyph-name="Scedilla" unicode="&#x15e;" horiz-adv-x="595" 
d="M360 697q-102 0 -146.5 -39.5t-53.5 -107.5q-4 -32 2 -53.5t16 -34.5t35.5 -22t46.5 -12.5t64 -9.5q59 -8 97.5 -19.5t69 -33.5t42 -58.5t4.5 -90.5q-5 -39 -20.5 -74t-45 -68.5t-81.5 -55.5t-121 -26l-2 -56q91 -24 83 -97q-5 -41 -37.5 -65t-84.5 -24q-62 0 -92 18
l6 46q34 -13 75 -13q67 0 71 36q4 30 -18.5 44t-62.5 19l20 90q-51 1 -109 12.5t-91 27.5l8 65q4 -1 23 -8t28 -10t29.5 -8.5t36.5 -8t40 -5t49 -2.5q203 0 223 163q9 77 -22.5 104t-128.5 40q-135 17 -184.5 57t-37.5 134q4 29 13 55.5t29.5 55.5t50 50t77.5 34.5t108 13.5
q119 0 191 -35l-9 -67q-86 39 -191 39z" />
    <glyph glyph-name="scedilla" unicode="&#x15f;" horiz-adv-x="460" 
d="M132 362q-4 -35 16.5 -52t88.5 -23q100 -9 133 -43t25 -100q-8 -61 -54.5 -104t-139.5 -49l-1 -55q91 -24 83 -97q-5 -41 -37.5 -65t-84.5 -24q-62 0 -92 18l6 46q34 -13 75 -13q67 0 71 36q4 30 -18.5 44t-62.5 19l20 90q-81 4 -131 25l8 60q61 -23 147 -23
q131 0 143 91q5 39 -14.5 59.5t-87.5 26.5q-101 9 -134 42t-25 91q8 62 58 105t147 43q86 0 141 -25l-7 -60q-67 23 -142 23q-69 0 -97.5 -22.5t-33.5 -63.5z" />
    <glyph glyph-name="Scaron" unicode="&#x160;" horiz-adv-x="595" 
d="M360 697q-102 0 -146.5 -39.5t-53.5 -107.5q-4 -32 2 -53.5t16 -34.5t35.5 -22t46.5 -12.5t64 -9.5q59 -8 97.5 -19.5t69 -33.5t42 -58.5t4.5 -90.5q-5 -42 -22.5 -79t-50.5 -71.5t-92.5 -55t-139.5 -20.5q-51 0 -110.5 12t-94.5 28l8 65q4 -1 23 -8t28 -10t29.5 -8.5
t36.5 -8t40 -5t49 -2.5q203 0 223 163q9 77 -22.5 104t-128.5 40q-135 17 -184.5 57t-37.5 134q4 29 13 55.5t29.5 55.5t50 50t77.5 34.5t108 13.5q119 0 191 -35l-9 -67q-86 39 -191 39zM231 900h56l92 -56l106 56h56l-127 -100h-80z" />
    <glyph glyph-name="scaron" unicode="&#x161;" horiz-adv-x="460" 
d="M132 362q-4 -35 16.5 -52t88.5 -23q100 -9 133 -43t25 -100t-61.5 -110t-158.5 -44q-86 0 -146 25l8 60q61 -23 147 -23q131 0 143 91q5 39 -14.5 59.5t-87.5 26.5q-101 9 -134 42t-25 91q8 62 58 105t147 43q86 0 141 -25l-7 -60q-67 23 -142 23q-69 0 -97.5 -22.5
t-33.5 -63.5zM421 750h55l-170 -200h-80l-120 200h55l112 -141z" />
    <glyph glyph-name="Tcommaaccent" unicode="&#x162;" horiz-adv-x="560" 
d="M575 687h-207l-84 -687h-68l84 687h-207l8 63h482zM199 -50h92l-92 -200h-50z" />
    <glyph glyph-name="Tcommaaccent" unicode="&#x21a;" horiz-adv-x="560" 
d="M575 687h-207l-84 -687h-68l84 687h-207l8 63h482zM199 -50h92l-92 -200h-50z" />
    <glyph glyph-name="tcommaaccent" unicode="&#x163;" horiz-adv-x="375" 
d="M301 50l-7 -56q-17 -4 -46 -4q-69 0 -110 33.5t-33 102.5l39 319h-100l4 31l104 29l16 135l73 20l-20 -160h155l-7 -55h-155l-38 -311q-11 -86 85 -86q14 0 40 2zM134 -50h80l-80 -200h-50z" />
    <glyph glyph-name="tcommaaccent" unicode="&#x21b;" horiz-adv-x="375" 
d="M301 50l-7 -56q-17 -4 -46 -4q-69 0 -110 33.5t-33 102.5l39 319h-100l4 31l104 29l16 135l73 20l-20 -160h155l-7 -55h-155l-38 -311q-11 -86 85 -86q14 0 40 2zM134 -50h80l-80 -200h-50z" />
    <glyph glyph-name="Tcaron" unicode="&#x164;" horiz-adv-x="560" 
d="M575 687h-207l-84 -687h-68l84 687h-207l8 63h482zM205 900h56l92 -56l106 56h56l-127 -100h-80z" />
    <glyph glyph-name="tcaron" unicode="&#x165;" horiz-adv-x="375" 
d="M301 50l-7 -56q-17 -4 -46 -4q-69 0 -110 33.5t-33 102.5l39 319h-100l4 31l104 29l16 135l73 20l-20 -160h155l-7 -55h-155l-38 -311q-11 -86 85 -86q14 0 40 2zM318 750h78l-73 -200h-46z" />
    <glyph glyph-name="Tbar" unicode="&#x166;" horiz-adv-x="560" 
d="M328 360l-44 -360h-68l44 360h-125l7 61h125l33 266h-207l8 63h482l-8 -63h-207l-33 -266h125l-7 -61h-125z" />
    <glyph glyph-name="tbar" unicode="&#x167;" horiz-adv-x="377" 
d="M301 50l-7 -56q-17 -4 -46 -4q-69 0 -110 33.5t-33 102.5l15 124h-100l7 55h100l17 140h-100l4 31l104 29l16 135l73 20l-20 -160h155l-7 -55h-155l-17 -140h125l-7 -55h-125l-14 -116q-11 -86 85 -86q14 0 40 2z" />
    <glyph glyph-name="Utilde" unicode="&#x168;" horiz-adv-x="670" 
d="M311 53q197 0 221 193l62 504h68l-64 -515q-7 -61 -32 -107t-56.5 -71.5t-71.5 -41.5t-71.5 -20.5t-63.5 -4.5t-62 4.5t-66.5 20.5t-61.5 41.5t-38.5 71.5t-6.5 107l64 515h68l-62 -504q-6 -51 4 -89t27.5 -57t46 -30.5t49.5 -14t46 -2.5zM485 849q50 0 55 51h56
q-3 -52 -36 -81t-87 -29q-31 0 -55 15t-44.5 30.5t-40.5 15.5q-50 0 -55 -51h-56q2 52 35 81t87 29q31 0 55.5 -15t45 -30.5t40.5 -15.5z" />
    <glyph glyph-name="utilde" unicode="&#x169;" horiz-adv-x="500" 
d="M161 500l-45 -363q-6 -46 17.5 -65.5t72.5 -19.5q78 0 139 32l51 416h70l-61 -500h-39l-10 42q-77 -52 -158 -52q-170 0 -151 150l44 360h70zM372 644q21 0 33.5 9.5t16 18.5t5.5 23h56q-3 -52 -36 -81t-87 -29q-28 0 -48.5 11t-31 24.5t-26 24.5t-33.5 11q-50 0 -55 -51
h-56q2 52 35 81t87 29q28 0 49 -11t31.5 -24.5t26 -24.5t33.5 -11z" />
    <glyph glyph-name="Umacron" unicode="&#x16a;" horiz-adv-x="670" 
d="M311 53q197 0 221 193l62 504h68l-64 -515q-7 -61 -32 -107t-56.5 -71.5t-71.5 -41.5t-71.5 -20.5t-63.5 -4.5t-62 4.5t-66.5 20.5t-61.5 41.5t-38.5 71.5t-6.5 107l64 515h68l-62 -504q-6 -51 4 -89t27.5 -57t46 -30.5t49.5 -14t46 -2.5zM268 820l8 60h274l-8 -60h-274z
" />
    <glyph glyph-name="umacron" unicode="&#x16b;" horiz-adv-x="500" 
d="M161 500l-45 -363q-6 -46 17.5 -65.5t72.5 -19.5q78 0 139 32l51 416h70l-61 -500h-39l-10 42q-77 -52 -158 -52q-170 0 -151 150l44 360h70zM156 620l7 60h274l-7 -60h-274z" />
    <glyph glyph-name="Ubreve" unicode="&#x16c;" horiz-adv-x="670" 
d="M311 53q197 0 221 193l62 504h68l-64 -515q-7 -61 -32 -107t-56.5 -71.5t-71.5 -41.5t-71.5 -20.5t-63.5 -4.5t-62 4.5t-66.5 20.5t-61.5 41.5t-38.5 71.5t-6.5 107l64 515h68l-62 -504q-6 -51 4 -89t27.5 -57t46 -30.5t49.5 -14t46 -2.5zM401 790q-71 0 -103.5 27
t-27.5 83h51q-2 -30 20 -42.5t67 -12.5q92 0 101 55h51q-18 -110 -159 -110z" />
    <glyph glyph-name="ubreve" unicode="&#x16d;" horiz-adv-x="500" 
d="M161 500l-45 -363q-6 -46 17.5 -65.5t72.5 -19.5q78 0 139 32l51 416h70l-61 -500h-39l-10 42q-77 -52 -158 -52q-170 0 -151 150l44 360h70zM284 550q-171 0 -150 200h51q-8 -73 14.5 -106.5t91.5 -33.5t100 33.5t42 106.5h51q-30 -200 -200 -200z" />
    <glyph glyph-name="Uring" unicode="&#x16e;" horiz-adv-x="670" 
d="M311 53q197 0 221 193l62 504h68l-64 -515q-7 -61 -32 -107t-56.5 -71.5t-71.5 -41.5t-71.5 -20.5t-63.5 -4.5t-62 4.5t-66.5 20.5t-61.5 41.5t-38.5 71.5t-6.5 107l64 515h68l-62 -504q-6 -51 4 -89t27.5 -57t46 -30.5t49.5 -14t46 -2.5zM418 921q94 0 85 -71t-103 -71
t-85 71t103 71zM406 828q44 0 47 22q2 11 -8.5 16.5t-32.5 5.5q-44 0 -47 -22q-2 -11 8.5 -16.5t32.5 -5.5z" />
    <glyph glyph-name="uring" unicode="&#x16f;" horiz-adv-x="500" 
d="M161 500l-45 -363q-6 -46 17.5 -65.5t72.5 -19.5q78 0 139 32l51 416h70l-61 -500h-39l-10 42q-77 -52 -158 -52q-170 0 -151 150l44 360h70zM303 702q-54 0 -61 -52q-6 -52 48 -52t60 52q7 52 -47 52zM284 549q-47 0 -72.5 25.5t-19.5 75.5q7 50 38.5 75.5t78.5 25.5
t72.5 -25.5t18.5 -75.5q-6 -50 -37.5 -75.5t-78.5 -25.5z" />
    <glyph glyph-name="Uhungarumlaut" unicode="&#x170;" horiz-adv-x="670" 
d="M311 53q197 0 221 193l62 504h68l-64 -515q-7 -61 -32 -107t-56.5 -71.5t-71.5 -41.5t-71.5 -20.5t-63.5 -4.5t-62 4.5t-66.5 20.5t-61.5 41.5t-38.5 71.5t-6.5 107l64 515h68l-62 -504q-6 -51 4 -89t27.5 -57t46 -30.5t49.5 -14t46 -2.5zM368 800h-50l62 100h90z
M488 800h-50l62 100h90z" />
    <glyph glyph-name="uhungarumlaut" unicode="&#x171;" horiz-adv-x="500" 
d="M161 500l-45 -363q-6 -46 17.5 -65.5t72.5 -19.5q78 0 139 32l51 416h70l-61 -500h-39l-10 42q-77 -52 -158 -52q-170 0 -151 150l44 360h70zM369 550h-50l75 200h80zM249 550h-50l75 200h80z" />
    <glyph glyph-name="Uogonek" unicode="&#x172;" horiz-adv-x="670" 
d="M311 53q197 0 221 193l62 504h68l-64 -515q-13 -106 -71 -161.5t-136 -73.5q-53 -27 -86.5 -65t-37.5 -77q-7 -57 47 -57q30 0 58 8l-6 -48q-33 -11 -72 -11q-46 0 -70.5 25.5t-19.5 69.5q11 84 93 145q-32 1 -61.5 6t-65 21t-59.5 41.5t-37 71t-6 105.5l64 515h68
l-62 -504q-6 -51 4 -89t27.5 -57t46 -30.5t49.5 -14t46 -2.5z" />
    <glyph glyph-name="uogonek" unicode="&#x173;" horiz-adv-x="500" 
d="M161 500l-45 -363q-6 -46 17.5 -65.5t72.5 -19.5q78 0 139 32l51 416h70l-61 -500q-53 -27 -86.5 -65t-37.5 -77q-7 -57 47 -57q30 0 58 8l-6 -48q-33 -11 -72 -11q-46 0 -70.5 25.5t-19.5 69.5q7 52 44 98t98 78l-4 21q-77 -52 -158 -52q-170 0 -151 150l44 360h70z" />
    <glyph glyph-name="Wcircumflex" unicode="&#x174;" horiz-adv-x="880" 
d="M464 750h76l88 -654l212 654h72l-258 -760h-73l-90 670l-256 -670h-73l-70 760h72l50 -654zM663 800h-56l-92 56l-106 -56h-56l127 100h80z" />
    <glyph glyph-name="wcircumflex" unicode="&#x175;" horiz-adv-x="700" 
d="M636 500h75l-204 -510h-52l-83 435l-191 -435h-52l-78 510h75l46 -392l172 392h74l76 -392zM572 550h-55l-113 141l-147 -141h-55l170 200h80z" />
    <glyph glyph-name="Ycircumflex" unicode="&#x176;" horiz-adv-x="670" 
d="M702 750l-325 -440l-38 -310h-68l38 310l-217 440h75l182 -385l278 385h75zM558 800h-56l-92 56l-106 -56h-56l127 100h80z" />
    <glyph glyph-name="ycircumflex" unicode="&#x177;" horiz-adv-x="500" 
d="M167 -261q-88 0 -146 27l7 60q82 -28 147 -28q38 0 66.5 11t43 24.5t25 40.5t13.5 41.5t7 44.5l8 71q-67 -41 -140 -41q-170 0 -151 150l44 360h70l-45 -363q-6 -46 17.5 -65.5t72.5 -19.5q78 0 139 32l51 416h70l-66 -540q-7 -52 -18.5 -87.5t-36 -68.5t-69 -49
t-109.5 -16zM469 550h-55l-113 141l-147 -141h-55l170 200h80z" />
    <glyph glyph-name="Ydieresis" unicode="&#x178;" horiz-adv-x="670" 
d="M702 750l-325 -440l-38 -310h-68l38 310l-217 440h75l182 -385l278 385h75zM264 850q0 21 14.5 35.5t35.5 14.5t35.5 -14.5t14.5 -35.5t-14.5 -35.5t-35.5 -14.5t-35.5 14.5t-14.5 35.5zM454 850q0 21 14.5 35.5t35.5 14.5t35.5 -14.5t14.5 -35.5t-14.5 -35.5
t-35.5 -14.5t-35.5 14.5t-14.5 35.5z" />
    <glyph glyph-name="Zacute" unicode="&#x179;" horiz-adv-x="610" 
d="M540 0h-530l5 46l506 643l-407 -2l8 63h495l-6 -46l-506 -643l442 2zM398 800h-50l62 100h90z" />
    <glyph glyph-name="zacute" unicode="&#x17a;" horiz-adv-x="450" 
d="M390 0h-390l5 45l342 396h-278l7 59h365l-6 -45l-341 -396h303zM287 550h-50l75 200h80z" />
    <glyph glyph-name="Zdotaccent" unicode="&#x17b;" horiz-adv-x="610" 
d="M540 0h-530l5 46l506 643l-407 -2l8 63h495l-6 -46l-506 -643l442 2zM329 850q0 21 14.5 35.5t35.5 14.5t35.5 -14.5t14.5 -35.5t-14.5 -35.5t-35.5 -14.5t-35.5 14.5t-14.5 35.5z" />
    <glyph glyph-name="zdotaccent" unicode="&#x17c;" horiz-adv-x="450" 
d="M390 0h-390l5 45l342 396h-278l7 59h365l-6 -45l-341 -396h303zM224 650q0 21 14.5 35.5t35.5 14.5t35.5 -14.5t14.5 -35.5t-14.5 -35.5t-35.5 -14.5t-35.5 14.5t-14.5 35.5z" />
    <glyph glyph-name="Zcaron" unicode="&#x17d;" horiz-adv-x="610" 
d="M540 0h-530l5 46l506 643l-407 -2l8 63h495l-6 -46l-506 -643l442 2zM230 900h56l92 -56l106 56h56l-127 -100h-80z" />
    <glyph glyph-name="zcaron" unicode="&#x17e;" horiz-adv-x="450" 
d="M390 0h-390l5 45l342 396h-278l7 59h365l-6 -45l-341 -396h303zM417 750h55l-170 -200h-80l-120 200h55l112 -141z" />
    <glyph glyph-name="Schwa" unicode="&#x18f;" horiz-adv-x="685" 
d="M76 375l5 47h491q8 127 -36.5 201t-150.5 74q-60 0 -112 -12.5t-125 -46.5l8 68q109 54 237 54q81 0 136.5 -30t81 -82.5t34 -122.5t-3.5 -150q-49 -385 -343 -385q-68 0 -115.5 22t-72 56.5t-34.5 87t-9 103.5t9 116zM306 53q113 0 176.5 82.5t84.5 223.5h-419
q-10 -65 -7.5 -120.5t16.5 -97t51.5 -65t97.5 -23.5z" />
    <glyph glyph-name="florin" unicode="&#x192;" horiz-adv-x="500" 
d="M342 635q93 0 147 -25l-7 -60q-65 23 -147 23q-50 0 -84.5 -26.5t-41.5 -76.5l-14 -115h238l-7 -61h-238l-52 -419h-67l52 419h-100l7 61h100l14 115q21 165 200 165z" />
    <glyph glyph-name="Khook" unicode="&#x198;" horiz-adv-x="593" 
d="M45 0l92 750h68l-45 -361q70 37 115 107q22 33 33.5 50.5t35 49.5t40.5 50t43 41t49 35t51.5 20.5t58.5 7.5l-9 -69q-24 0 -45 -5.5t-40.5 -19.5t-34.5 -26.5t-34 -37.5t-29.5 -40.5t-31.5 -47.5t-31 -46q-21 -30 -50 -57l263 -401h-89l-230 359q-39 -27 -74 -43
l-38 -316h-68z" />
    <glyph glyph-name="khook" unicode="&#x199;" horiz-adv-x="500" 
d="M324 760l-7 -59q-54 -7 -95 -34.5t-47 -79.5l-39 -311l254 224h94l-240 -206l206 -294h-87l-166 254l-71 -60l-23 -194h-68l73 596q6 49 41 87t80.5 56t94.5 21z" />
    <glyph glyph-name="Ezh" unicode="&#x1b7;" horiz-adv-x="640" 
d="M191 -197q275 0 307 257q8 64 -8 109t-40.5 67.5t-71.5 34.5t-78 14t-84 2h-54l7 56l338 346l-408 -2l8 63h496l-7 -55l-342 -347q51 0 95.5 -6.5t91 -25.5t77.5 -50t46.5 -84t7.5 -122q-10 -80 -42.5 -140.5t-72.5 -93.5t-93 -53.5t-95 -26.5t-86 -6q-51 0 -111.5 12
t-94.5 28l8 65q3 -1 28 -10t36.5 -12t36 -9t50 -8.5t55.5 -2.5z" />
    <glyph glyph-name="Acaron" unicode="&#x1cd;" horiz-adv-x="630" 
d="M72 0h-77l358 760h50l172 -760h-77l-44 210h-288zM364 646l-171 -377h249zM240 900h56l92 -56l106 56h56l-127 -100h-80z" />
    <glyph glyph-name="acaron" unicode="&#x1ce;" horiz-adv-x="535" 
d="M501 500l-61 -500h-39l-10 41q-88 -51 -163 -51q-112 0 -149.5 69.5t-23.5 190.5q15 121 70 190.5t167 69.5q86 0 150 -52l20 42h39zM236 52q80 0 144 32l41 332q-56 32 -136 32q-43 0 -73.5 -16t-47.5 -46.5t-25.5 -61.5t-13.5 -74q-7 -37 -5 -72.5t11 -63.5t35.5 -45
t69.5 -17zM457 750h55l-170 -200h-80l-120 200h55l112 -141z" />
    <glyph glyph-name="Icaron" unicode="&#x1cf;" horiz-adv-x="260" 
d="M135 0h-70l92 750h70zM55 900h56l92 -56l106 56h56l-127 -100h-80z" />
    <glyph glyph-name="icaron" unicode="&#x1d0;" horiz-adv-x="240" 
d="M159 -10q-56 0 -79.5 25.5t-16.5 84.5l49 400h68l-50 -408q-4 -26 4 -35.5t32 -9.5zM-8 750h55l112 -141l148 141h55l-170 -200h-80z" />
    <glyph glyph-name="Ocaron" unicode="&#x1d1;" horiz-adv-x="680" 
d="M316 53q53 0 93 17t66 44t44 70.5t27.5 87t17.5 103.5q11 67 8.5 126t-17 102.5t-55 68.5t-105.5 25q-53 0 -93 -17t-65.5 -44t-44 -70.5t-28 -87t-16.5 -103.5q-10 -92 -7 -163.5t46 -115t129 -43.5zM308 -10q-71 0 -120.5 22t-74.5 56.5t-36 87t-10 103t9 116.5
t19.5 116t35.5 103t58 87.5t88.5 56.5t125.5 22q51 0 91 -11.5t66.5 -30.5t44.5 -48t26.5 -60.5t11.5 -72.5t1 -78.5t-8 -83.5q-8 -66 -20 -116t-36 -103t-58 -87.5t-88.5 -56.5t-125.5 -22zM265 900h56l92 -56l106 56h56l-127 -100h-80z" />
    <glyph glyph-name="ocaron" unicode="&#x1d2;" horiz-adv-x="530" 
d="M475 250q-16 -128 -69 -194t-173 -66q-82 0 -126.5 33.5t-52 91t0.5 135.5q16 127 69 193.5t173 66.5t157 -66.5t21 -193.5zM405 250q6 58 5.5 102t-29.5 70t-91 26q-39 0 -67 -10.5t-44.5 -26t-27.5 -43.5t-16 -53t-10 -65q-6 -58 -5.5 -102t29.5 -70t92 -26q47 0 78 14
t48 44t24.5 60t13.5 80zM457 750h55l-170 -200h-80l-120 200h55l112 -141z" />
    <glyph glyph-name="Ucaron" unicode="&#x1d3;" horiz-adv-x="670" 
d="M311 53q197 0 221 193l62 504h68l-64 -515q-7 -61 -32 -107t-56.5 -71.5t-71.5 -41.5t-71.5 -20.5t-63.5 -4.5t-62 4.5t-66.5 20.5t-61.5 41.5t-38.5 71.5t-6.5 107l64 515h68l-62 -504q-6 -51 4 -89t27.5 -57t46 -30.5t49.5 -14t46 -2.5zM260 900h56l92 -56l106 56h56
l-127 -100h-80z" />
    <glyph glyph-name="ucaron" unicode="&#x1d4;" horiz-adv-x="500" 
d="M161 500l-45 -363q-6 -46 17.5 -65.5t72.5 -19.5q78 0 139 32l51 416h70l-61 -500h-39l-10 42q-77 -52 -158 -52q-170 0 -151 150l44 360h70zM439 750h55l-170 -200h-80l-120 200h55l112 -141z" />
    <glyph glyph-name="Adieresismacron" unicode="&#x1de;" horiz-adv-x="630" 
d="M72 0h-77l358 760h50l172 -760h-77l-44 210h-288zM364 646l-171 -377h249zM262 935l8 60h274l-8 -60h-274zM244 850q0 21 14.5 35.5t35.5 14.5t35.5 -14.5t14.5 -35.5t-14.5 -35.5t-35.5 -14.5t-35.5 14.5t-14.5 35.5zM434 850q0 21 14.5 35.5t35.5 14.5t35.5 -14.5
t14.5 -35.5t-14.5 -35.5t-35.5 -14.5t-35.5 14.5t-14.5 35.5z" />
    <glyph glyph-name="adieresismacron" unicode="&#x1df;" horiz-adv-x="535" 
d="M501 500l-61 -500h-39l-10 41q-88 -51 -163 -51q-112 0 -149.5 69.5t-23.5 190.5q15 121 70 190.5t167 69.5q86 0 150 -52l20 42h39zM236 52q80 0 144 32l41 332q-56 32 -136 32q-43 0 -73.5 -16t-47.5 -46.5t-25.5 -61.5t-13.5 -74q-7 -37 -5 -72.5t11 -63.5t35.5 -45
t69.5 -17zM185 710l7 60h274l-7 -60h-274zM165 615q0 21 14.5 35.5t35.5 14.5t35.5 -14.5t14.5 -35.5t-14.5 -35.5t-35.5 -14.5t-35.5 14.5t-14.5 35.5zM355 615q0 21 14.5 35.5t35.5 14.5t35.5 -14.5t14.5 -35.5t-14.5 -35.5t-35.5 -14.5t-35.5 14.5t-14.5 35.5z" />
    <glyph glyph-name="AEmacron" unicode="&#x1e2;" horiz-adv-x="975" 
d="M529 687l10 -265h362l-7 -63h-351l11 -296h338l-7 -63h-396l-10 210h-287l-126 -210h-76l468 750h519l-8 -63h-440zM462 655l-233 -386h249zM420 820l8 60h274l-8 -60h-274z" />
    <glyph glyph-name="aemacron" unicode="&#x1e3;" horiz-adv-x="835" 
d="M329 620l7 60h274l-7 -60h-274zM377 224h-151q-60 0 -86.5 -21.5t-31.5 -61.5q-12 -89 109 -89q87 0 146 45l19 15q-10 46 -5 111v1zM453 275h140q69 0 97.5 22.5t33.5 64.5q5 41 -17.5 63.5t-91.5 22.5q-79 0 -114.5 -46.5t-47.5 -126.5zM558 -10q-112 0 -154 68
l-34 -24q-65 -44 -163 -44q-96 0 -137.5 41.5t-32.5 109.5q8 65 53 102.5t148 37.5h146l8 62q7 56 -20 80.5t-98 24.5q-83 0 -162 -25l8 60q65 27 161 27q134 0 169 -69q59 69 172 69q97 0 136.5 -43.5t31.5 -104.5t-57 -102.5t-147 -41.5h-140q-3 -37 0.5 -63.5t15 -51.5
t37.5 -38t67 -13q100 0 168 28l-7 -60q-71 -30 -169 -30z" />
    <glyph glyph-name="Gstroke" unicode="&#x1e4;" horiz-adv-x="680" 
d="M323 -10q-81 0 -136.5 30t-81 82.5t-34 122.5t4.5 150q10 84 33.5 151t63 121t102 83.5t143.5 29.5q127 0 205 -42l-9 -68q-59 26 -102.5 36.5t-101.5 10.5q-116 0 -180 -87.5t-82 -234.5q-12 -95 0 -164.5t58 -113.5t125 -44q117 0 165 22l13 105h-127l7 60h127l11 91
h-157l8 63h225l-19 -154h80l-7 -60h-80l-19 -149q-92 -41 -235 -41z" />
    <glyph glyph-name="gstroke" unicode="&#x1e5;" horiz-adv-x="535" 
d="M420 -116q-20 -70 -69.5 -107.5t-148.5 -37.5q-120 0 -190 40l9 69q87 -50 189 -50q108 0 138 86h-133l7 51h139q2 9 4 25l8 71q-76 -41 -145 -41q-112 0 -149.5 69.5t-23.5 190.5q15 121 70 190.5t167 69.5q86 0 150 -52l20 42h39l-66 -540q-2 -18 -4 -25h90l-7 -51h-94
zM236 52q80 0 144 32l41 332q-56 32 -136 32q-43 0 -73.5 -16t-47.5 -46.5t-25.5 -61.5t-13.5 -74q-7 -37 -5 -72.5t11 -63.5t35.5 -45t69.5 -17z" />
    <glyph glyph-name="Gcaron" unicode="&#x1e6;" horiz-adv-x="660" 
d="M323 -10q-81 0 -136.5 30t-81 82.5t-34 122.5t4.5 150q10 84 33.5 151t63 121t102 83.5t143.5 29.5q127 0 205 -42l-9 -68q-59 26 -102.5 36.5t-101.5 10.5q-116 0 -180 -87.5t-82 -234.5q-12 -95 0 -164.5t58 -113.5t125 -44q117 0 165 22l31 256h-157l8 63h225
l-45 -363q-92 -41 -235 -41zM280 900h56l92 -56l106 56h56l-127 -100h-80z" />
    <glyph glyph-name="gcaron" unicode="&#x1e7;" horiz-adv-x="535" 
d="M228 -10q-112 0 -149.5 69.5t-23.5 190.5q15 121 70 190.5t167 69.5q86 0 150 -52l20 42h39l-66 -540q-7 -52 -18.5 -87.5t-36 -68.5t-69 -49t-109.5 -16q-120 0 -190 40l9 69q87 -50 189 -50q38 0 66.5 11t43 24.5t25 40.5t13.5 41.5t7 44.5l8 71q-76 -41 -145 -41z
M236 52q80 0 144 32l41 332q-56 32 -136 32q-43 0 -73.5 -16t-47.5 -46.5t-25.5 -61.5t-13.5 -74q-7 -37 -5 -72.5t11 -63.5t35.5 -45t69.5 -17zM452 750h55l-170 -200h-80l-120 200h55l112 -141z" />
    <glyph glyph-name="Kcaron" unicode="&#x1e8;" horiz-adv-x="595" 
d="M222 363l-74 -75l-35 -288h-68l92 750h68l-46 -374l359 374h88l-334 -336l272 -414h-89zM215 900h56l92 -56l106 56h56l-127 -100h-80z" />
    <glyph glyph-name="kcaron" unicode="&#x1e9;" horiz-adv-x="500" 
d="M484 500l-240 -206l206 -294h-87l-166 254l-71 -60l-23 -194h-68l92 750h68l-59 -474l254 224h94zM24 900h56l92 -56l106 56h56l-127 -100h-80z" />
    <glyph glyph-name="Oogonek" unicode="&#x1ea;" horiz-adv-x="680" 
d="M636 375q-7 -56 -16.5 -101t-27.5 -92.5t-42.5 -81.5t-63.5 -61t-88 -39q-53 -27 -86.5 -65t-37.5 -77q-7 -57 47 -57q30 0 58 8l-6 -48q-33 -11 -72 -11q-46 0 -70.5 25.5t-19.5 69.5q11 84 93 145q-59 0 -102.5 15t-69.5 43t-41.5 61.5t-20 80t-3 89t8.5 96.5
q8 66 19.5 116t35.5 103t58 87.5t88.5 56.5t125.5 22q51 0 91 -11.5t66.5 -30.5t44.5 -48t26.5 -60.5t11.5 -72.5t1 -78.5t-8 -83.5zM316 53q53 0 93 17t66 44t44 70.5t27.5 87t17.5 103.5q11 67 8.5 126t-17 102.5t-55 68.5t-105.5 25q-53 0 -93 -17t-65.5 -44t-44 -70.5
t-28 -87t-16.5 -103.5q-10 -92 -7 -163.5t46 -115t129 -43.5z" />
    <glyph glyph-name="oogonek" unicode="&#x1eb;" horiz-adv-x="530" 
d="M475 250q-12 -103 -48.5 -166t-111.5 -84q-53 -27 -86.5 -65t-37.5 -77q-7 -57 47 -57q30 0 58 8l-6 -48q-33 -11 -72 -11q-46 0 -70.5 25.5t-19.5 69.5q11 84 93 145q-112 4 -146.5 70t-19.5 190q16 127 69 193.5t173 66.5t157 -66.5t21 -193.5zM405 250q6 58 5.5 102
t-29.5 70t-91 26q-39 0 -67 -10.5t-44.5 -26t-27.5 -43.5t-16 -53t-10 -65q-6 -58 -5.5 -102t29.5 -70t92 -26q47 0 78 14t48 44t24.5 60t13.5 80z" />
    <glyph glyph-name="Oogonekmacron" unicode="&#x1ec;" horiz-adv-x="680" 
d="M636 375q-7 -56 -16.5 -101t-27.5 -92.5t-42.5 -81.5t-63.5 -61t-88 -39q-53 -27 -86.5 -65t-37.5 -77q-7 -57 47 -57q30 0 58 8l-6 -48q-33 -11 -72 -11q-46 0 -70.5 25.5t-19.5 69.5q11 84 93 145q-59 0 -102.5 15t-69.5 43t-41.5 61.5t-20 80t-3 89t8.5 96.5
q8 66 19.5 116t35.5 103t58 87.5t88.5 56.5t125.5 22q51 0 91 -11.5t66.5 -30.5t44.5 -48t26.5 -60.5t11.5 -72.5t1 -78.5t-8 -83.5zM316 53q53 0 93 17t66 44t44 70.5t27.5 87t17.5 103.5q11 67 8.5 126t-17 102.5t-55 68.5t-105.5 25q-53 0 -93 -17t-65.5 -44t-44 -70.5
t-28 -87t-16.5 -103.5q-10 -92 -7 -163.5t46 -115t129 -43.5zM273 820l8 60h274l-8 -60h-274z" />
    <glyph glyph-name="oogonekmacron" unicode="&#x1ed;" horiz-adv-x="530" 
d="M475 250q-12 -103 -48.5 -166t-111.5 -84q-53 -27 -86.5 -65t-37.5 -77q-7 -57 47 -57q30 0 58 8l-6 -48q-33 -11 -72 -11q-46 0 -70.5 25.5t-19.5 69.5q11 84 93 145q-112 4 -146.5 70t-19.5 190q16 127 69 193.5t173 66.5t157 -66.5t21 -193.5zM405 250q6 58 5.5 102
t-29.5 70t-91 26q-39 0 -67 -10.5t-44.5 -26t-27.5 -43.5t-16 -53t-10 -65q-6 -58 -5.5 -102t29.5 -70t92 -26q47 0 78 14t48 44t24.5 60t13.5 80zM174 620l7 60h274l-7 -60h-274z" />
    <glyph glyph-name="Ezhcaron" unicode="&#x1ee;" horiz-adv-x="640" 
d="M191 -197q275 0 307 257q8 64 -8 109t-40.5 67.5t-71.5 34.5t-78 14t-84 2h-54l7 56l338 346l-408 -2l8 63h496l-7 -55l-342 -347q51 0 95.5 -6.5t91 -25.5t77.5 -50t46.5 -84t7.5 -122q-10 -80 -42.5 -140.5t-72.5 -93.5t-93 -53.5t-95 -26.5t-86 -6q-51 0 -111.5 12
t-94.5 28l8 65q3 -1 28 -10t36.5 -12t36 -9t50 -8.5t55.5 -2.5zM215 900h56l92 -56l106 56h56l-127 -100h-80z" />
    <glyph glyph-name="ezhcaron" unicode="&#x1ef;" horiz-adv-x="500" 
d="M165 133h-68l6 49l271 259h-315l7 59h405l-6 -49l-265 -253q59 0 100.5 -8t78.5 -29.5t52 -66t7 -111.5q-29 -243 -305 -243q-101 0 -161 32l7 62q80 -32 162 -32q203 0 225 181q6 53 -5.5 85t-46 45.5t-64 16.5t-85.5 3zM442 750h55l-170 -200h-80l-120 200h55l112 -141
z" />
    <glyph glyph-name="jcaron" unicode="&#x1f0;" horiz-adv-x="230" 
d="M-108 -260l7 59q54 7 94 34t47 80l72 587h68l-73 -596q-6 -49 -41.5 -87t-80.5 -56t-93 -21zM-8 750h55l112 -141l148 141h55l-170 -200h-80z" />
    <glyph glyph-name="Gacute" unicode="&#x1f4;" horiz-adv-x="660" 
d="M323 -10q-81 0 -136.5 30t-81 82.5t-34 122.5t4.5 150q10 84 33.5 151t63 121t102 83.5t143.5 29.5q127 0 205 -42l-9 -68q-59 26 -102.5 36.5t-101.5 10.5q-116 0 -180 -87.5t-82 -234.5q-12 -95 0 -164.5t58 -113.5t125 -44q117 0 165 22l31 256h-157l8 63h225
l-45 -363q-92 -41 -235 -41zM448 800h-50l62 100h90z" />
    <glyph glyph-name="gacute" unicode="&#x1f5;" horiz-adv-x="535" 
d="M228 -10q-112 0 -149.5 69.5t-23.5 190.5q15 121 70 190.5t167 69.5q86 0 150 -52l20 42h39l-66 -540q-7 -52 -18.5 -87.5t-36 -68.5t-69 -49t-109.5 -16q-120 0 -190 40l9 69q87 -50 189 -50q38 0 66.5 11t43 24.5t25 40.5t13.5 41.5t7 44.5l8 71q-76 -41 -145 -41z
M236 52q80 0 144 32l41 332q-56 32 -136 32q-43 0 -73.5 -16t-47.5 -46.5t-25.5 -61.5t-13.5 -74q-7 -37 -5 -72.5t11 -63.5t35.5 -45t69.5 -17zM322 550h-50l75 200h80z" />
    <glyph glyph-name="Aringacute" unicode="&#x1fa;" horiz-adv-x="630" 
d="M72 0h-77l358 760h50l172 -760h-77l-44 210h-288zM364 646l-171 -377h249zM295 850q3 26 20 47l63 78h59l-51 -54h12q42 0 65.5 -16.5t19.5 -54.5q-9 -71 -103 -71t-85 71zM386 828q44 0 47 22q2 11 -8.5 16.5t-32.5 5.5q-44 0 -47 -22q-2 -11 8.5 -16.5t32.5 -5.5z" />
    <glyph glyph-name="aringacute" unicode="&#x1fb;" horiz-adv-x="535" 
d="M501 500l-61 -500h-39l-10 41q-88 -51 -163 -51q-112 0 -149.5 69.5t-23.5 190.5q15 121 70 190.5t167 69.5q86 0 150 -52l20 42h39zM236 52q80 0 144 32l41 332q-56 32 -136 32q-43 0 -73.5 -16t-47.5 -46.5t-25.5 -61.5t-13.5 -74q-7 -37 -5 -72.5t11 -63.5t35.5 -45
t69.5 -17zM302 549q-47 0 -72.5 25.5t-19.5 75.5q4 27 13 43l74 145h70l-55 -87h15q47 0 72.5 -25.5t18.5 -75.5q-6 -50 -37.5 -75.5t-78.5 -25.5zM321 702q-54 0 -61 -52q-6 -52 48 -52t60 52q7 52 -47 52z" />
    <glyph glyph-name="AEacute" unicode="&#x1fc;" horiz-adv-x="975" 
d="M529 687l10 -265h362l-7 -63h-351l11 -296h338l-7 -63h-396l-10 210h-287l-126 -210h-76l468 750h519l-8 -63h-440zM462 655l-233 -386h249zM558 800h-50l62 100h90z" />
    <glyph glyph-name="aeacute" unicode="&#x1fd;" horiz-adv-x="835" 
d="M482 550h-50l75 200h100zM377 224h-151q-60 0 -86.5 -21.5t-31.5 -61.5q-12 -89 109 -89q87 0 146 45l19 15q-10 46 -5 111v1zM453 275h140q69 0 97.5 22.5t33.5 64.5q5 41 -17.5 63.5t-91.5 22.5q-79 0 -114.5 -46.5t-47.5 -126.5zM558 -10q-112 0 -154 68l-34 -24
q-65 -44 -163 -44q-96 0 -137.5 41.5t-32.5 109.5q8 65 53 102.5t148 37.5h146l8 62q7 56 -20 80.5t-98 24.5q-83 0 -162 -25l8 60q65 27 161 27q134 0 169 -69q59 69 172 69q97 0 136.5 -43.5t31.5 -104.5t-57 -102.5t-147 -41.5h-140q-3 -37 0.5 -63.5t15 -51.5t37.5 -38
t67 -13q100 0 168 28l-7 -60q-71 -30 -169 -30z" />
    <glyph glyph-name="Oslashacute" unicode="&#x1fe;" horiz-adv-x="660" 
d="M308 -10q-109 0 -167 49l-28 -39h-63l57 78q-57 88 -31 297q8 66 19.5 116t35.5 103t58 87.5t88.5 56.5t125.5 22q106 0 167 -50l29 40h63l-58 -79q56 -87 32 -296q-8 -66 -20 -116t-36 -103t-58 -87.5t-88.5 -56.5t-125.5 -22zM316 53q53 0 93 17t66 44t44 70.5t27.5 87
t17.5 103.5q19 158 -9 229l-370 -506q42 -45 131 -45zM148 375q-21 -159 7 -230l371 506q-43 46 -131 46q-53 0 -93 -17t-65.5 -44t-44 -70.5t-28 -87t-16.5 -103.5zM433 800h-50l62 100h100z" />
    <glyph glyph-name="oslashacute" unicode="&#x1ff;" horiz-adv-x="530" 
d="M35 0l43 54q-40 61 -23 196q16 127 69 193.5t173 66.5q77 0 121 -30l16 20h62l-44 -55q40 -61 23 -195q-16 -128 -69 -194t-173 -66q-78 0 -121 29l-15 -19h-62zM125 250q-11 -100 0 -136l250 312q-30 22 -85 22q-39 0 -67 -10.5t-44.5 -26t-27.5 -43.5t-16 -53t-10 -65z
M405 250q12 93 -1 135l-250 -312q30 -21 87 -21q47 0 78 14t48 44t24.5 60t13.5 80zM327 550h-50l75 200h80z" />
    <glyph glyph-name="Ainvertedbreve" unicode="&#x202;" horiz-adv-x="630" 
d="M72 0h-77l358 760h50l172 -760h-77l-44 210h-288zM364 646l-171 -377h249zM396 910q71 0 104 -27t28 -83h-51q2 29 -20.5 42t-67.5 13q-91 0 -100 -55h-51q18 110 158 110z" />
    <glyph glyph-name="ainvertedbreve" unicode="&#x203;" horiz-adv-x="535" 
d="M501 500l-61 -500h-39l-10 41q-88 -51 -163 -51q-112 0 -149.5 69.5t-23.5 190.5q15 121 70 190.5t167 69.5q86 0 150 -52l20 42h39zM236 52q80 0 144 32l41 332q-56 32 -136 32q-43 0 -73.5 -16t-47.5 -46.5t-25.5 -61.5t-13.5 -74q-7 -37 -5 -72.5t11 -63.5t35.5 -45
t69.5 -17zM327 750q169 0 150 -200h-51q7 73 -15.5 106.5t-91.5 33.5t-100 -33.5t-41 -106.5h-51q28 200 200 200z" />
    <glyph glyph-name="Einvertedbreve" unicode="&#x206;" 
d="M496 422l-7 -63h-332l-37 -296h367l-7 -63h-435l92 750h435l-8 -63h-367l-33 -265h332zM381 910q71 0 104 -27t28 -83h-51q2 29 -20.5 42t-67.5 13q-91 0 -100 -55h-51q18 110 158 110z" />
    <glyph glyph-name="einvertedbreve" unicode="&#x207;" horiz-adv-x="510" 
d="M327 750q169 0 150 -200h-51q7 73 -15.5 106.5t-91.5 33.5t-100 -33.5t-41 -106.5h-51q28 200 200 200zM128 275h140q69 0 97.5 22.5t33.5 64.5q5 41 -17.5 63.5t-91.5 22.5q-79 0 -114.5 -46.5t-47.5 -126.5zM261 218h-140q-3 -37 0.5 -63.5t15 -51.5t37.5 -38t67 -13
q100 0 168 28l-7 -60q-71 -30 -169 -30q-61 0 -101.5 20.5t-57.5 55.5t-22.5 82.5t3.5 101.5q7 58 22 102t42 81.5t72 57t106 19.5q97 0 136.5 -43.5t31.5 -104.5t-57 -102.5t-147 -41.5z" />
    <glyph glyph-name="Iinvertedbreve" unicode="&#x20a;" horiz-adv-x="260" 
d="M135 0h-70l92 750h70zM211 910q71 0 104 -27t28 -83h-51q2 29 -20.5 42t-67.5 13q-91 0 -100 -55h-51q18 110 158 110z" />
    <glyph glyph-name="iinvertedbreve" unicode="&#x20b;" horiz-adv-x="240" 
d="M159 -10q-56 0 -79.5 25.5t-16.5 84.5l49 400h68l-50 -408q-4 -26 4 -35.5t32 -9.5zM177 750q169 0 150 -200h-51q7 73 -15.5 106.5t-91.5 33.5t-100 -33.5t-41 -106.5h-51q28 200 200 200z" />
    <glyph glyph-name="Oinvertedbreve" unicode="&#x20e;" horiz-adv-x="680" 
d="M316 53q53 0 93 17t66 44t44 70.5t27.5 87t17.5 103.5q11 67 8.5 126t-17 102.5t-55 68.5t-105.5 25q-53 0 -93 -17t-65.5 -44t-44 -70.5t-28 -87t-16.5 -103.5q-10 -92 -7 -163.5t46 -115t129 -43.5zM308 -10q-71 0 -120.5 22t-74.5 56.5t-36 87t-10 103t9 116.5
t19.5 116t35.5 103t58 87.5t88.5 56.5t125.5 22q51 0 91 -11.5t66.5 -30.5t44.5 -48t26.5 -60.5t11.5 -72.5t1 -78.5t-8 -83.5q-8 -66 -20 -116t-36 -103t-58 -87.5t-88.5 -56.5t-125.5 -22zM421 910q71 0 104 -27t28 -83h-51q2 29 -20.5 42t-67.5 13q-91 0 -100 -55h-51
q18 110 158 110z" />
    <glyph glyph-name="oinvertedbreve" unicode="&#x20f;" horiz-adv-x="530" 
d="M475 250q-16 -128 -69 -194t-173 -66q-82 0 -126.5 33.5t-52 91t0.5 135.5q16 127 69 193.5t173 66.5t157 -66.5t21 -193.5zM405 250q6 58 5.5 102t-29.5 70t-91 26q-39 0 -67 -10.5t-44.5 -26t-27.5 -43.5t-16 -53t-10 -65q-6 -58 -5.5 -102t29.5 -70t92 -26q47 0 78 14
t48 44t24.5 60t13.5 80zM327 750q169 0 150 -200h-51q7 73 -15.5 106.5t-91.5 33.5t-100 -33.5t-41 -106.5h-51q28 200 200 200z" />
    <glyph glyph-name="Rinvertedbreve" unicode="&#x212;" horiz-adv-x="621" 
d="M153 328l-40 -328h-68l92 750h235q134 0 183 -54t36 -157q-10 -80 -48 -130t-115 -69l138 -340h-79l-128 329q-11 -1 -33 -1h-173zM197 687l-36 -296h185q91 0 126.5 38.5t44.5 109.5t-17.5 109.5t-117.5 38.5h-185zM371 910q71 0 104 -27t28 -83h-51q2 29 -20.5 42
t-67.5 13q-91 0 -100 -55h-51q18 110 158 110z" />
    <glyph glyph-name="rinvertedbreve" unicode="&#x213;" horiz-adv-x="363" 
d="M372 505l-8 -65q-24 8 -59 8q-90 0 -149 -32l-51 -416h-70l61 500h39l10 -42q76 52 167 52q28 0 60 -5zM272 750q169 0 150 -200h-51q7 73 -15.5 106.5t-91.5 33.5t-100 -33.5t-41 -106.5h-51q28 200 200 200z" />
    <glyph glyph-name="Uinvertedbreve" unicode="&#x216;" horiz-adv-x="670" 
d="M311 53q197 0 221 193l62 504h68l-64 -515q-7 -61 -32 -107t-56.5 -71.5t-71.5 -41.5t-71.5 -20.5t-63.5 -4.5t-62 4.5t-66.5 20.5t-61.5 41.5t-38.5 71.5t-6.5 107l64 515h68l-62 -504q-6 -51 4 -89t27.5 -57t46 -30.5t49.5 -14t46 -2.5zM416 910q71 0 104 -27t28 -83
h-51q2 29 -20.5 42t-67.5 13q-91 0 -100 -55h-51q18 110 158 110z" />
    <glyph glyph-name="uinvertedbreve" unicode="&#x217;" horiz-adv-x="500" 
d="M161 500l-45 -363q-6 -46 17.5 -65.5t72.5 -19.5q78 0 139 32l51 416h70l-61 -500h-39l-10 42q-77 -52 -158 -52q-170 0 -151 150l44 360h70zM309 750q169 0 150 -200h-51q7 73 -15.5 106.5t-91.5 33.5t-100 -33.5t-41 -106.5h-51q28 200 200 200z" />
    <glyph glyph-name="Scommaaccent" unicode="&#x218;" horiz-adv-x="595" 
d="M360 697q-102 0 -146.5 -39.5t-53.5 -107.5q-4 -32 2 -53.5t16 -34.5t35.5 -22t46.5 -12.5t64 -9.5q59 -8 97.5 -19.5t69 -33.5t42 -58.5t4.5 -90.5q-5 -42 -22.5 -79t-50.5 -71.5t-92.5 -55t-139.5 -20.5q-51 0 -110.5 12t-94.5 28l8 65q4 -1 23 -8t28 -10t29.5 -8.5
t36.5 -8t40 -5t49 -2.5q203 0 223 163q9 77 -22.5 104t-128.5 40q-135 17 -184.5 57t-37.5 134q4 29 13 55.5t29.5 55.5t50 50t77.5 34.5t108 13.5q119 0 191 -35l-9 -67q-86 39 -191 39zM194 -50h92l-92 -200h-50z" />
    <glyph glyph-name="scommaaccent" unicode="&#x219;" horiz-adv-x="460" 
d="M132 362q-4 -35 16.5 -52t88.5 -23q100 -9 133 -43t25 -100t-61.5 -110t-158.5 -44q-86 0 -146 25l8 60q61 -23 147 -23q131 0 143 91q5 39 -14.5 59.5t-87.5 26.5q-101 9 -134 42t-25 91q8 62 58 105t147 43q86 0 141 -25l-7 -60q-67 23 -142 23q-69 0 -97.5 -22.5
t-33.5 -63.5zM149 -50h80l-80 -200h-50z" />
    <glyph glyph-name="dotlessj" unicode="&#x237;" horiz-adv-x="230" 
d="M-108 -260l7 59q54 7 94 34t47 80l72 587h68l-73 -596q-6 -49 -41.5 -87t-80.5 -56t-93 -21z" />
    <glyph glyph-name="schwa" unicode="&#x259;" horiz-adv-x="510" 
d="M455 250q-7 -58 -21.5 -102t-42 -81.5t-72.5 -57t-106 -19.5t-98.5 20.5t-50.5 55.5t-15.5 82.5t6.5 101.5l4 32h330q4 33 0 63t-14.5 53t-37 36.5t-67.5 13.5q-100 0 -169 -28l7 60q72 30 169 30q61 0 101.5 -20.5t57.5 -55.5t22.5 -82.5t-3.5 -101.5zM221 52
q79 0 113.5 46t47.5 127h-260q-4 -33 -5 -53t2.5 -45.5t14 -40t32.5 -24.5t55 -10z" />
    <glyph glyph-name="ezh" unicode="&#x292;" horiz-adv-x="500" 
d="M165 133h-68l6 49l271 259h-315l7 59h405l-6 -49l-265 -253q59 0 100.5 -8t78.5 -29.5t52 -66t7 -111.5q-29 -243 -305 -243q-101 0 -161 32l7 62q80 -32 162 -32q203 0 225 181q6 53 -5.5 85t-46 45.5t-64 16.5t-85.5 3z" />
    <glyph glyph-name="circumflex" unicode="&#x2c6;" 
d="M507 550h-55l-113 141l-147 -141h-55l170 200h80z" />
    <glyph glyph-name="caron" unicode="&#x2c7;" 
d="M477 750h55l-170 -200h-80l-120 200h55l112 -141z" />
    <glyph glyph-name="breve" unicode="&#x2d8;" 
d="M322 550q-171 0 -150 200h51q-8 -73 14.5 -106.5t91.5 -33.5t100 33.5t42 106.5h51q-30 -200 -200 -200z" />
    <glyph glyph-name="dotaccent" unicode="&#x2d9;" 
d="M284 650q0 21 14.5 35.5t35.5 14.5t35.5 -14.5t14.5 -35.5t-14.5 -35.5t-35.5 -14.5t-35.5 14.5t-14.5 35.5z" />
    <glyph glyph-name="ring" unicode="&#x2da;" 
d="M341 702q-54 0 -61 -52q-6 -52 48 -52t60 52q7 52 -47 52zM322 549q-47 0 -72.5 25.5t-19.5 75.5q7 50 38.5 75.5t78.5 25.5t72.5 -25.5t18.5 -75.5q-6 -50 -37.5 -75.5t-78.5 -25.5z" />
    <glyph glyph-name="ogonek" unicode="&#x2db;" 
d="M309 34l17 -34q-53 -27 -86.5 -65t-37.5 -77q-7 -57 47 -57q30 0 58 8l-6 -48q-33 -11 -72 -11q-46 0 -70.5 25.5t-19.5 69.5q8 57 52 107t118 82z" />
    <glyph glyph-name="tilde" unicode="&#x2dc;" 
d="M410 644q21 0 33.5 9.5t16 18.5t5.5 23h56q-3 -52 -36 -81t-87 -29q-28 0 -48.5 11t-31 24.5t-26 24.5t-33.5 11q-50 0 -55 -51h-56q2 52 35 81t87 29q28 0 49 -11t31.5 -24.5t26 -24.5t33.5 -11z" />
    <glyph glyph-name="hungarumlaut" unicode="&#x2dd;" 
d="M407 550h-50l75 200h80zM287 550h-50l75 200h80z" />
    <glyph glyph-name="commaabovecmb" unicode="&#x313;" 
d="M355 550h-80l81 200h50z" />
    <glyph glyph-name="uni0323" unicode="&#x323;" 
d="M186 -150q0 21 14.5 35.5t35.5 14.5t35.5 -14.5t14.5 -35.5t-14.5 -35.5t-35.5 -14.5t-35.5 14.5t-14.5 35.5z" />
    <glyph glyph-name="uni0329" unicode="&#x329;" 
d="M218 -50h60l-24 -200h-60z" />
    <glyph glyph-name="ohm" unicode="&#x3a9;" horiz-adv-x="700" 
d="M405 698q-112 0 -184.5 -69t-87.5 -191q-13 -107 36 -226.5t115 -175.5l-4 -36h-272l7 61l171 -2q-60 67 -97.5 173.5t-25.5 205.5q19 151 110 236.5t240 85.5t219 -86t51 -236q-12 -99 -75.5 -205.5t-139.5 -173.5l171 2l-7 -61h-272l4 36q80 57 158 176t91 226
q15 122 -40.5 191t-167.5 69z" />
    <glyph glyph-name="ohm" unicode="&#x2126;" horiz-adv-x="700" 
d="M405 698q-112 0 -184.5 -69t-87.5 -191q-13 -107 36 -226.5t115 -175.5l-4 -36h-272l7 61l171 -2q-60 67 -97.5 173.5t-25.5 205.5q19 151 110 236.5t240 85.5t219 -86t51 -236q-12 -99 -75.5 -205.5t-139.5 -173.5l171 2l-7 -61h-272l4 36q80 57 158 176t91 226
q15 122 -40.5 191t-167.5 69z" />
    <glyph glyph-name="pi" unicode="&#x3c0;" horiz-adv-x="646" 
d="M581 45l-7 -55q-68 -4 -112 29t-38 102l40 324h-171l-62 -285q-19 -86 -66.5 -128t-156.5 -42l8 62q66 0 101 25t47 83l60 285h-120l7 55h526l-7 -55h-96l-39 -322q-3 -44 18 -61t68 -17z" />
    <glyph glyph-name="uni0E3F" unicode="&#xe3f;" horiz-adv-x="539" 
d="M454 687l-65 -126q63 -7 87 -39t17 -89q-4 -29 -21.5 -55t-41.5 -38q33 -14 49 -49t11 -77q-19 -151 -183 -151h-98l-57 -125h-75l63 125h-88l62 500h208l57 124h75zM419 214q5 43 -12.5 66.5t-74.5 23.5h-184l-22 -180h184q57 0 80.5 23.5t28.5 66.5zM155 365h186
q45 0 63 17t22 51q4 35 -10.5 52t-63.5 17h-180z" />
    <glyph glyph-name="Ddotbelow" unicode="&#x1e0c;" horiz-adv-x="655" 
d="M249 0h-204l92 750h204q89 0 149 -28.5t87.5 -79t36.5 -119t-3 -148.5q-11 -84 -34 -149t-64.5 -117.5t-108 -80.5t-155.5 -28zM197 687l-77 -624h140q239 0 279 312q38 312 -202 312h-140zM201 -150q0 21 14.5 35.5t35.5 14.5t35.5 -14.5t14.5 -35.5t-14.5 -35.5
t-35.5 -14.5t-35.5 14.5t-14.5 35.5z" />
    <glyph glyph-name="ddotbelow" unicode="&#x1e0d;" horiz-adv-x="535" 
d="M292 510q78 0 135 -41l35 281h70l-92 -750h-39l-10 41q-88 -51 -163 -51q-112 0 -149.5 69.5t-23.5 190.5q15 121 70 190.5t167 69.5zM285 448q-43 0 -73.5 -16t-47.5 -46.5t-25.5 -61.5t-13.5 -74q-7 -37 -5 -72.5t11 -63.5t35.5 -45t69.5 -17q80 0 144 32l41 332
q-56 32 -136 32zM171 -150q0 21 14.5 35.5t35.5 14.5t35.5 -14.5t14.5 -35.5t-14.5 -35.5t-35.5 -14.5t-35.5 14.5t-14.5 35.5z" />
    <glyph glyph-name="Dcedilla" unicode="&#x1e10;" horiz-adv-x="655" 
d="M249 0h-204l92 750h204q89 0 149 -28.5t87.5 -79t36.5 -119t-3 -148.5q-11 -84 -34 -149t-64.5 -117.5t-108 -80.5t-155.5 -28zM197 687l-77 -624h140q239 0 279 312q38 312 -202 312h-140zM208 -95l10 45q69 -7 103 -36.5t29 -74.5q-5 -41 -37.5 -65t-84.5 -24
q-62 0 -92 18l6 46q34 -13 75 -13q67 0 71 36q4 30 -18.5 46.5t-61.5 21.5z" />
    <glyph glyph-name="dcedilla" unicode="&#x1e11;" horiz-adv-x="535" 
d="M292 510q78 0 135 -41l35 281h70l-92 -750h-39l-10 41q-88 -51 -163 -51q-112 0 -149.5 69.5t-23.5 190.5q15 121 70 190.5t167 69.5zM285 448q-43 0 -73.5 -16t-47.5 -46.5t-25.5 -61.5t-13.5 -74q-7 -37 -5 -72.5t11 -63.5t35.5 -45t69.5 -17q80 0 144 32l41 332
q-56 32 -136 32zM188 -95l10 45q69 -7 103 -36.5t29 -74.5q-5 -41 -37.5 -65t-84.5 -24q-62 0 -92 18l6 46q34 -13 75 -13q67 0 71 36q4 30 -18.5 46.5t-61.5 21.5z" />
    <glyph glyph-name="Hdotbelow" unicode="&#x1e24;" horiz-adv-x="660" 
d="M555 0h-68l44 359h-374l-44 -359h-68l92 750h68l-41 -328h374l41 328h68zM231 -150q0 21 14.5 35.5t35.5 14.5t35.5 -14.5t14.5 -35.5t-14.5 -35.5t-35.5 -14.5t-35.5 14.5t-14.5 35.5z" />
    <glyph glyph-name="hdotbelow" unicode="&#x1e25;" horiz-adv-x="500" 
d="M384 363q6 47 -17 66t-72 19q-82 0 -141 -32l-51 -416h-68l92 750h68l-35 -281q69 41 142 41q87 0 123.5 -38t28.5 -112l-44 -360h-70zM154 -150q0 21 14.5 35.5t35.5 14.5t35.5 -14.5t14.5 -35.5t-14.5 -35.5t-35.5 -14.5t-35.5 14.5t-14.5 35.5z" />
    <glyph glyph-name="Ldotbelow" unicode="&#x1e36;" horiz-adv-x="530" 
d="M205 750l-85 -687h347l-7 -63h-415l92 750h68zM186 -150q0 21 14.5 35.5t35.5 14.5t35.5 -14.5t14.5 -35.5t-14.5 -35.5t-35.5 -14.5t-35.5 14.5t-14.5 35.5z" />
    <glyph glyph-name="ldotbelow" unicode="&#x1e37;" horiz-adv-x="240" 
d="M159 -10q-56 0 -79.5 25.5t-16.5 84.5l80 650h68l-81 -658q-4 -26 4 -35.5t32 -9.5zM36 -150q0 21 14.5 35.5t35.5 14.5t35.5 -14.5t14.5 -35.5t-14.5 -35.5t-35.5 -14.5t-35.5 14.5t-14.5 35.5z" />
    <glyph glyph-name="Ldotbelowmacron" unicode="&#x1e38;" horiz-adv-x="530" 
d="M205 750l-85 -687h347l-7 -63h-415l92 750h68zM42 820l8 60h274l-8 -60h-274zM186 -150q0 21 14.5 35.5t35.5 14.5t35.5 -14.5t14.5 -35.5t-14.5 -35.5t-35.5 -14.5t-35.5 14.5t-14.5 35.5z" />
    <glyph glyph-name="ldotbelowmacron" unicode="&#x1e39;" horiz-adv-x="240" 
d="M159 -10q-56 0 -79.5 25.5t-16.5 84.5l80 650h68l-81 -658q-4 -26 4 -35.5t32 -9.5zM48 820l8 60h274l-8 -60h-274zM36 -150q0 21 14.5 35.5t35.5 14.5t35.5 -14.5t14.5 -35.5t-14.5 -35.5t-35.5 -14.5t-35.5 14.5t-14.5 35.5z" />
    <glyph glyph-name="Mdotbelow" unicode="&#x1e42;" horiz-adv-x="840" 
d="M752 661l-320 -546h-56l-186 546l-77 -661h-68l92 750h92l185 -552l321 552h92l-92 -750h-68zM321 -150q0 21 14.5 35.5t35.5 14.5t35.5 -14.5t14.5 -35.5t-14.5 -35.5t-35.5 -14.5t-35.5 14.5t-14.5 35.5z" />
    <glyph glyph-name="mdotbelow" unicode="&#x1e43;" horiz-adv-x="785" 
d="M625 0l44 363q6 46 -16 65.5t-68 19.5q-73 0 -141 -33q3 -24 0 -52l-44 -363h-70l44 363q6 46 -16 65.5t-68 19.5q-72 0 -134 -30l-51 -418h-70l61 500h39l10 -41q76 51 152 51q101 0 133 -57q90 57 162 57q165 0 147 -150l-44 -360h-70zM296 -150q0 21 14.5 35.5
t35.5 14.5t35.5 -14.5t14.5 -35.5t-14.5 -35.5t-35.5 -14.5t-35.5 14.5t-14.5 35.5z" />
    <glyph glyph-name="Ndotaccent" unicode="&#x1e44;" horiz-adv-x="670" 
d="M565 0h-51l-328 611l-73 -611h-68l92 750h51l328 -611l73 611h68zM359 850q0 21 14.5 35.5t35.5 14.5t35.5 -14.5t14.5 -35.5t-14.5 -35.5t-35.5 -14.5t-35.5 14.5t-14.5 35.5z" />
    <glyph glyph-name="ndotaccent" unicode="&#x1e45;" horiz-adv-x="500" 
d="M340 0l44 363q6 47 -17 66t-72 19q-80 0 -139 -32l-51 -416h-70l61 500h39l10 -42q76 52 157 52q87 0 123.5 -38t28.5 -112l-44 -360h-70zM254 650q0 21 14.5 35.5t35.5 14.5t35.5 -14.5t14.5 -35.5t-14.5 -35.5t-35.5 -14.5t-35.5 14.5t-14.5 35.5z" />
    <glyph glyph-name="Ndotbelow" unicode="&#x1e46;" horiz-adv-x="670" 
d="M565 0h-51l-328 611l-73 -611h-68l92 750h51l328 -611l73 611h68zM236 -150q0 21 14.5 35.5t35.5 14.5t35.5 -14.5t14.5 -35.5t-14.5 -35.5t-35.5 -14.5t-35.5 14.5t-14.5 35.5z" />
    <glyph glyph-name="ndotbelow" unicode="&#x1e47;" horiz-adv-x="500" 
d="M340 0l44 363q6 47 -17 66t-72 19q-80 0 -139 -32l-51 -416h-70l61 500h39l10 -42q76 52 157 52q87 0 123.5 -38t28.5 -112l-44 -360h-70zM151 -150q0 21 14.5 35.5t35.5 14.5t35.5 -14.5t14.5 -35.5t-14.5 -35.5t-35.5 -14.5t-35.5 14.5t-14.5 35.5z" />
    <glyph glyph-name="Rdotbelow" unicode="&#x1e5a;" horiz-adv-x="621" 
d="M153 328l-40 -328h-68l92 750h235q134 0 183 -54t36 -157q-10 -80 -48 -130t-115 -69l138 -340h-79l-128 329q-11 -1 -33 -1h-173zM197 687l-36 -296h185q91 0 126.5 38.5t44.5 109.5t-17.5 109.5t-117.5 38.5h-185zM210 -150q0 21 14.5 35.5t35.5 14.5t35.5 -14.5
t14.5 -35.5t-14.5 -35.5t-35.5 -14.5t-35.5 14.5t-14.5 35.5z" />
    <glyph glyph-name="rdotbelow" unicode="&#x1e5b;" horiz-adv-x="363" 
d="M372 505l-8 -65q-24 8 -59 8q-90 0 -149 -32l-51 -416h-70l61 500h39l10 -42q76 52 167 52q28 0 60 -5zM1 -150q0 21 14.5 35.5t35.5 14.5t35.5 -14.5t14.5 -35.5t-14.5 -35.5t-35.5 -14.5t-35.5 14.5t-14.5 35.5z" />
    <glyph glyph-name="Rdotbelowmacron" unicode="&#x1e5c;" horiz-adv-x="621" 
d="M153 328l-40 -328h-68l92 750h235q134 0 183 -54t36 -157q-10 -80 -48 -130t-115 -69l138 -340h-79l-128 329q-11 -1 -33 -1h-173zM197 687l-36 -296h185q91 0 126.5 38.5t44.5 109.5t-17.5 109.5t-117.5 38.5h-185zM223 820l8 60h274l-8 -60h-274zM210 -150
q0 21 14.5 35.5t35.5 14.5t35.5 -14.5t14.5 -35.5t-14.5 -35.5t-35.5 -14.5t-35.5 14.5t-14.5 35.5z" />
    <glyph glyph-name="rdotbelowmacron" unicode="&#x1e5d;" horiz-adv-x="363" 
d="M372 505l-8 -65q-24 8 -59 8q-90 0 -149 -32l-51 -416h-70l61 500h39l10 -42q76 52 167 52q28 0 60 -5zM119 620l7 60h274l-7 -60h-274zM1 -150q0 21 14.5 35.5t35.5 14.5t35.5 -14.5t14.5 -35.5t-14.5 -35.5t-35.5 -14.5t-35.5 14.5t-14.5 35.5z" />
    <glyph glyph-name="Sdotbelow" unicode="&#x1e62;" horiz-adv-x="595" 
d="M360 697q-102 0 -146.5 -39.5t-53.5 -107.5q-4 -32 2 -53.5t16 -34.5t35.5 -22t46.5 -12.5t64 -9.5q59 -8 97.5 -19.5t69 -33.5t42 -58.5t4.5 -90.5q-5 -42 -22.5 -79t-50.5 -71.5t-92.5 -55t-139.5 -20.5q-51 0 -110.5 12t-94.5 28l8 65q4 -1 23 -8t28 -10t29.5 -8.5
t36.5 -8t40 -5t49 -2.5q203 0 223 163q9 77 -22.5 104t-128.5 40q-135 17 -184.5 57t-37.5 134q4 29 13 55.5t29.5 55.5t50 50t77.5 34.5t108 13.5q119 0 191 -35l-9 -67q-86 39 -191 39zM175 -150q0 21 14.5 35.5t35.5 14.5t35.5 -14.5t14.5 -35.5t-14.5 -35.5t-35.5 -14.5
t-35.5 14.5t-14.5 35.5z" />
    <glyph glyph-name="sdotbelow" unicode="&#x1e63;" horiz-adv-x="460" 
d="M132 362q-4 -35 16.5 -52t88.5 -23q100 -9 133 -43t25 -100t-61.5 -110t-158.5 -44q-86 0 -146 25l8 60q61 -23 147 -23q131 0 143 91q5 39 -14.5 59.5t-87.5 26.5q-101 9 -134 42t-25 91q8 62 58 105t147 43q86 0 141 -25l-7 -60q-67 23 -142 23q-69 0 -97.5 -22.5
t-33.5 -63.5zM116 -150q0 21 14.5 35.5t35.5 14.5t35.5 -14.5t14.5 -35.5t-14.5 -35.5t-35.5 -14.5t-35.5 14.5t-14.5 35.5z" />
    <glyph glyph-name="Tdotbelow" unicode="&#x1e6c;" horiz-adv-x="560" 
d="M575 687h-207l-84 -687h-68l84 687h-207l8 63h482zM181 -150q0 21 14.5 35.5t35.5 14.5t35.5 -14.5t14.5 -35.5t-14.5 -35.5t-35.5 -14.5t-35.5 14.5t-14.5 35.5z" />
    <glyph glyph-name="tdotbelow" unicode="&#x1e6d;" horiz-adv-x="375" 
d="M301 50l-7 -56q-17 -4 -46 -4q-69 0 -110 33.5t-33 102.5l39 319h-100l4 31l104 29l16 135l73 20l-20 -160h155l-7 -55h-155l-38 -311q-11 -86 85 -86q14 0 40 2zM114 -150q0 21 14.5 35.5t35.5 14.5t35.5 -14.5t14.5 -35.5t-14.5 -35.5t-35.5 -14.5t-35.5 14.5
t-14.5 35.5z" />
    <glyph glyph-name="Wgrave" unicode="&#x1e80;" horiz-adv-x="880" 
d="M464 750h76l88 -654l212 654h72l-258 -760h-73l-90 670l-256 -670h-73l-70 760h72l50 -654zM533 800h-50l-78 100h90z" />
    <glyph glyph-name="wgrave" unicode="&#x1e81;" horiz-adv-x="700" 
d="M636 500h75l-204 -510h-52l-83 435l-191 -435h-52l-78 510h75l46 -392l172 392h74l76 -392zM412 550h-50l-55 200h80z" />
    <glyph glyph-name="Wacute" unicode="&#x1e82;" horiz-adv-x="880" 
d="M464 750h76l88 -654l212 654h72l-258 -760h-73l-90 670l-256 -670h-73l-70 760h72l50 -654zM533 800h-50l62 100h90z" />
    <glyph glyph-name="wacute" unicode="&#x1e83;" horiz-adv-x="700" 
d="M636 500h75l-204 -510h-52l-83 435l-191 -435h-52l-78 510h75l46 -392l172 392h74l76 -392zM412 550h-50l75 200h80z" />
    <glyph glyph-name="Wdieresis" unicode="&#x1e84;" horiz-adv-x="880" 
d="M464 750h76l88 -654l212 654h72l-258 -760h-73l-90 670l-256 -670h-73l-70 760h72l50 -654zM369 850q0 21 14.5 35.5t35.5 14.5t35.5 -14.5t14.5 -35.5t-14.5 -35.5t-35.5 -14.5t-35.5 14.5t-14.5 35.5zM559 850q0 21 14.5 35.5t35.5 14.5t35.5 -14.5t14.5 -35.5
t-14.5 -35.5t-35.5 -14.5t-35.5 14.5t-14.5 35.5z" />
    <glyph glyph-name="wdieresis" unicode="&#x1e85;" horiz-adv-x="700" 
d="M636 500h75l-204 -510h-52l-83 435l-191 -435h-52l-78 510h75l46 -392l172 392h74l76 -392zM254 650q0 21 14.5 35.5t35.5 14.5t35.5 -14.5t14.5 -35.5t-14.5 -35.5t-35.5 -14.5t-35.5 14.5t-14.5 35.5zM444 650q0 21 14.5 35.5t35.5 14.5t35.5 -14.5t14.5 -35.5
t-14.5 -35.5t-35.5 -14.5t-35.5 14.5t-14.5 35.5z" />
    <glyph glyph-name="Idotbelow" unicode="&#x1eca;" horiz-adv-x="260" 
d="M135 0h-70l92 750h70zM31 -150q0 21 14.5 35.5t35.5 14.5t35.5 -14.5t14.5 -35.5t-14.5 -35.5t-35.5 -14.5t-35.5 14.5t-14.5 35.5z" />
    <glyph glyph-name="idotbelow" unicode="&#x1ecb;" horiz-adv-x="240" 
d="M159 -10q-56 0 -79.5 25.5t-16.5 84.5l49 400h68l-50 -408q-4 -26 4 -35.5t32 -9.5zM21 -150q0 21 14.5 35.5t35.5 14.5t35.5 -14.5t14.5 -35.5t-14.5 -35.5t-35.5 -14.5t-35.5 14.5t-14.5 35.5zM114 650q0 21 14.5 35.5t35.5 14.5t35.5 -14.5t14.5 -35.5t-14.5 -35.5
t-35.5 -14.5t-35.5 14.5t-14.5 35.5z" />
    <glyph glyph-name="Odotbelow" unicode="&#x1ecc;" horiz-adv-x="680" 
d="M316 53q53 0 93 17t66 44t44 70.5t27.5 87t17.5 103.5q11 67 8.5 126t-17 102.5t-55 68.5t-105.5 25q-53 0 -93 -17t-65.5 -44t-44 -70.5t-28 -87t-16.5 -103.5q-10 -92 -7 -163.5t46 -115t129 -43.5zM308 -10q-71 0 -120.5 22t-74.5 56.5t-36 87t-10 103t9 116.5
t19.5 116t35.5 103t58 87.5t88.5 56.5t125.5 22q51 0 91 -11.5t66.5 -30.5t44.5 -48t26.5 -60.5t11.5 -72.5t1 -78.5t-8 -83.5q-8 -66 -20 -116t-36 -103t-58 -87.5t-88.5 -56.5t-125.5 -22zM241 -150q0 21 14.5 35.5t35.5 14.5t35.5 -14.5t14.5 -35.5t-14.5 -35.5
t-35.5 -14.5t-35.5 14.5t-14.5 35.5z" />
    <glyph glyph-name="odotbelow" unicode="&#x1ecd;" horiz-adv-x="530" 
d="M475 250q-16 -128 -69 -194t-173 -66q-82 0 -126.5 33.5t-52 91t0.5 135.5q16 127 69 193.5t173 66.5t157 -66.5t21 -193.5zM405 250q6 58 5.5 102t-29.5 70t-91 26q-39 0 -67 -10.5t-44.5 -26t-27.5 -43.5t-16 -53t-10 -65q-6 -58 -5.5 -102t29.5 -70t92 -26q47 0 78 14
t48 44t24.5 60t13.5 80zM166 -150q3 21 19 35.5t37 14.5t34 -14.5t10 -35.5q-2 -21 -18.5 -35.5t-37.5 -14.5t-33.5 14.5t-10.5 35.5z" />
    <glyph glyph-name="Udotbelow" unicode="&#x1ee4;" horiz-adv-x="670" 
d="M311 53q197 0 221 193l62 504h68l-64 -515q-7 -61 -32 -107t-56.5 -71.5t-71.5 -41.5t-71.5 -20.5t-63.5 -4.5t-62 4.5t-66.5 20.5t-61.5 41.5t-38.5 71.5t-6.5 107l64 515h68l-62 -504q-6 -51 4 -89t27.5 -57t46 -30.5t49.5 -14t46 -2.5zM236 -150q0 21 14.5 35.5
t35.5 14.5t35.5 -14.5t14.5 -35.5t-14.5 -35.5t-35.5 -14.5t-35.5 14.5t-14.5 35.5z" />
    <glyph glyph-name="udotbelow" unicode="&#x1ee5;" horiz-adv-x="500" 
d="M161 500l-45 -363q-6 -46 17.5 -65.5t72.5 -19.5q78 0 139 32l51 416h70l-61 -500h-39l-10 42q-77 -52 -158 -52q-170 0 -151 150l44 360h70zM148 -150q0 21 14.5 35.5t35.5 14.5t35.5 -14.5t14.5 -35.5t-14.5 -35.5t-35.5 -14.5t-35.5 14.5t-14.5 35.5z" />
    <glyph glyph-name="Ygrave" unicode="&#x1ef2;" horiz-adv-x="670" 
d="M702 750l-325 -440l-38 -310h-68l38 310l-217 440h75l182 -385l278 385h75zM428 800h-50l-78 100h90z" />
    <glyph glyph-name="ygrave" unicode="&#x1ef3;" horiz-adv-x="500" 
d="M167 -261q-88 0 -146 27l7 60q82 -28 147 -28q38 0 66.5 11t43 24.5t25 40.5t13.5 41.5t7 44.5l8 71q-67 -41 -140 -41q-170 0 -151 150l44 360h70l-45 -363q-6 -46 17.5 -65.5t72.5 -19.5q78 0 139 32l51 416h70l-66 -540q-7 -52 -18.5 -87.5t-36 -68.5t-69 -49
t-109.5 -16zM309 550h-50l-55 200h80z" />
    <glyph glyph-name="Ytilde" unicode="&#x1ef8;" horiz-adv-x="670" 
d="M702 750l-325 -440l-38 -310h-68l38 310l-217 440h75l182 -385l278 385h75zM485 849q50 0 55 51h56q-3 -52 -36 -81t-87 -29q-31 0 -55 15t-44.5 30.5t-40.5 15.5q-50 0 -55 -51h-56q2 52 35 81t87 29q31 0 55.5 -15t45 -30.5t40.5 -15.5z" />
    <glyph glyph-name="ytilde" unicode="&#x1ef9;" horiz-adv-x="500" 
d="M167 -261q-88 0 -146 27l7 60q82 -28 147 -28q38 0 66.5 11t43 24.5t25 40.5t13.5 41.5t7 44.5l8 71q-67 -41 -140 -41q-170 0 -151 150l44 360h70l-45 -363q-6 -46 17.5 -65.5t72.5 -19.5q78 0 139 32l51 416h70l-66 -540q-7 -52 -18.5 -87.5t-36 -68.5t-69 -49
t-109.5 -16zM372 644q21 0 33.5 9.5t16 18.5t5.5 23h56q-3 -52 -36 -81t-87 -29q-28 0 -48.5 11t-31 24.5t-26 24.5t-33.5 11q-50 0 -55 -51h-56q2 52 35 81t87 29q28 0 49 -11t31.5 -24.5t26 -24.5t33.5 -11z" />
    <glyph glyph-name="enspace" unicode="&#x2002;" horiz-adv-x="500" 
 />
    <glyph glyph-name="emspace" unicode="&#x2003;" horiz-adv-x="1000" 
 />
    <glyph glyph-name="threeperemspace" unicode="&#x2004;" horiz-adv-x="333" 
 />
    <glyph glyph-name="fourperemspace" unicode="&#x2005;" horiz-adv-x="250" 
 />
    <glyph glyph-name="sixperemspace" unicode="&#x2006;" horiz-adv-x="167" 
 />
    <glyph glyph-name="figurespace" unicode="&#x2007;" 
 />
    <glyph glyph-name="punctuationspace" unicode="&#x2008;" horiz-adv-x="190" 
 />
    <glyph glyph-name="thinspace" unicode="&#x2009;" horiz-adv-x="100" 
 />
    <glyph glyph-name="hairspace" unicode="&#x200a;" horiz-adv-x="50" 
 />
    <glyph glyph-name="zerowidthspace" unicode="&#x200b;" horiz-adv-x="0" 
 />
    <glyph glyph-name="figuredash" unicode="&#x2012;" 
d="M536 338l-8 -66h-480l8 66h480z" />
    <glyph glyph-name="endash" unicode="&#x2013;" horiz-adv-x="500" 
d="M466 338l-8 -66h-410l8 66h410z" />
    <glyph glyph-name="emdash" unicode="&#x2014;" horiz-adv-x="1000" 
d="M966 338l-8 -66h-910l8 66h910z" />
    <glyph glyph-name="afii00208" unicode="&#x2015;" horiz-adv-x="1500" 
d="M1466 338l-8 -66h-1410l8 66h1410z" />
    <glyph glyph-name="quoteleft" unicode="&#x2018;" horiz-adv-x="150" 
d="M135 750h44l-60 -250h-95z" />
    <glyph glyph-name="quoteright" unicode="&#x2019;" horiz-adv-x="150" 
d="M108 500h-44l60 250h95z" />
    <glyph glyph-name="quotesinglbase" unicode="&#x201a;" horiz-adv-x="150" 
d="M15 -175h-43l59 250h95z" />
    <glyph glyph-name="quotedblleft" unicode="&#x201c;" horiz-adv-x="300" 
d="M285 750h44l-60 -250h-95zM135 750h44l-60 -250h-95z" />
    <glyph glyph-name="quotedblright" unicode="&#x201d;" horiz-adv-x="300" 
d="M108 500h-44l60 250h95zM258 500h-44l60 250h95z" />
    <glyph glyph-name="quotedblbase" unicode="&#x201e;" horiz-adv-x="300" 
d="M15 -175h-43l59 250h95zM165 -175h-44l60 250h95z" />
    <glyph glyph-name="dagger" unicode="&#x2020;" horiz-adv-x="360" 
d="M198 551h38v-250h-100zM243 609h-38l-2 141h78zM194 599l-5 -38l-143 -20l10 78zM247 561l5 38l144 20l-10 -78z" />
    <glyph glyph-name="daggerdbl" unicode="&#x2021;" horiz-adv-x="360" 
d="M174 352h38v-250h-100zM247 561l5 38l144 20l-10 -78zM243 609h-38l-2 141h78zM223 362l5 38l143 20l-10 -78zM170 400l-5 -38l-144 -20l10 78zM194 599l-5 -38l-143 -20l10 78zM198 551h38l1 -71l-18 -70h-38l-2 70z" />
    <glyph glyph-name="bullet" unicode="&#x2022;" horiz-adv-x="370" 
d="M66 375q0 56 39.5 95.5t95.5 39.5t95.5 -39.5t39.5 -95.5t-39.5 -95.5t-95.5 -39.5t-95.5 39.5t-39.5 95.5z" />
    <glyph glyph-name="ellipsis" unicode="&#x2026;" horiz-adv-x="960" 
d="M74 40q0 21 14.5 35.5t35.5 14.5t35.5 -14.5t14.5 -35.5t-14.5 -35.5t-35.5 -14.5t-35.5 14.5t-14.5 35.5zM404 40q0 21 14.5 35.5t35.5 14.5t35.5 -14.5t14.5 -35.5t-14.5 -35.5t-35.5 -14.5t-35.5 14.5t-14.5 35.5zM734 40q0 21 14.5 35.5t35.5 14.5t35.5 -14.5
t14.5 -35.5t-14.5 -35.5t-35.5 -14.5t-35.5 14.5t-14.5 35.5z" />
    <glyph glyph-name="perthousand" unicode="&#x2030;" horiz-adv-x="1343" 
d="M223 265q-171 0 -148 185t193 185q172 0 149 -185t-194 -185zM736 360q171 0 148 -185t-194 -185t-148 185t194 185zM1136 360q171 0 148 -185t-194 -185t-148 185t194 185zM259 0h-77l518 625h77zM230 325q57 0 86 29t37 96t-13.5 96t-78.5 29t-85.5 -29t-36.5 -96
t13 -96t78 -29zM1128 300q-57 0 -85.5 -29t-36.5 -96t13.5 -96t78.5 -29t85.5 29t36.5 96t-13.5 96t-78.5 29zM728 300q-57 0 -85.5 -29t-36.5 -96t13.5 -96t78.5 -29t85.5 29t36.5 96t-13.5 96t-78.5 29z" />
    <glyph glyph-name="guilsinglleft" unicode="&#x2039;" horiz-adv-x="275" 
d="M36 217l8 66l207 140l-8 -66l-139 -107l113 -107l-8 -67z" />
    <glyph glyph-name="guilsinglright" unicode="&#x203a;" horiz-adv-x="275" 
d="M239 282l-8 -66l-207 -140l8 66l139 107l-113 107l8 67z" />
    <glyph glyph-name="fraction" unicode="&#x2044;" horiz-adv-x="447" 
d="M-33 0h-77l622 750h77z" />
    <glyph glyph-name="uni2070" unicode="&#x2070;" horiz-adv-x="466" 
d="M251 393q125 0 144 153q18 152 -107 152q-124 0 -142 -152q-19 -153 105 -153zM243 331q-194 0 -166 215q26 214 219 214t167 -214q-28 -215 -220 -215z" />
    <glyph glyph-name="uni2074" unicode="&#x2074;" horiz-adv-x="423" 
d="M344 459l-15 -118h-65l15 118h-233l5 41l282 260h48l-30 -240h85l-7 -61h-85zM151 520h135l17 139z" />
    <glyph glyph-name="uni2075" unicode="&#x2075;" horiz-adv-x="414" 
d="M216 392h1q116 0 125 70q5 37 -17 51.5t-85 14.5h-157l28 222h321l-8 -61h-256l-12 -102q33 3 95 3q96 0 132 -31.5t27 -96.5q-15 -131 -203 -131q-107 0 -159 22l7 62q76 -23 161 -23z" />
    <glyph glyph-name="uni2076" unicode="&#x2076;" horiz-adv-x="437" 
d="M303 698q-131 0 -153 -139q47 44 133 44q87 0 123 -35t28 -99q-8 -65 -56 -101.5t-135 -36.5q-189 0 -162 212q26 217 230 217q89 0 141 -22l-7 -61q-81 21 -142 21zM368 469q5 36 -18.5 53.5t-77.5 17.5q-93 0 -126 -61q10 -87 105 -87q108 0 117 77z" />
    <glyph glyph-name="uni2077" unicode="&#x2077;" horiz-adv-x="375" 
d="M185 341h-79l234 348h-271l8 61h345l-6 -46z" />
    <glyph glyph-name="uni2078" unicode="&#x2078;" horiz-adv-x="411" 
d="M247 586q87 0 93 56q4 25 -13 40.5t-66 15.5q-86 0 -94 -56q-3 -26 13.5 -41t66.5 -15zM216 331q-90 0 -126 34.5t-29 93.5q4 36 24.5 64.5t48.5 39.5q-38 22 -32 79q7 57 46 87.5t121 30.5q81 0 112 -30.5t24 -87.5q-3 -27 -17 -48.5t-33 -30.5q26 -11 38.5 -39.5
t8.5 -64.5q-16 -128 -186 -128zM224 392q103 0 110 69q9 67 -94 67q-102 0 -111 -67q-3 -31 18.5 -50t76.5 -19z" />
    <glyph glyph-name="uni2079" unicode="&#x2079;" horiz-adv-x="437" 
d="M222 393q131 0 153 139q-47 -44 -133 -44q-87 0 -123 35t-28 99q8 65 56 101.5t135 36.5q187 0 162 -212q-26 -217 -230 -217q-89 0 -141 22l7 61q81 -21 142 -21zM157 622q-5 -36 18.5 -53.5t77.5 -17.5q93 0 126 61q-10 87 -105 87q-108 0 -117 -77z" />
    <glyph glyph-name="uni207A" unicode="&#x207a;" horiz-adv-x="390" 
d="M246 396h-66l14 117h-117l9 66h117l14 117h66l-14 -117h117l-9 -66h-117z" />
    <glyph glyph-name="uni207B" unicode="&#x207b;" horiz-adv-x="390" 
d="M77 513l9 66h300l-9 -66h-300z" />
    <glyph glyph-name="uni207C" unicode="&#x207c;" horiz-adv-x="390" 
d="M69 447l8 66h300l-8 -66h-300zM86 579l8 66h300l-8 -66h-300z" />
    <glyph glyph-name="uni207D" unicode="&#x207d;" horiz-adv-x="160" 
d="M126 546q-16 -128 34 -225h-70q-49 94 -33 225q16 130 88 225h70q-30 -40 -55.5 -100t-33.5 -125z" />
    <glyph glyph-name="uni207E" unicode="&#x207e;" horiz-adv-x="160" 
d="M108 546q15 132 -35 225h70q50 -92 34 -225q-16 -132 -89 -225h-70q73 94 90 225z" />
    <glyph glyph-name="n.superior" unicode="&#x207f;" horiz-adv-x="285" 
d="M82 591h33l7 -19q39 26 82 26q89 0 79 -80l-22 -177h-58l22 173q4 36 -35 36q-34 0 -58 -14l-24 -195h-57z" />
    <glyph glyph-name="uni2080" unicode="&#x2080;" horiz-adv-x="466" 
d="M209 52q125 0 144 153q18 152 -107 152q-124 0 -142 -152q-19 -153 105 -153zM201 -10q-192 0 -166 215q26 214 219 214t167 -214q-26 -215 -220 -215z" />
    <glyph glyph-name="uni2081" unicode="&#x2081;" horiz-adv-x="290" 
d="M203 419h31l-51 -419h-68l42 348l-108 -3l4 32z" />
    <glyph glyph-name="uni2082" unicode="&#x2082;" horiz-adv-x="416" 
d="M346 0h-341l6 50q185 113 233.5 152t54.5 85q4 33 -18.5 51t-76.5 18q-59 0 -137 -22l7 61q65 24 137 24q89 0 125 -36.5t29 -96.5q-3 -20 -11.5 -38.5t-30 -39.5t-35.5 -33.5t-53.5 -37.5t-56 -35t-69.5 -42h244z" />
    <glyph glyph-name="uni2083" unicode="&#x2083;" horiz-adv-x="430" 
d="M175 -10q-107 0 -159 22l8 62q74 -23 160 -23q119 0 127 68q5 37 -12.5 51.5t-69.5 14.5h-117l7 58h116q43 0 61 14t22 45q3 26 -21.5 40.5t-77.5 14.5q-73 0 -156 -20l7 61q56 21 156 21q85 0 124.5 -29.5t32.5 -87.5q-4 -30 -19.5 -51t-33.5 -29q25 -10 39.5 -36.5
t9.5 -67.5q-7 -59 -59 -93.5t-145 -34.5z" />
    <glyph glyph-name="uni2084" unicode="&#x2084;" horiz-adv-x="423" 
d="M302 118l-14 -118h-65l14 118h-233l5 41l282 260h48l-30 -240h85l-7 -61h-85zM109 179h135l18 139z" />
    <glyph glyph-name="uni2085" unicode="&#x2085;" horiz-adv-x="414" 
d="M174 51h1q118 0 125 70q5 37 -17 51.5t-85 14.5h-157l28 222h321l-8 -61h-256l-12 -102q33 3 95 3q96 0 132 -31.5t27 -96.5q-15 -131 -203 -131q-107 0 -159 22l8 62q74 -23 160 -23z" />
    <glyph glyph-name="uni2086" unicode="&#x2086;" horiz-adv-x="437" 
d="M261 357q-131 0 -153 -139q49 44 133 44q87 0 123 -35t28 -99q-8 -65 -56 -101.5t-135 -36.5q-187 0 -162 212q26 217 230 217q89 0 141 -22l-7 -61q-81 21 -142 21zM326 128q5 36 -18.5 53.5t-77.5 17.5q-93 0 -126 -61q10 -87 105 -87q108 0 117 77z" />
    <glyph glyph-name="uni2087" unicode="&#x2087;" horiz-adv-x="375" 
d="M144 0h-79l233 348h-271l8 61h345l-6 -46z" />
    <glyph glyph-name="uni2088" unicode="&#x2088;" horiz-adv-x="411" 
d="M206 245q50 0 69.5 15t22.5 41q4 25 -13 40.5t-66 15.5q-86 0 -94 -56q-3 -26 14 -41t67 -15zM174 -10q-90 0 -126 34.5t-29 93.5q4 36 24.5 64.5t48.5 39.5q-38 22 -32 79q7 57 46 87.5t121 30.5q81 0 112 -30.5t24 -87.5q-3 -27 -17 -48.5t-33 -30.5q26 -11 38.5 -39.5
t8.5 -64.5q-16 -128 -186 -128zM182 51q103 0 110 69q9 67 -94 67q-102 0 -111 -67q-3 -31 18.5 -50t76.5 -19z" />
    <glyph glyph-name="uni2089" unicode="&#x2089;" horiz-adv-x="437" 
d="M180 52q131 0 153 139q-47 -44 -132 -44q-87 0 -123.5 35t-28.5 99q8 65 56 101.5t135 36.5q188 0 162 -212q-26 -217 -230 -217q-89 0 -141 22l7 61q81 -21 142 -21zM115 281q-5 -36 18.5 -53.5t77.5 -17.5q93 0 126 61q-10 87 -105 87q-108 0 -117 -77z" />
    <glyph glyph-name="uni208A" unicode="&#x208a;" horiz-adv-x="390" 
d="M204 55h-66l15 117h-117l8 66h117l14 117h66l-14 -117h117l-8 -66h-117z" />
    <glyph glyph-name="uni208B" unicode="&#x208b;" horiz-adv-x="390" 
d="M36 172l8 66h300l-8 -66h-300z" />
    <glyph glyph-name="uni208C" unicode="&#x208c;" horiz-adv-x="390" 
d="M28 106l8 66h300l-8 -66h-300zM44 238l8 66h300l-8 -66h-300z" />
    <glyph glyph-name="uni208D" unicode="&#x208d;" horiz-adv-x="160" 
d="M84 205q-16 -128 34 -225h-70q-49 94 -33 225q16 130 88 225h70q-30 -40 -55.5 -100t-33.5 -125z" />
    <glyph glyph-name="uni208E" unicode="&#x208e;" horiz-adv-x="160" 
d="M66 205q15 132 -35 225h70q50 -92 34 -225q-16 -132 -89 -225h-70q73 94 90 225z" />
    <glyph glyph-name="uni20A1" unicode="&#x20a1;" horiz-adv-x="515" 
d="M87 -62h-57l76 180q-59 69 -43 195q13 105 72 175.5t161 81.5l50 118h57l-49 -116q14 0 46 -4l51 120h57l-55 -129q19 -5 41 -14l-7 -60q-33 10 -58 16l-162 -386h12q87 0 166 25l-8 -60q-65 -27 -165 -27q-21 0 -31 1l-49 -116h-57l53 126q-21 7 -40 18zM176 149
q14 -13 38 -23l161 383q-30 2 -47 2zM133 313q-8 -62 8 -110l127 299q-60 -18 -93.5 -70t-41.5 -119z" />
    <glyph glyph-name="uni20A2" unicode="&#x20a2;" horiz-adv-x="558" 
d="M521 435l-8 -62q-88 0 -149 -32l-35 -290q74 4 149 31l-8 -62q-69 -30 -177 -30q-138 0 -190.5 88.5t-34.5 233.5q18 146 92 234.5t212 88.5q103 0 170 -30l-8 -62q-79 31 -169 31q-102 0 -158 -73t-70 -189q-13 -102 15.5 -172t106.5 -85l46 370h39l10 -42q76 52 167 52
z" />
    <glyph glyph-name="uni20A3" unicode="&#x20a3;" horiz-adv-x="569" 
d="M40 412h75l26 213h409l-7 -61h-339l-19 -152h249l-7 -61h-249l-10 -76h249l-7 -61h-249l-26 -214h-70l26 214h-75l7 61h75l10 76h-75z" />
    <glyph glyph-name="uni20A4" unicode="&#x20a4;" horiz-adv-x="574" 
d="M195 453l-7 -58h249l-7 -61h-249l-10 -76h249l-7 -61h-249l-17 -136h339l-7 -61h-484l7 61h75l17 136h-75l7 61h75l10 76h-75l7 61h75l7 57q22 183 238 183q106 0 170 -29l-7 -60q-79 27 -170 27q-78 0 -115.5 -28t-45.5 -92z" />
    <glyph glyph-name="uni20A6" unicode="&#x20a6;" horiz-adv-x="660" 
d="M535 0h-48l-129 214h-201l-25 -214h-67l26 214h-75l7 61h75l10 76h-75l7 61h75l26 213h47l128 -213h202l26 213h67l-26 -213h75l-7 -61h-75l-10 -76h75l-7 -61h-75zM353 351l45 -76h103l10 76h-158zM276 351h-103l-9 -76h157zM485 131l9 83h-59zM190 494l-10 -82h59z" />
    <glyph glyph-name="uni20A7" unicode="&#x20a7;" horiz-adv-x="1256" 
d="M964 454q-6 -53 26 -71.5t121 -28.5q111 -12 156 -50.5t35 -122.5q-10 -82 -74 -136.5t-196 -54.5q-45 0 -100 10t-83 23l8 62q87 -33 184 -33q174 0 191 128q7 58 -22.5 80.5t-115.5 31.5q-112 13 -157 45t-42 99h-156l-53 -436h-71l53 436h-146v-4q-11 -85 -67.5 -139
t-165.5 -54h-147l-29 -239h-68l76 625h215q164 0 185 -125h387q47 135 240 135q109 0 174 -30l-8 -63q-75 31 -174 31q-89 0 -129 -30.5t-47 -88.5zM447 432q15 129 -118 129h-148l-31 -259h148q132 0 149 130z" />
    <glyph glyph-name="uni20A8" unicode="&#x20a8;" horiz-adv-x="987" 
d="M413 26l-93 237h-175l-32 -263h-68l76 625h224q111 0 152.5 -47.5t30.5 -133.5q-16 -139 -137 -171l84 -200q99 -21 236 -21q131 0 143 91q5 39 -14.5 59.5t-87.5 26.5q-101 9 -134 42t-25 91q8 62 58 105t147 43q86 0 141 -25l-7 -60q-67 23 -142 23q-69 0 -97.5 -22.5
t-33.5 -63.5q-4 -35 16.5 -52t88.5 -23q100 -9 133 -43t25 -100t-61 -110t-159 -44q-91 0 -176.5 12t-112.5 24zM181 561l-28 -235h160q74 0 104 31t37 87t-16 86.5t-97 30.5h-160z" />
    <glyph glyph-name="uni20A9" unicode="&#x20a9;" horiz-adv-x="850" 
d="M769 625h77l-79 -213h83l-7 -61h-98l-28 -76h116l-7 -61h-131l-83 -224h-61l-37 224h-186l-93 -224h-61l-27 224h-131l7 61h116l-9 76h-97l7 61h82l-26 213h77l19 -213h155l86 213h75l34 -213h155zM384 351l-32 -76h151l-12 76h-107zM553 351l12 -76h86l26 76h-124z
M198 351l7 -76h86l31 76h-124zM460 536l-51 -124h72zM211 214l10 -111l45 111h-55zM575 214l18 -111l38 111h-56z" />
    <glyph glyph-name="uni20AA" unicode="&#x20aa;" horiz-adv-x="670" 
d="M433 160h-68l37 303q12 100 -88 100h-132l-69 -563h-68l76 625h202q87 0 121.5 -45t25.5 -116zM573 625h68l-57 -464q-8 -71 -53.5 -116t-132.5 -45h-202l57 465h68l-50 -403h132q101 0 113 100z" />
    <glyph glyph-name="Euro" unicode="&#x20ac;" horiz-adv-x="567" 
d="M88 312q1 11 5 38h-61l9 66h69q31 102 101 160.5t181 58.5q102 0 169 -30l-8 -64q-81 31 -168 31q-146 0 -201 -156h250l-32 -66h-237q-4 -27 -5 -38q-2 -12 -4 -38h211l-31 -66h-178q17 -155 163 -155q92 0 176 31l-8 -64q-69 -30 -176 -30q-112 0 -167.5 58.5
t-61.5 159.5h-69l8 66h61q2 26 4 38z" />
    <glyph glyph-name="uni20AE" unicode="&#x20ae;" horiz-adv-x="525" 
d="M445 341l-7 -62l-146 -77l-24 -202h-71l19 162l-140 -74l8 62l140 74l6 48l-140 -74l7 62l141 74l27 227h-187l8 64h445l-8 -64h-187l-23 -187l146 77l-8 -62l-145 -77l-6 -48z" />
    <glyph glyph-name="uni20B1" unicode="&#x20b1;" horiz-adv-x="599" 
d="M128 515l13 110h215q150 0 181 -110h75l-8 -61h-61l-1 -22l-4 -22h61l-8 -61h-75q-57 -110 -207 -110h-147l-29 -239h-68l42 349h-75l8 61h75l5 44h-75l8 61h75zM467 432l1 22h-280l-5 -44h280zM318 302q80 0 117 47h-260l-5 -47h148zM201 561l-5 -46h259q-28 46 -106 46
h-148z" />
    <glyph glyph-name="litre" unicode="&#x2113;" horiz-adv-x="310" 
d="M10 180v73q2 1 17 11.5t27 20.5v234q0 241 136 241q99 0 99 -131q0 -195 -165 -358v-148q0 -44 16.5 -61t54.5 -17q32 0 59 8v-53q-28 -10 -59 -10q-63 0 -102 31t-39 100v90q-27 -21 -44 -31zM124 517v-164q110 128 110 286q0 36 -9.5 51t-34.5 15q-66 0 -66 -188z" />
    <glyph glyph-name="numero" unicode="&#x2116;" horiz-adv-x="1089" 
d="M595 0h-51l-403 608l2 -608h-68v750h51l403 -608l-2 608h68v-750zM695 565q0 98 41 146.5t130 48.5q178 0 178 -195t-178 -195q-89 0 -130 48.5t-41 146.5zM759 565q0 -74 25 -104.5t82 -30.5q59 0 87 31.5t28 103.5t-28 103.5t-87 31.5q-57 0 -82 -30.5t-25 -104.5z" />
    <glyph glyph-name="servicemark" unicode="&#x2120;" horiz-adv-x="545" 
d="M105 680q-2 -16 11 -23t47 -9q52 -5 72 -22t15 -52q-4 -36 -33 -58.5t-86 -22.5q-56 0 -82 13l4 38q32 -12 83 -12q68 0 73 41q2 18 -10 26.5t-45 10.5q-54 5 -74 20.5t-15 47.5q10 79 114 79q49 0 80 -12l-5 -38q-33 11 -80 11q-65 0 -69 -38zM433 531h-38l-54 158
l-21 -189h-42l31 250h55l56 -169l99 169h54l-31 -250h-42l25 189z" />
    <glyph glyph-name="trademark" unicode="&#x2122;" horiz-adv-x="545" 
d="M260 712h-80l-26 -212h-44l26 212h-80l5 38h204zM433 531h-38l-54 158l-21 -189h-42l31 250h55l56 -169l99 169h54l-31 -250h-42l25 189z" />
    <glyph glyph-name="estimated" unicode="&#x212e;" horiz-adv-x="770" 
d="M385 760q89 0 158 -32t110 -87t61.5 -122.5t20.5 -143.5v-33h-541v-216q72 -72 191 -72q164 0 235 133h80q-39 -91 -118 -144t-197 -53q-89 0 -157.5 32t-109.5 87t-62 122.5t-21 143.5t21 143.5t62 122.5t109.5 87t157.5 32zM385 696q-119 0 -191 -72v-216h382v216
q-72 72 -191 72z" />
    <glyph glyph-name="arrowleft" unicode="&#x2190;" horiz-adv-x="830" 
d="M483 0h-90l-355 355v40l355 355h90l-342 -342h654v-66h-654z" />
    <glyph glyph-name="arrowup" unicode="&#x2191;" horiz-adv-x="830" 
d="M35 313v90l355 355h40l355 -355v-90l-342 342v-655h-66v655z" />
    <glyph glyph-name="arrowright" unicode="&#x2192;" horiz-adv-x="830" 
d="M350 750h90l355 -355v-40l-355 -355h-90l342 342h-654v66h654z" />
    <glyph glyph-name="arrowdown" unicode="&#x2193;" horiz-adv-x="830" 
d="M785 437v-90l-355 -355h-40l-355 355v90l342 -342v655h66v-655z" />
    <glyph glyph-name="uni2196" unicode="&#x2196;" horiz-adv-x="830" 
d="M98 157l-63 63v502l29 28h502l62 -63h-483l640 -640l-47 -46l-640 640v-484z" />
    <glyph glyph-name="uni2197" unicode="&#x2197;" horiz-adv-x="830" 
d="M795 220l-63 -63v484l-640 -640l-47 46l640 640h-483l62 63h502l29 -28v-502z" />
    <glyph glyph-name="uni2198" unicode="&#x2198;" horiz-adv-x="830" 
d="M732 593l63 -63v-502l-29 -28h-502l-62 63h483l-640 640l47 46l640 -640v484z" />
    <glyph glyph-name="uni2199" unicode="&#x2199;" horiz-adv-x="830" 
d="M35 530l63 63v-484l640 640l47 -46l-640 -640h483l-62 -63h-502l-29 28v502z" />
    <glyph glyph-name="partialdiff" unicode="&#x2202;" horiz-adv-x="530" 
d="M475 250q-16 -128 -69 -194t-173 -66q-82 0 -126.5 33.5t-52 91t0.5 135.5q16 127 69 193.5t173 66.5q83 0 127 -47q2 120 -30.5 177.5t-113.5 57.5q-100 0 -158 -27l7 60q60 29 159 29q144 0 182 -121t5 -389zM405 250q6 58 5.5 102t-29.5 70t-91 26q-39 0 -67 -10.5
t-44.5 -26t-27.5 -43.5t-16 -53t-10 -65q-6 -58 -5.5 -102t29.5 -70t92 -26q47 0 78 14t48 44t24.5 60t13.5 80z" />
    <glyph glyph-name="increment" unicode="&#x2206;" horiz-adv-x="700" 
d="M-10 0l5 43l382 717h72l206 -717l-5 -43h-660zM73 61h508l-177 625z" />
    <glyph glyph-name="product" unicode="&#x220f;" horiz-adv-x="740" 
d="M759 689h-96l-84 -689h-71l84 689h-336l-84 -689h-71l84 689h-96l8 61h670z" />
    <glyph glyph-name="summation" unicode="&#x2211;" horiz-adv-x="635" 
d="M132 750h500l-8 -61l-415 2l281 -282l-6 -48l-377 -302l465 2l-7 -61h-555l7 58l406 327l-299 307z" />
    <glyph glyph-name="minus" unicode="&#x2212;" horiz-adv-x="490" 
d="M452 308h-400l8 66h400z" />
    <glyph glyph-name="radical" unicode="&#x221a;" horiz-adv-x="740" 
d="M715 750h82l-525 -760h-81l-43 449h-105l8 61h164l37 -434z" />
    <glyph glyph-name="infinity" unicode="&#x221e;" horiz-adv-x="800" 
d="M765 357q-9 -75 -56 -114t-124 -39q-106 0 -178 99q-97 -99 -202 -99q-77 0 -115 39t-29 114q10 75 57.5 114t123.5 39q105 0 178 -100q98 100 202 100q77 0 115 -39t28 -114zM696 357q6 50 -16 71.5t-65 19.5q-87 -4 -162 -91q53 -87 139 -91q93 -4 104 91zM212 266
q88 4 161 91q-21 37 -57 63t-81 28q-93 4 -105 -91q-6 -50 16.5 -71.5t65.5 -19.5z" />
    <glyph glyph-name="integral" unicode="&#x222b;" horiz-adv-x="337" 
d="M-108 -260l7 59q54 7 94 34t47 80l85 697q19 150 200 150q42 0 69 -7l-8 -63q-30 8 -69 8q-113 0 -124 -88l-86 -706q-6 -49 -41.5 -87t-80.5 -56t-93 -21z" />
    <glyph glyph-name="approxequal" unicode="&#x2248;" horiz-adv-x="490" 
d="M361 400q34 0 63.5 13t44.5 27l-8 -65q-40 -34 -106 -34q-34 0 -61 11.5t-41.5 25t-36.5 25t-48 11.5q-34 0 -63.5 -13t-44.5 -27l8 65q40 34 106 34q34 0 61 -11.5t41.5 -25t36.5 -25t48 -11.5zM344 268q34 0 64 13t44 27l-8 -65q-40 -34 -105 -34q-34 0 -61 11.5
t-41.5 25t-36.5 25t-48 11.5q-34 0 -63.5 -13t-44.5 -27l8 65q40 34 105 34q34 0 61 -11.5t41.5 -25t36.5 -25t48 -11.5z" />
    <glyph glyph-name="notequal" unicode="&#x2260;" horiz-adv-x="490" 
d="M469 440l-9 -66h-400l9 66h205l76 167h78l-84 -167h125zM452 308l-8 -66h-201l-76 -167h-78l84 167h-129l8 66h400z" />
    <glyph glyph-name="lessequal" unicode="&#x2264;" horiz-adv-x="490" 
d="M448 275l-8 -70l-380 168l8 66l421 168l-9 -70l-341 -131zM432 145l-8 -70l-380 168l9 70z" />
    <glyph glyph-name="greaterequal" unicode="&#x2265;" horiz-adv-x="490" 
d="M40 205l8 70l341 131l-309 131l9 70l379 -168l-8 -66zM24 75l8 70l421 168l-9 -70z" />
    <glyph glyph-name="filledbox" unicode="&#x25a0;" horiz-adv-x="880" 
d="M65 0v750h750v-750h-750zM136 684v-618h608v618h-608zM440 328l-228 -228l-47 47l228 228l-228 228l47 47l228 -228l228 228l47 -47l-228 -228l228 -228l-47 -47z" />
    <glyph glyph-name="whitesquare" unicode="&#x25a1;" horiz-adv-x="880" 
d="M65 0v750h750v-750h-750zM136 684v-618h608v618h-608z" />
    <glyph glyph-name="blacksmallsquare" unicode="&#x25aa;" horiz-adv-x="630" 
d="M565 0h-500v500h500v-500z" />
    <glyph glyph-name="whitesmallsquare" unicode="&#x25ab;" horiz-adv-x="630" 
d="M65 0v500h500v-500h-500zM131 439v-378h368v378h-368z" />
    <glyph glyph-name="uni25B2" unicode="&#x25b2;" horiz-adv-x="880" 
d="M1 0l439 760l439 -760h-878z" />
    <glyph glyph-name="uni25B6" unicode="&#x25b6;" horiz-adv-x="750" 
d="M714 375l-649 -375v750z" />
    <glyph glyph-name="uni25BC" unicode="&#x25bc;" horiz-adv-x="880" 
d="M440 -10l-439 760h878z" />
    <glyph glyph-name="uni25C0" unicode="&#x25c0;" horiz-adv-x="750" 
d="M685 0l-649 375l649 375v-750z" />
    <glyph glyph-name="lozenge" unicode="&#x25ca;" horiz-adv-x="690" 
d="M324 77l282 298l-209 298l-281 -298zM313 -10l-272 385l367 385l273 -385z" />
    <glyph glyph-name="circle" unicode="&#x25cb;" horiz-adv-x="630" 
d="M55 250q0 108 76 184t184 76t184 -76t76 -184t-76 -184t-184 -76t-184 76t-76 184z" />
    <glyph glyph-name="bullseye" unicode="&#x25ce;" horiz-adv-x="850" 
d="M50 678v72h12l297 -206q-5 -6 -6 -10zM502 552l286 198h12v-72l-291 -138zM50 589v66l300 -125l-6 -10zM513 535l287 120v-66l-279 -66q-3 3 -7 11zM100 750h88l180 -191l-6 -10zM330 503l-280 7v59l290 -54q-5 -8 -10 -12zM491 568l171 182h88l-252 -193zM524 517
l276 52v-59l-264 -7zM50 490l267 6q-9 -14 -21 -20l-246 -46v60zM542 496l258 -6v-60l-232 44zM584 461l216 -51v-65l-176 73q-12 20 -40 43zM212 750h60l107 -176l-8 -11zM479 587l99 163h60l-151 -176zM50 345v65l214 51q-10 -4 -32 -11t-37.5 -13.5t-28.5 -14.5
q-38 -24 -68 -57zM290 750h47l56 -160l-10 -11zM631 401l169 -80v-21q-60 13 -110.5 38.5t-56.5 55.5q-2 4 -2 7zM464 609l49 141h47l-85 -157zM351 750h41l18 -145l-13 -11zM441 622l17 128h41l-40 -133l-6 9q-8 -2 -12 -4zM416 610l-11 140h39l-11 -131q-3 -1 -9 -4.5
t-8 -4.5zM71 331q-20 -20 -21 -28v18z" />
    <glyph glyph-name="bullseye" unicode="&#xf8ff;" horiz-adv-x="850" 
d="M50 678v72h12l297 -206q-5 -6 -6 -10zM502 552l286 198h12v-72l-291 -138zM50 589v66l300 -125l-6 -10zM513 535l287 120v-66l-279 -66q-3 3 -7 11zM100 750h88l180 -191l-6 -10zM330 503l-280 7v59l290 -54q-5 -8 -10 -12zM491 568l171 182h88l-252 -193zM524 517
l276 52v-59l-264 -7zM50 490l267 6q-9 -14 -21 -20l-246 -46v60zM542 496l258 -6v-60l-232 44zM584 461l216 -51v-65l-176 73q-12 20 -40 43zM212 750h60l107 -176l-8 -11zM479 587l99 163h60l-151 -176zM50 345v65l214 51q-10 -4 -32 -11t-37.5 -13.5t-28.5 -14.5
q-38 -24 -68 -57zM290 750h47l56 -160l-10 -11zM631 401l169 -80v-21q-60 13 -110.5 38.5t-56.5 55.5q-2 4 -2 7zM464 609l49 141h47l-85 -157zM351 750h41l18 -145l-13 -11zM441 622l17 128h41l-40 -133l-6 9q-8 -2 -12 -4zM416 610l-11 140h39l-11 -131q-3 -1 -9 -4.5
t-8 -4.5zM71 331q-20 -20 -21 -28v18z" />
    <glyph glyph-name="blackcircle" unicode="&#x25cf;" horiz-adv-x="880" 
d="M55 375q0 160 112.5 272.5t272.5 112.5t272.5 -112.5t112.5 -272.5t-112.5 -272.5t-272.5 -112.5t-272.5 112.5t-112.5 272.5z" />
    <glyph glyph-name="uni25E2" unicode="&#x25e2;" horiz-adv-x="880" 
d="M815 0l-760 204l556 556z" />
    <glyph glyph-name="uni25E3" unicode="&#x25e3;" horiz-adv-x="880" 
d="M825 204l-760 -204l204 760z" />
    <glyph glyph-name="uni25E4" unicode="&#x25e4;" horiz-adv-x="880" 
d="M65 750l760 -204l-556 -556z" />
    <glyph glyph-name="uni25E5" unicode="&#x25e5;" horiz-adv-x="880" 
d="M55 546l760 204l-204 -760z" />
    <glyph glyph-name="uni2605" unicode="&#x2605;" horiz-adv-x="880" 
d="M440 173l-250 -183l95 295l-250 181h308l97 294l97 -294h308l-250 -181l95 -295z" />
    <glyph glyph-name="uni263C" unicode="&#x263c;" horiz-adv-x="960" 
d="M880 390l-169 -30l155 -73l-171 15l132 -112l-162 59l98 -141l-141 98l58 -162l-111 130l15 -170l-74 155l-30 -169l-30 169l-74 -155l15 170l-111 -130l58 162l-141 -98l98 141l-162 -59l132 112l-171 -15l155 73l-169 30l169 30l-155 73l171 -15l-132 112l162 -59
l-98 141l141 -98l-58 162l111 -130l-15 170l74 -155l30 169l30 -169l74 155l-15 -170l111 130l-58 -162l141 98l-98 -141l162 59l-132 -112l171 15l-155 -73z" />
    <glyph glyph-name="uni263E" unicode="&#x263e;" horiz-adv-x="880" 
d="M579 700q-134 0 -223 -91.5t-89 -233.5t89 -233.5t223 -91.5q50 0 92 14q-102 -74 -231 -74q-160 0 -272.5 112.5t-112.5 272.5t112.5 272.5t272.5 112.5q126 0 231 -74q-47 14 -92 14z" />
    <glyph glyph-name="uni2660" unicode="&#x2660;" horiz-adv-x="880" 
d="M538 0h-196q36 71 53.5 140t25.5 167l-3 1q-27 -67 -76 -111t-116 -44q-71 0 -120.5 48.5t-49.5 119.5q0 68 41.5 117.5t116.5 99.5q69 45 131.5 110.5t93.5 111.5h2q31 -46 93.5 -111.5t131.5 -110.5q75 -50 116.5 -99.5t41.5 -117.5q0 -71 -49.5 -119.5t-120.5 -48.5
q-67 0 -116 44t-76 111l-3 -1q8 -98 25.5 -167t53.5 -140z" />
    <glyph glyph-name="uni2663" unicode="&#x2663;" horiz-adv-x="880" 
d="M538 0h-196q36 71 53.5 140t25.5 167l-3 1q-27 -67 -76 -111t-116 -44q-71 0 -120.5 48.5t-49.5 119.5q0 76 47 124.5t121 48.5q41 0 81 -22l2 2q-37 56 -37 113q0 72 48.5 122.5t121.5 50.5t121.5 -50.5t48.5 -122.5q0 -57 -37 -113l2 -2q40 22 81 22q74 0 121 -48.5
t47 -124.5q0 -71 -49.5 -119.5t-120.5 -48.5q-67 0 -116 44t-76 111l-3 -1q8 -98 25.5 -167t53.5 -140z" />
    <glyph glyph-name="uni2665" unicode="&#x2665;" horiz-adv-x="880" 
d="M441 -10h-2q-64 101 -224 283q-43 49 -72.5 87.5t-57.5 96.5t-28 105q0 87 50 143t134 56q82 0 127.5 -40.5t69.5 -110.5h4q24 70 69.5 110.5t127.5 40.5q84 0 134 -56t50 -143q0 -47 -28 -105t-57.5 -96.5t-72.5 -87.5q-160 -182 -224 -283z" />
    <glyph glyph-name="uni2666" unicode="&#x2666;" horiz-adv-x="880" 
d="M793 376v-2q-103 -79 -195.5 -180.5t-156.5 -203.5h-2q-64 102 -156.5 203.5t-195.5 180.5v2q103 79 195.5 180.5t156.5 203.5h2q64 -102 156.5 -203.5t195.5 -180.5z" />
    <glyph glyph-name="musicflatsign" unicode="&#x266d;" horiz-adv-x="455" 
d="M50 -33v833h50v-366q22 42 66.5 69t87.5 27q161 0 161 -175q0 -135 -109.5 -242.5t-255.5 -145.5zM100 332v-290q39 15 78.5 39t82 61.5t69 91t26.5 113.5q0 55 -25 90.5t-79 35.5q-61 0 -105.5 -44.5t-46.5 -96.5z" />
    <glyph glyph-name="musicnaturalsign" unicode="&#x266e;" horiz-adv-x="327" 
d="M100 507l177 142v-709h-50v291l-177 -142v711h50v-293zM100 421v-205l127 101v205z" />
    <glyph glyph-name="musicsharpsign" unicode="&#x266f;" horiz-adv-x="465" 
d="M346 850v-201l95 77v-86l-95 -78v-192l95 76v-87l-95 -76v-283h-50v243l-127 -102v-241h-50v201l-95 -77v86l95 78v192l-95 -76v87l95 76v283h50v-243l127 102v241h50zM169 420v-192l127 102v192z" />
    <glyph glyph-name="uni267B" unicode="&#x267b;" horiz-adv-x="880" 
d="M804 257l1 -2l-92 -160q-15 -22 -21 -29t-23 -16t-41 -9h-55v-47l-108 131l108 129v-47h140q25 0 47.5 12.5t33.5 24.5zM154 119h-2l-92 161q-10 20 -14 31t-2.5 29.5t13.5 38.5l26 47l-40 23l167 30l57 -160l-40 23q-67 -115 -69 -119q-13 -22 -14 -48t4 -41zM363 749v1
h186q23 -1 34.5 -2.5t26.5 -12t27 -30.5l27 -47l41 23l-59 -159l-166 30l40 23l-69 119q-13 22 -35 36t-38 16zM168 575l64 115q11 18 33 29q43 23 92.5 10t65.5 -43l-111 -193zM404 41h-130q-22 0 -42 13q-41 23 -55 75.5t4 77.5h223v-166zM749 507l66 -112q10 -16 10 -42
q1 -46 -36.5 -83.5t-71.5 -37.5l-111 193z" />
    <glyph glyph-name="uni267C" unicode="&#x267c;" horiz-adv-x="880" 
d="M279 621l-51 -88l112 -65l87 150q-12 23 -50.5 33t-72.5 -7q-19 -10 -25 -23zM377 668v-1q46 -4 68 -42l54 -93l-31 -19l130 -23l45 124l-32 -18l-21 37q-13 23 -28 29t-41 6h-144zM307 116h102v129h-174q-14 -20 -3 -60.5t43 -58.5q16 -10 32 -10zM217 177h1
q-19 42 3 81l54 93l31 -18l-45 124l-130 -23l32 -18l-21 -37q-10 -16 -11 -30.5t2.5 -22.5t11.5 -24zM732 392l-51 88l-111 -65l86 -150q27 0 56 29t28 65q0 19 -8 33zM725 283l-1 1q-3 -4 -8.5 -10.5t-24.5 -17.5t-39 -11h-107v37l-85 -101l85 -101v36h42q18 0 31.5 6.5
t19.5 14t14 21.5zM55 375q0 160 112.5 272.5t272.5 112.5t272.5 -112.5t112.5 -272.5t-112.5 -272.5t-272.5 -112.5t-272.5 112.5t-112.5 272.5z" />
    <glyph glyph-name="uni267D" unicode="&#x267d;" horiz-adv-x="880" 
d="M228 533l51 88q6 13 25 23q34 17 72.5 7t50.5 -33l-87 -150zM377 667v1h144q17 0 26.5 -1.5t21.5 -9.5t21 -24l21 -37l32 18l-45 -124l-130 23l31 19l-54 93q-10 17 -27 27.5t-29 12.5zM409 116h-102q-16 0 -32 10q-32 18 -43 58.5t3 60.5h174v-129zM218 177h-1l-72 125
q-8 16 -11.5 24t-2.5 22.5t11 30.5l21 37l-32 18l130 23l45 -124l-31 18l-54 -93q-10 -17 -10.5 -37.5t3.5 -32.5zM681 480l51 -88q8 -14 8 -33q1 -36 -28 -65t-56 -29l-86 150zM724 284l1 -1l-73 -125q-8 -14 -14 -21.5t-19.5 -14t-31.5 -6.5h-42v-36l-85 101l85 101v-37
h107q20 0 38 9.5t26 19.5zM805 375q0 151 -107 258t-258 107t-258 -107t-107 -258t107 -258t258 -107t258 107t107 258zM55 375q0 160 112.5 272.5t272.5 112.5t272.5 -112.5t112.5 -272.5t-112.5 -272.5t-272.5 -112.5t-272.5 112.5t-112.5 272.5z" />
    <glyph glyph-name="anglebracketleft" unicode="&#x3008;" horiz-adv-x="280" 
d="M194 -206h-75l-72 511l198 511h75l-195 -511z" />
    <glyph glyph-name="anglebracketright" unicode="&#x3009;" horiz-adv-x="280" 
d="M100 816h75l72 -511l-198 -511h-75l195 511z" />
    <glyph glyph-name="Adoublegrave" unicode="&#xe000;" horiz-adv-x="630" 
d="M72 0h-77l358 760h50l172 -760h-77l-44 210h-288zM364 646l-171 -377h249zM468 800h-50l-78 100h90zM348 800h-50l-78 100h90z" />
    <glyph glyph-name="Adotabove" unicode="&#xe001;" horiz-adv-x="630" 
d="M72 0h-77l358 760h50l172 -760h-77l-44 210h-288zM364 646l-171 -377h249zM339 850q0 21 14.5 35.5t35.5 14.5t35.5 -14.5t14.5 -35.5t-14.5 -35.5t-35.5 -14.5t-35.5 14.5t-14.5 35.5z" />
    <glyph glyph-name="Anocross" unicode="&#xe002;" horiz-adv-x="630" 
d="M72 0h-77l358 760h50l172 -760h-77l-134 646z" />
    <glyph glyph-name="Edoublegrave" unicode="&#xe003;" 
d="M496 422l-7 -63h-332l-37 -296h367l-7 -63h-435l92 750h435l-8 -63h-367l-33 -265h332zM453 800h-50l-78 100h90zM333 800h-50l-78 100h90z" />
    <glyph glyph-name="Eacutedotbelow" unicode="&#xe004;" 
d="M496 422l-7 -63h-332l-37 -296h367l-7 -63h-435l92 750h435l-8 -63h-367l-33 -265h332zM393 800h-50l62 100h90zM201 -150q0 21 14.5 35.5t35.5 14.5t35.5 -14.5t14.5 -35.5t-14.5 -35.5t-35.5 -14.5t-35.5 14.5t-14.5 35.5z" />
    <glyph glyph-name="Egravedotbelow" unicode="&#xe005;" 
d="M496 422l-7 -63h-332l-37 -296h367l-7 -63h-435l92 750h435l-8 -63h-367l-33 -265h332zM393 800h-50l-78 100h90zM201 -150q0 21 14.5 35.5t35.5 14.5t35.5 -14.5t14.5 -35.5t-14.5 -35.5t-35.5 -14.5t-35.5 14.5t-14.5 35.5z" />
    <glyph glyph-name="Gtilde" unicode="&#xe006;" horiz-adv-x="660" 
d="M323 -10q-81 0 -136.5 30t-81 82.5t-34 122.5t4.5 150q10 84 33.5 151t63 121t102 83.5t143.5 29.5q127 0 205 -42l-9 -68q-59 26 -102.5 36.5t-101.5 10.5q-116 0 -180 -87.5t-82 -234.5q-12 -95 0 -164.5t58 -113.5t125 -44q117 0 165 22l31 256h-157l8 63h225
l-45 -363q-92 -41 -235 -41zM480 849q50 0 55 51h56q-3 -52 -36 -81t-87 -29q-31 0 -55 15t-44.5 30.5t-40.5 15.5q-50 0 -55 -51h-56q2 52 35 81t87 29q31 0 55.5 -15t45 -30.5t40.5 -15.5z" />
    <glyph glyph-name="Gcommaturnedabove" unicode="&#xe007;" horiz-adv-x="660" 
d="M323 -10q-81 0 -136.5 30t-81 82.5t-34 122.5t4.5 150q10 84 33.5 151t63 121t102 83.5t143.5 29.5q127 0 205 -42l-9 -68q-59 26 -102.5 36.5t-101.5 10.5q-116 0 -180 -87.5t-82 -234.5q-12 -95 0 -164.5t58 -113.5t125 -44q117 0 165 22l31 256h-157l8 63h225
l-45 -363q-92 -41 -235 -41zM455 900h50l-37 -100h-90z" />
    <glyph glyph-name="Hcaron" unicode="&#xe008;" horiz-adv-x="660" 
d="M555 0h-68l44 359h-374l-44 -359h-68l92 750h68l-41 -328h374l41 328h68zM255 900h56l92 -56l106 56h56l-127 -100h-80z" />
    <glyph glyph-name="Hmacronbelow" unicode="&#xe009;" horiz-adv-x="660" 
d="M555 0h-68l44 359h-374l-44 -359h-68l92 750h68l-41 -328h374l41 328h68zM422 -120l-8 -60h-274l8 60h274z" />
    <glyph glyph-name="Idoublegrave" unicode="&#xe00b;" horiz-adv-x="260" 
d="M135 0h-70l92 750h70zM283 800h-50l-78 100h90zM163 800h-50l-78 100h90z" />
    <glyph glyph-name="Jcaron" unicode="&#xe00c;" horiz-adv-x="379" 
d="M4 -3l8 64q31 -8 69 -8q109 0 119 85l76 612h70l-75 -610q-19 -150 -198 -150q-41 0 -69 7zM174 900h56l92 -56l106 56h56l-127 -100h-80z" />
    <glyph glyph-name="Kcedilla" unicode="&#xe00d;" horiz-adv-x="595" 
d="M222 363l-74 -75l-35 -288h-68l92 750h68l-46 -374l359 374h88l-334 -336l272 -414h-89zM218 -95l10 45q69 -7 103 -36.5t29 -74.5q-5 -41 -37.5 -65t-84.5 -24q-62 0 -92 18l6 46q34 -13 75 -13q67 0 71 36q4 30 -18.5 46.5t-61.5 21.5z" />
    <glyph glyph-name="Lcedilla" unicode="&#xe00e;" horiz-adv-x="530" 
d="M205 750l-85 -687h347l-7 -63h-415l92 750h68zM198 -95l10 45q69 -7 103 -36.5t29 -74.5q-5 -41 -37.5 -65t-84.5 -24q-62 0 -92 18l6 46q34 -13 75 -13q67 0 71 36q4 30 -18.5 46.5t-61.5 21.5z" />
    <glyph glyph-name="Mmacron" unicode="&#xe00f;" horiz-adv-x="840" 
d="M752 661l-320 -546h-56l-186 546l-77 -661h-68l92 750h92l185 -552l321 552h92l-92 -750h-68zM353 820l8 60h274l-8 -60h-274z" />
    <glyph glyph-name="Mcedilla" unicode="&#xe010;" horiz-adv-x="840" 
d="M752 661l-320 -546h-56l-186 546l-77 -661h-68l92 750h92l185 -552l321 552h92l-92 -750h-68zM338 -95l10 45q69 -7 103 -36.5t29 -74.5q-5 -41 -37.5 -65t-84.5 -24q-62 0 -92 18l6 46q34 -13 75 -13q67 0 71 36q4 30 -18.5 46.5t-61.5 21.5z" />
    <glyph glyph-name="Ngrave" unicode="&#xe011;" horiz-adv-x="670" 
d="M565 0h-51l-328 611l-73 -611h-68l92 750h51l328 -611l73 611h68zM428 800h-50l-78 100h90z" />
    <glyph glyph-name="Ndieresis" unicode="&#xe012;" horiz-adv-x="670" 
d="M565 0h-51l-328 611l-73 -611h-68l92 750h51l328 -611l73 611h68zM264 850q0 21 14.5 35.5t35.5 14.5t35.5 -14.5t14.5 -35.5t-14.5 -35.5t-35.5 -14.5t-35.5 14.5t-14.5 35.5zM454 850q0 21 14.5 35.5t35.5 14.5t35.5 -14.5t14.5 -35.5t-14.5 -35.5t-35.5 -14.5
t-35.5 14.5t-14.5 35.5z" />
    <glyph glyph-name="Nmacron" unicode="&#xe013;" horiz-adv-x="670" 
d="M565 0h-51l-328 611l-73 -611h-68l92 750h51l328 -611l73 611h68zM268 820l8 60h274l-8 -60h-274z" />
    <glyph glyph-name="Ncedilla" unicode="&#xe014;" horiz-adv-x="670" 
d="M565 0h-51l-328 611l-73 -611h-68l92 750h51l328 -611l73 611h68zM253 -95l10 45q69 -7 103 -36.5t29 -74.5q-5 -41 -37.5 -65t-84.5 -24q-62 0 -92 18l6 46q34 -13 75 -13q67 0 71 36q4 30 -18.5 46.5t-61.5 21.5z" />
    <glyph glyph-name="Ndescender" unicode="&#xe015;" horiz-adv-x="670" 
d="M549 -125l16 125h-51l-328 611l-73 -611h-68l92 750h51l328 -611l73 611h68l-85 -687h68l-23 -188h-68z" />
    <glyph glyph-name="Odoublegrave" unicode="&#xe016;" horiz-adv-x="680" 
d="M316 53q53 0 93 17t66 44t44 70.5t27.5 87t17.5 103.5q11 67 8.5 126t-17 102.5t-55 68.5t-105.5 25q-53 0 -93 -17t-65.5 -44t-44 -70.5t-28 -87t-16.5 -103.5q-10 -92 -7 -163.5t46 -115t129 -43.5zM308 -10q-71 0 -120.5 22t-74.5 56.5t-36 87t-10 103t9 116.5
t19.5 116t35.5 103t58 87.5t88.5 56.5t125.5 22q51 0 91 -11.5t66.5 -30.5t44.5 -48t26.5 -60.5t11.5 -72.5t1 -78.5t-8 -83.5q-8 -66 -20 -116t-36 -103t-58 -87.5t-88.5 -56.5t-125.5 -22zM493 800h-50l-78 100h90zM373 800h-50l-78 100h90z" />
    <glyph glyph-name="Ocommaturnedabove" unicode="&#xe017;" horiz-adv-x="680" 
d="M316 53q53 0 93 17t66 44t44 70.5t27.5 87t17.5 103.5q11 67 8.5 126t-17 102.5t-55 68.5t-105.5 25q-53 0 -93 -17t-65.5 -44t-44 -70.5t-28 -87t-16.5 -103.5q-10 -92 -7 -163.5t46 -115t129 -43.5zM308 -10q-71 0 -120.5 22t-74.5 56.5t-36 87t-10 103t9 116.5
t19.5 116t35.5 103t58 87.5t88.5 56.5t125.5 22q51 0 91 -11.5t66.5 -30.5t44.5 -48t26.5 -60.5t11.5 -72.5t1 -78.5t-8 -83.5q-8 -66 -20 -116t-36 -103t-58 -87.5t-88.5 -56.5t-125.5 -22zM440 900h50l-37 -100h-90z" />
    <glyph glyph-name="Otildemacron" unicode="&#xe018;" horiz-adv-x="680" 
d="M316 53q53 0 93 17t66 44t44 70.5t27.5 87t17.5 103.5q11 67 8.5 126t-17 102.5t-55 68.5t-105.5 25q-53 0 -93 -17t-65.5 -44t-44 -70.5t-28 -87t-16.5 -103.5q-10 -92 -7 -163.5t46 -115t129 -43.5zM308 -10q-71 0 -120.5 22t-74.5 56.5t-36 87t-10 103t9 116.5
t19.5 116t35.5 103t58 87.5t88.5 56.5t125.5 22q51 0 91 -11.5t66.5 -30.5t44.5 -48t26.5 -60.5t11.5 -72.5t1 -78.5t-8 -83.5q-8 -66 -20 -116t-36 -103t-58 -87.5t-88.5 -56.5t-125.5 -22zM490 849q50 0 55 51h56q-3 -52 -36 -81t-87 -29q-31 0 -55 15t-44.5 30.5
t-40.5 15.5q-50 0 -55 -51h-56q2 52 35 81t87 29q31 0 55.5 -15t45 -30.5t40.5 -15.5zM287 935l8 60h274l-8 -60h-274z" />
    <glyph glyph-name="Odotabove" unicode="&#xe019;" horiz-adv-x="680" 
d="M316 53q53 0 93 17t66 44t44 70.5t27.5 87t17.5 103.5q11 67 8.5 126t-17 102.5t-55 68.5t-105.5 25q-53 0 -93 -17t-65.5 -44t-44 -70.5t-28 -87t-16.5 -103.5q-10 -92 -7 -163.5t46 -115t129 -43.5zM308 -10q-71 0 -120.5 22t-74.5 56.5t-36 87t-10 103t9 116.5
t19.5 116t35.5 103t58 87.5t88.5 56.5t125.5 22q51 0 91 -11.5t66.5 -30.5t44.5 -48t26.5 -60.5t11.5 -72.5t1 -78.5t-8 -83.5q-8 -66 -20 -116t-36 -103t-58 -87.5t-88.5 -56.5t-125.5 -22zM364 850q0 21 14.5 35.5t35.5 14.5t35.5 -14.5t14.5 -35.5t-14.5 -35.5
t-35.5 -14.5t-35.5 14.5t-14.5 35.5z" />
    <glyph glyph-name="Odotabovemacron" unicode="&#xe01a;" horiz-adv-x="680" 
d="M316 53q53 0 93 17t66 44t44 70.5t27.5 87t17.5 103.5q11 67 8.5 126t-17 102.5t-55 68.5t-105.5 25q-53 0 -93 -17t-65.5 -44t-44 -70.5t-28 -87t-16.5 -103.5q-10 -92 -7 -163.5t46 -115t129 -43.5zM308 -10q-71 0 -120.5 22t-74.5 56.5t-36 87t-10 103t9 116.5
t19.5 116t35.5 103t58 87.5t88.5 56.5t125.5 22q51 0 91 -11.5t66.5 -30.5t44.5 -48t26.5 -60.5t11.5 -72.5t1 -78.5t-8 -83.5q-8 -66 -20 -116t-36 -103t-58 -87.5t-88.5 -56.5t-125.5 -22zM287 935l8 60h274l-8 -60h-274zM364 850q0 21 14.5 35.5t35.5 14.5t35.5 -14.5
t14.5 -35.5t-14.5 -35.5t-35.5 -14.5t-35.5 14.5t-14.5 35.5z" />
    <glyph glyph-name="Ocedilla" unicode="&#xe01b;" horiz-adv-x="680" 
d="M316 53q53 0 93 17t66 44t44 70.5t27.5 87t17.5 103.5q11 67 8.5 126t-17 102.5t-55 68.5t-105.5 25q-53 0 -93 -17t-65.5 -44t-44 -70.5t-28 -87t-16.5 -103.5q-10 -92 -7 -163.5t46 -115t129 -43.5zM308 -10q-71 0 -120.5 22t-74.5 56.5t-36 87t-10 103t9 116.5
t19.5 116t35.5 103t58 87.5t88.5 56.5t125.5 22q51 0 91 -11.5t66.5 -30.5t44.5 -48t26.5 -60.5t11.5 -72.5t1 -78.5t-8 -83.5q-8 -66 -20 -116t-36 -103t-58 -87.5t-88.5 -56.5t-125.5 -22zM250 -95l10 45q69 -7 103 -36.5t29 -74.5q-5 -41 -37.5 -65t-84.5 -24
q-62 0 -92 18l6 46q34 -13 75 -13q67 0 71 36q4 30 -18.5 46.5t-61.5 21.5z" />
    <glyph glyph-name="Ounderlineaccent" unicode="&#xe01c;" horiz-adv-x="680" 
d="M316 53q53 0 93 17t66 44t44 70.5t27.5 87t17.5 103.5q11 67 8.5 126t-17 102.5t-55 68.5t-105.5 25q-53 0 -93 -17t-65.5 -44t-44 -70.5t-28 -87t-16.5 -103.5q-10 -92 -7 -163.5t46 -115t129 -43.5zM308 -10q-71 0 -120.5 22t-74.5 56.5t-36 87t-10 103t9 116.5
t19.5 116t35.5 103t58 87.5t88.5 56.5t125.5 22q51 0 91 -11.5t66.5 -30.5t44.5 -48t26.5 -60.5t11.5 -72.5t1 -78.5t-8 -83.5q-8 -66 -20 -116t-36 -103t-58 -87.5t-88.5 -56.5t-125.5 -22zM273 -50h60l-24 -200h-60z" />
    <glyph glyph-name="barredO" unicode="&#xe01d;" horiz-adv-x="680" 
d="M308 -10q-71 0 -120.5 22t-74.5 56.5t-36 87t-10 103t9 116.5t19.5 116t35.5 103t58 87.5t88.5 56.5t125.5 22q51 0 91 -11.5t66.5 -30.5t44.5 -48t26.5 -60.5t11.5 -72.5t1 -78.5t-8 -83.5q-8 -66 -20 -116t-36 -103t-58 -87.5t-88.5 -56.5t-125.5 -22zM316 53
q63 0 108 22.5t72 67t41.5 94.5t24.5 122h-416q-10 -65 -7 -120.5t18 -97t55 -65t104 -23.5zM395 697q-60 0 -103.5 -20t-70 -59.5t-42 -85.5t-25.5 -110h414q7 59 2 109.5t-21.5 87t-55 57.5t-98.5 21z" />
    <glyph glyph-name="Pmacron" unicode="&#xe01e;" horiz-adv-x="590" 
d="M149 300l-36 -300h-68l92 750h229q68 0 115.5 -18.5t71.5 -50.5t33 -71t3 -85q-12 -98 -80 -161.5t-199 -63.5h-161zM197 687l-40 -324h170q168 0 188 162t-148 162h-170zM228 820l8 60h274l-8 -60h-274z" />
    <glyph glyph-name="Rdoublegrave" unicode="&#xe01f;" horiz-adv-x="621" 
d="M153 328l-40 -328h-68l92 750h235q134 0 183 -54t36 -157q-10 -80 -48 -130t-115 -69l138 -340h-79l-128 329q-11 -1 -33 -1h-173zM197 687l-36 -296h185q91 0 126.5 38.5t44.5 109.5t-17.5 109.5t-117.5 38.5h-185zM443 800h-50l-78 100h90zM323 800h-50l-78 100h90z
" />
    <glyph glyph-name="Rcedilla" unicode="&#xe020;" horiz-adv-x="621" 
d="M153 328l-40 -328h-68l92 750h235q134 0 183 -54t36 -157q-10 -80 -48 -130t-115 -69l138 -340h-79l-128 329q-11 -1 -33 -1h-173zM197 687l-36 -296h185q91 0 126.5 38.5t44.5 109.5t-17.5 109.5t-117.5 38.5h-185zM228 -95l10 45q69 -7 103 -36.5t29 -74.5
q-5 -41 -37.5 -65t-84.5 -24q-62 0 -92 18l6 46q34 -13 75 -13q67 0 71 36q4 30 -18.5 46.5t-61.5 21.5z" />
    <glyph glyph-name="Tcedilla" unicode="&#xe021;" horiz-adv-x="560" 
d="M575 687h-207l-84 -687h-68l84 687h-207l8 63h482zM198 -95l10 45q69 -7 103 -36.5t29 -74.5q-5 -41 -37.5 -65t-84.5 -24q-62 0 -92 18l6 46q34 -13 75 -13q67 0 71 36q4 30 -18.5 46.5t-61.5 21.5z" />
    <glyph glyph-name="Udoublegrave" unicode="&#xe022;" horiz-adv-x="670" 
d="M311 53q197 0 221 193l62 504h68l-64 -515q-7 -61 -32 -107t-56.5 -71.5t-71.5 -41.5t-71.5 -20.5t-63.5 -4.5t-62 4.5t-66.5 20.5t-61.5 41.5t-38.5 71.5t-6.5 107l64 515h68l-62 -504q-6 -51 4 -89t27.5 -57t46 -30.5t49.5 -14t46 -2.5zM488 800h-50l-78 100h90z
M368 800h-50l-78 100h90z" />
    <glyph glyph-name="Umacronbelow" unicode="&#xe023;" horiz-adv-x="670" 
d="M311 53q197 0 221 193l62 504h68l-64 -515q-7 -61 -32 -107t-56.5 -71.5t-71.5 -41.5t-71.5 -20.5t-63.5 -4.5t-62 4.5t-66.5 20.5t-61.5 41.5t-38.5 71.5t-6.5 107l64 515h68l-62 -504q-6 -51 4 -89t27.5 -57t46 -30.5t49.5 -14t46 -2.5zM427 -120l-8 -60h-274l8 60h274
z" />
    <glyph glyph-name="Ymacron" unicode="&#xe024;" horiz-adv-x="670" 
d="M702 750l-325 -440l-38 -310h-68l38 310l-217 440h75l182 -385l278 385h75zM268 820l8 60h274l-8 -60h-274z" />
    <glyph glyph-name="adoublegrave" unicode="&#xe025;" horiz-adv-x="535" 
d="M501 500l-61 -500h-39l-10 41q-88 -51 -163 -51q-112 0 -149.5 69.5t-23.5 190.5q15 121 70 190.5t167 69.5q86 0 150 -52l20 42h39zM236 52q80 0 144 32l41 332q-56 32 -136 32q-43 0 -73.5 -16t-47.5 -46.5t-25.5 -61.5t-13.5 -74q-7 -37 -5 -72.5t11 -63.5t35.5 -45
t69.5 -17zM267 550h-50l-55 200h80zM387 550h-50l-55 200h80z" />
    <glyph glyph-name="adotabove" unicode="&#xe026;" horiz-adv-x="535" 
d="M501 500l-61 -500h-39l-10 41q-88 -51 -163 -51q-112 0 -149.5 69.5t-23.5 190.5q15 121 70 190.5t167 69.5q86 0 150 -52l20 42h39zM236 52q80 0 144 32l41 332q-56 32 -136 32q-43 0 -73.5 -16t-47.5 -46.5t-25.5 -61.5t-13.5 -74q-7 -37 -5 -72.5t11 -63.5t35.5 -45
t69.5 -17zM264 650q0 21 14.5 35.5t35.5 14.5t35.5 -14.5t14.5 -35.5t-14.5 -35.5t-35.5 -14.5t-35.5 14.5t-14.5 35.5z" />
    <glyph glyph-name="edoublegrave" unicode="&#xe027;" horiz-adv-x="510" 
d="M267 550h-50l-55 200h80zM387 550h-50l-55 200h80zM128 275h140q69 0 97.5 22.5t33.5 64.5q5 41 -17.5 63.5t-91.5 22.5q-79 0 -114.5 -46.5t-47.5 -126.5zM261 218h-140q-3 -37 0.5 -63.5t15 -51.5t37.5 -38t67 -13q100 0 168 28l-7 -60q-71 -30 -169 -30
q-61 0 -101.5 20.5t-57.5 55.5t-22.5 82.5t3.5 101.5q7 58 22 102t42 81.5t72 57t106 19.5q97 0 136.5 -43.5t31.5 -104.5t-57 -102.5t-147 -41.5z" />
    <glyph glyph-name="eacutedotbelow" unicode="&#xe028;" horiz-adv-x="510" 
d="M327 550h-50l75 200h80zM128 275h140q69 0 97.5 22.5t33.5 64.5q5 41 -17.5 63.5t-91.5 22.5q-79 0 -114.5 -46.5t-47.5 -126.5zM261 218h-140q-3 -37 0.5 -63.5t15 -51.5t37.5 -38t67 -13q100 0 168 28l-7 -60q-71 -30 -169 -30q-61 0 -101.5 20.5t-57.5 55.5
t-22.5 82.5t3.5 101.5q7 58 22 102t42 81.5t72 57t106 19.5q97 0 136.5 -43.5t31.5 -104.5t-57 -102.5t-147 -41.5zM166 -150q0 21 14.5 35.5t35.5 14.5t35.5 -14.5t14.5 -35.5t-14.5 -35.5t-35.5 -14.5t-35.5 14.5t-14.5 35.5z" />
    <glyph glyph-name="egravedotbelow" unicode="&#xe029;" horiz-adv-x="510" 
d="M327 550h-50l-55 200h80zM128 275h140q69 0 97.5 22.5t33.5 64.5q5 41 -17.5 63.5t-91.5 22.5q-79 0 -114.5 -46.5t-47.5 -126.5zM261 218h-140q-3 -37 0.5 -63.5t15 -51.5t37.5 -38t67 -13q100 0 168 28l-7 -60q-71 -30 -169 -30q-61 0 -101.5 20.5t-57.5 55.5
t-22.5 82.5t3.5 101.5q7 58 22 102t42 81.5t72 57t106 19.5q97 0 136.5 -43.5t31.5 -104.5t-57 -102.5t-147 -41.5zM166 -150q0 21 14.5 35.5t35.5 14.5t35.5 -14.5t14.5 -35.5t-14.5 -35.5t-35.5 -14.5t-35.5 14.5t-14.5 35.5z" />
    <glyph glyph-name="gtilde" unicode="&#xe02a;" horiz-adv-x="535" 
d="M228 -10q-112 0 -149.5 69.5t-23.5 190.5q15 121 70 190.5t167 69.5q86 0 150 -52l20 42h39l-66 -540q-7 -52 -18.5 -87.5t-36 -68.5t-69 -49t-109.5 -16q-120 0 -190 40l9 69q87 -50 189 -50q38 0 66.5 11t43 24.5t25 40.5t13.5 41.5t7 44.5l8 71q-76 -41 -145 -41z
M236 52q80 0 144 32l41 332q-56 32 -136 32q-43 0 -73.5 -16t-47.5 -46.5t-25.5 -61.5t-13.5 -74q-7 -37 -5 -72.5t11 -63.5t35.5 -45t69.5 -17zM385 644q21 0 33.5 9.5t16 18.5t5.5 23h56q-3 -52 -36 -81t-87 -29q-28 0 -48.5 11t-31 24.5t-26 24.5t-33.5 11q-50 0 -55 -51
h-56q2 52 35 81t87 29q28 0 49 -11t31.5 -24.5t26 -24.5t33.5 -11z" />
    <glyph glyph-name="gcommaturnedabove" unicode="&#xe02b;" horiz-adv-x="535" 
d="M228 -10q-112 0 -149.5 69.5t-23.5 190.5q15 121 70 190.5t167 69.5q86 0 150 -52l20 42h39l-66 -540q-7 -52 -18.5 -87.5t-36 -68.5t-69 -49t-109.5 -16q-120 0 -190 40l9 69q87 -50 189 -50q38 0 66.5 11t43 24.5t25 40.5t13.5 41.5t7 44.5l8 71q-76 -41 -145 -41z
M236 52q80 0 144 32l41 332q-56 32 -136 32q-43 0 -73.5 -16t-47.5 -46.5t-25.5 -61.5t-13.5 -74q-7 -37 -5 -72.5t11 -63.5t35.5 -45t69.5 -17zM336 550h-80l81 200h50z" />
    <glyph glyph-name="hcaron" unicode="&#xe02c;" horiz-adv-x="500" 
d="M384 363q6 47 -17 66t-72 19q-82 0 -141 -32l-51 -416h-68l92 750h68l-35 -281q69 41 142 41q87 0 123.5 -38t28.5 -112l-44 -360h-70zM24 900h56l92 -56l106 56h56l-127 -100h-80z" />
    <glyph glyph-name="hmacronbelow" unicode="&#xe02d;" horiz-adv-x="500" 
d="M384 363q6 47 -17 66t-72 19q-82 0 -141 -32l-51 -416h-68l92 750h68l-35 -281q69 41 142 41q87 0 123.5 -38t28.5 -112l-44 -360h-70zM345 -120l-8 -60h-274l8 60h274z" />
    <glyph glyph-name="ibreve" unicode="&#xe02e;" horiz-adv-x="240" 
d="M159 -10q-56 0 -79.5 25.5t-16.5 84.5l49 400h68l-50 -408q-4 -26 4 -35.5t32 -9.5zM152 550q-171 0 -150 200h51q-8 -73 14.5 -106.5t91.5 -33.5t100 33.5t42 106.5h51q-30 -200 -200 -200z" />
    <glyph glyph-name="idoublegrave" unicode="&#xe02f;" horiz-adv-x="240" 
d="M159 -10q-56 0 -79.5 25.5t-16.5 84.5l49 400h68l-50 -408q-4 -26 4 -35.5t32 -9.5zM117 550h-50l-55 200h80zM237 550h-50l-55 200h80z" />
    <glyph glyph-name="idotaccent" unicode="&#xe030;" horiz-adv-x="240" 
d="M159 -10q-56 0 -79.5 25.5t-16.5 84.5l49 400h68l-50 -408q-4 -26 4 -35.5t32 -9.5zM114 650q0 21 14.5 35.5t35.5 14.5t35.5 -14.5t14.5 -35.5t-14.5 -35.5t-35.5 -14.5t-35.5 14.5t-14.5 35.5z" />
    <glyph glyph-name="kcedilla" unicode="&#xe031;" horiz-adv-x="500" 
d="M484 500l-240 -206l206 -294h-87l-166 254l-71 -60l-23 -194h-68l92 750h68l-59 -474l254 224h94zM161 -95l10 45q69 -7 103 -36.5t29 -74.5q-5 -41 -37.5 -65t-84.5 -24q-62 0 -92 18l6 46q34 -13 75 -13q67 0 71 36q4 30 -18.5 46.5t-61.5 21.5z" />
    <glyph glyph-name="lcedilla" unicode="&#xe032;" horiz-adv-x="240" 
d="M159 -10q-56 0 -79.5 25.5t-16.5 84.5l80 650h68l-81 -658q-4 -26 4 -35.5t32 -9.5zM51 -95l10 45q69 -7 103 -36.5t29 -74.5q-5 -41 -37.5 -65t-84.5 -24q-62 0 -92 18l6 46q34 -13 75 -13q67 0 71 36q4 30 -18.5 46.5t-61.5 21.5z" />
    <glyph glyph-name="mmacron" unicode="&#xe033;" horiz-adv-x="785" 
d="M625 0l44 363q6 46 -16 65.5t-68 19.5q-73 0 -141 -33q3 -24 0 -52l-44 -363h-70l44 363q6 46 -16 65.5t-68 19.5q-72 0 -134 -30l-51 -418h-70l61 500h39l10 -41q76 51 152 51q101 0 133 -57q90 57 162 57q165 0 147 -150l-44 -360h-70zM301 620l7 60h274l-7 -60h-274z
" />
    <glyph glyph-name="mcedilla" unicode="&#xe034;" horiz-adv-x="785" 
d="M625 0l44 363q6 46 -16 65.5t-68 19.5q-73 0 -141 -33q3 -24 0 -52l-44 -363h-70l44 363q6 46 -16 65.5t-68 19.5q-72 0 -134 -30l-51 -418h-70l61 500h39l10 -41q76 51 152 51q101 0 133 -57q90 57 162 57q165 0 147 -150l-44 -360h-70zM313 -95l10 45q69 -7 103 -36.5
t29 -74.5q-5 -41 -37.5 -65t-84.5 -24q-62 0 -92 18l6 46q34 -13 75 -13q67 0 71 36q4 30 -18.5 46.5t-61.5 21.5z" />
    <glyph glyph-name="ngrave" unicode="&#xe035;" horiz-adv-x="500" 
d="M340 0l44 363q6 47 -17 66t-72 19q-80 0 -139 -32l-51 -416h-70l61 500h39l10 -42q76 52 157 52q87 0 123.5 -38t28.5 -112l-44 -360h-70zM317 550h-50l-55 200h80z" />
    <glyph glyph-name="ndieresis" unicode="&#xe036;" horiz-adv-x="500" 
d="M340 0l44 363q6 47 -17 66t-72 19q-80 0 -139 -32l-51 -416h-70l61 500h39l10 -42q76 52 157 52q87 0 123.5 -38t28.5 -112l-44 -360h-70zM159 650q0 21 14.5 35.5t35.5 14.5t35.5 -14.5t14.5 -35.5t-14.5 -35.5t-35.5 -14.5t-35.5 14.5t-14.5 35.5zM349 650
q0 21 14.5 35.5t35.5 14.5t35.5 -14.5t14.5 -35.5t-14.5 -35.5t-35.5 -14.5t-35.5 14.5t-14.5 35.5z" />
    <glyph glyph-name="nmacron" unicode="&#xe037;" horiz-adv-x="500" 
d="M340 0l44 363q6 47 -17 66t-72 19q-80 0 -139 -32l-51 -416h-70l61 500h39l10 -42q76 52 157 52q87 0 123.5 -38t28.5 -112l-44 -360h-70zM164 620l7 60h274l-7 -60h-274z" />
    <glyph glyph-name="ncedilla" unicode="&#xe038;" horiz-adv-x="500" 
d="M340 0l44 363q6 47 -17 66t-72 19q-80 0 -139 -32l-51 -416h-70l61 500h39l10 -42q76 52 157 52q87 0 123.5 -38t28.5 -112l-44 -360h-70zM151 -95l10 45q69 -7 103 -36.5t29 -74.5q-5 -41 -37.5 -65t-84.5 -24q-62 0 -92 18l6 46q34 -13 75 -13q67 0 71 36
q4 30 -18.5 46.5t-61.5 21.5z" />
    <glyph glyph-name="ndescender" unicode="&#xe039;" horiz-adv-x="500" 
d="M394 -125l16 125h-70l44 363q6 47 -17 66t-72 19q-80 0 -139 -32l-51 -416h-70l61 500h39l10 -42q76 52 157 52q87 0 123.5 -38t28.5 -112l-37 -299h66l-23 -186h-66z" />
    <glyph glyph-name="odoublegrave" unicode="&#xe03a;" horiz-adv-x="530" 
d="M475 250q-16 -128 -69 -194t-173 -66q-82 0 -126.5 33.5t-52 91t0.5 135.5q16 127 69 193.5t173 66.5t157 -66.5t21 -193.5zM405 250q6 58 5.5 102t-29.5 70t-91 26q-39 0 -67 -10.5t-44.5 -26t-27.5 -43.5t-16 -53t-10 -65q-6 -58 -5.5 -102t29.5 -70t92 -26q47 0 78 14
t48 44t24.5 60t13.5 80zM267 550h-50l-55 200h80zM387 550h-50l-55 200h80z" />
    <glyph glyph-name="ocommaturnedabove" unicode="&#xe03b;" horiz-adv-x="530" 
d="M475 250q-16 -128 -69 -194t-173 -66q-82 0 -126.5 33.5t-52 91t0.5 135.5q16 127 69 193.5t173 66.5t157 -66.5t21 -193.5zM405 250q6 58 5.5 102t-29.5 70t-91 26q-39 0 -67 -10.5t-44.5 -26t-27.5 -43.5t-16 -53t-10 -65q-6 -58 -5.5 -102t29.5 -70t92 -26q47 0 78 14
t48 44t24.5 60t13.5 80zM341 550h-80l81 200h50z" />
    <glyph glyph-name="otildemacron" unicode="&#xe03c;" horiz-adv-x="530" 
d="M475 250q-16 -128 -69 -194t-173 -66q-82 0 -126.5 33.5t-52 91t0.5 135.5q16 127 69 193.5t173 66.5t157 -66.5t21 -193.5zM405 250q6 58 5.5 102t-29.5 70t-91 26q-39 0 -67 -10.5t-44.5 -26t-27.5 -43.5t-16 -53t-10 -65q-6 -58 -5.5 -102t29.5 -70t92 -26q47 0 78 14
t48 44t24.5 60t13.5 80zM385 609q48 0 56 51h56q-3 -52 -36 -81t-87 -29q-28 0 -48.5 11t-31 24.5t-26 24.5t-33.5 11q-48 0 -56 -51h-56q3 52 36 81t87 29q28 0 48.5 -11t31 -24.5t26 -24.5t33.5 -11zM185 710l7 60h274l-7 -60h-274z" />
    <glyph glyph-name="odotabove" unicode="&#xe03d;" horiz-adv-x="530" 
d="M475 250q-16 -128 -69 -194t-173 -66q-82 0 -126.5 33.5t-52 91t0.5 135.5q16 127 69 193.5t173 66.5t157 -66.5t21 -193.5zM405 250q6 58 5.5 102t-29.5 70t-91 26q-39 0 -67 -10.5t-44.5 -26t-27.5 -43.5t-16 -53t-10 -65q-6 -58 -5.5 -102t29.5 -70t92 -26q47 0 78 14
t48 44t24.5 60t13.5 80zM264 650q0 21 14.5 35.5t35.5 14.5t35.5 -14.5t14.5 -35.5t-14.5 -35.5t-35.5 -14.5t-35.5 14.5t-14.5 35.5z" />
    <glyph glyph-name="odotabovemacron" unicode="&#xe03e;" horiz-adv-x="530" 
d="M475 250q-16 -128 -69 -194t-173 -66q-82 0 -126.5 33.5t-52 91t0.5 135.5q16 127 69 193.5t173 66.5t157 -66.5t21 -193.5zM405 250q6 58 5.5 102t-29.5 70t-91 26q-39 0 -67 -10.5t-44.5 -26t-27.5 -43.5t-16 -53t-10 -65q-6 -58 -5.5 -102t29.5 -70t92 -26q47 0 78 14
t48 44t24.5 60t13.5 80zM185 710l7 60h274l-7 -60h-274zM260 615q0 21 14.5 35.5t35.5 14.5t35.5 -14.5t14.5 -35.5t-14.5 -35.5t-35.5 -14.5t-35.5 14.5t-14.5 35.5z" />
    <glyph glyph-name="ocedilla" unicode="&#xe03f;" horiz-adv-x="530" 
d="M475 250q-16 -128 -69 -194t-173 -66q-82 0 -126.5 33.5t-52 91t0.5 135.5q16 127 69 193.5t173 66.5t157 -66.5t21 -193.5zM405 250q6 58 5.5 102t-29.5 70t-91 26q-39 0 -67 -10.5t-44.5 -26t-27.5 -43.5t-16 -53t-10 -65q-6 -58 -5.5 -102t29.5 -70t92 -26q47 0 78 14
t48 44t24.5 60t13.5 80zM183 -95l10 45q69 -7 103 -36.5t29 -74.5q-5 -41 -37.5 -65t-84.5 -24q-62 0 -92 18l6 46q34 -13 75 -13q67 0 71 36q4 30 -18.5 46.5t-61.5 21.5z" />
    <glyph glyph-name="ounderlineaccent" unicode="&#xe040;" horiz-adv-x="530" 
d="M475 250q-16 -128 -69 -194t-173 -66q-82 0 -126.5 33.5t-52 91t0.5 135.5q16 127 69 193.5t173 66.5t157 -66.5t21 -193.5zM405 250q6 58 5.5 102t-29.5 70t-91 26q-39 0 -67 -10.5t-44.5 -26t-27.5 -43.5t-16 -53t-10 -65q-6 -58 -5.5 -102t29.5 -70t92 -26q47 0 78 14
t48 44t24.5 60t13.5 80zM198 -50h60l-24 -200h-60z" />
    <glyph glyph-name="barredo" unicode="&#xe041;" horiz-adv-x="530" 
d="M475 250q-16 -128 -69 -194t-173 -66q-82 0 -126.5 33.5t-52 91t0.5 135.5q16 127 69 193.5t173 66.5t157 -66.5t21 -193.5zM241 52q83 0 116 43t45 130h-280q-10 -87 12.5 -130t106.5 -43zM290 448q-82 0 -115.5 -41.5t-45.5 -124.5h280q5 36 2 66.5t-14 52.5t-38 34.5
t-69 12.5z" />
    <glyph glyph-name="pmacron" unicode="&#xe042;" horiz-adv-x="535" 
d="M243 -10q-76 0 -135 41l-34 -281h-70l92 750h39l10 -41q87 51 162 51q205 0 173 -260q-31 -260 -237 -260zM251 52q43 0 73.5 16t47 47t25 61.5t13.5 73.5q7 37 5 72.5t-10.5 63.5t-35 45t-69.5 17q-82 0 -144 -32l-41 -332q55 -32 136 -32zM177 620l7 60h274l-7 -60
h-274z" />
    <glyph glyph-name="rdoublegrave" unicode="&#xe043;" horiz-adv-x="363" 
d="M372 505l-8 -65q-24 8 -59 8q-90 0 -149 -32l-51 -416h-70l61 500h39l10 -42q76 52 167 52q28 0 60 -5zM212 550h-50l-55 200h80zM332 550h-50l-55 200h80z" />
    <glyph glyph-name="rcedilla" unicode="&#xe044;" horiz-adv-x="363" 
d="M372 505l-8 -65q-24 8 -59 8q-90 0 -149 -32l-51 -416h-70l61 500h39l10 -42q76 52 167 52q28 0 60 -5zM18 -95l10 45q69 -7 103 -36.5t29 -74.5q-5 -41 -37.5 -65t-84.5 -24q-61 0 -91 18l6 46q33 -13 74 -13q67 0 71 36q4 30 -18.5 46.5t-61.5 21.5z" />
    <glyph glyph-name="tcedilla" unicode="&#xe045;" horiz-adv-x="375" 
d="M301 50l-7 -56q-17 -4 -46 -4q-69 0 -110 33.5t-33 102.5l39 319h-100l4 31l104 29l16 135l73 20l-20 -160h155l-7 -55h-155l-38 -311q-11 -86 85 -86q14 0 40 2zM118 -95l10 45q69 -7 103 -36.5t29 -74.5q-5 -41 -37.5 -65t-84.5 -24q-62 0 -92 18l6 46q34 -13 75 -13
q67 0 71 36q4 30 -18.5 46.5t-61.5 21.5z" />
    <glyph glyph-name="udoublegrave" unicode="&#xe046;" horiz-adv-x="500" 
d="M161 500l-45 -363q-6 -46 17.5 -65.5t72.5 -19.5q78 0 139 32l51 416h70l-61 -500h-39l-10 42q-77 -52 -158 -52q-170 0 -151 150l44 360h70zM249 550h-50l-55 200h80zM369 550h-50l-55 200h80z" />
    <glyph glyph-name="umacronbelow" unicode="&#xe047;" horiz-adv-x="500" 
d="M161 500l-45 -363q-6 -46 17.5 -65.5t72.5 -19.5q78 0 139 32l51 416h70l-61 -500h-39l-10 42q-77 -52 -158 -52q-170 0 -151 150l44 360h70zM57 -180l8 60h274l-8 -60h-274z" />
    <glyph glyph-name="ymacron" unicode="&#xe048;" horiz-adv-x="500" 
d="M167 -261q-88 0 -146 27l7 60q82 -28 147 -28q38 0 66.5 11t43 24.5t25 40.5t13.5 41.5t7 44.5l8 71q-67 -41 -140 -41q-170 0 -151 150l44 360h70l-45 -363q-6 -46 17.5 -65.5t72.5 -19.5q78 0 139 32l51 416h70l-66 -540q-7 -52 -18.5 -87.5t-36 -68.5t-69 -49
t-109.5 -16zM156 620l7 60h274l-7 -60h-274z" />
    <glyph glyph-name="cordinal" unicode="&#xe049;" horiz-adv-x="336" 
d="M232 423q52 0 102 12l-7 -59q-48 -11 -102 -11q-176 0 -151 198q23 197 200 197q53 0 98 -11l-7 -59q-46 12 -98 12q-58 0 -90 -33t-41 -106q-10 -73 14 -106.5t82 -33.5z" />
    <glyph glyph-name="a.school" unicode="&#xe04a;" horiz-adv-x="535" 
d="M501 500l-61 -500h-39l-10 41q-88 -51 -163 -51q-112 0 -149.5 69.5t-23.5 190.5q15 121 70 190.5t167 69.5q86 0 150 -52l20 42h39zM236 52q80 0 144 32l41 332q-56 32 -136 32q-43 0 -73.5 -16t-47.5 -46.5t-25.5 -61.5t-13.5 -74q-7 -37 -5 -72.5t11 -63.5t35.5 -45
t69.5 -17z" />
    <glyph glyph-name="g.school" unicode="&#xe05a;" horiz-adv-x="535" 
d="M228 -10q-112 0 -149.5 69.5t-23.5 190.5q15 121 70 190.5t167 69.5q86 0 150 -52l20 42h39l-66 -540q-7 -52 -18.5 -87.5t-36 -68.5t-69 -49t-109.5 -16q-120 0 -190 40l9 69q87 -50 189 -50q38 0 66.5 11t43 24.5t25 40.5t13.5 41.5t7 44.5l8 71q-76 -41 -145 -41z
M236 52q80 0 144 32l41 332q-56 32 -136 32q-43 0 -73.5 -16t-47.5 -46.5t-25.5 -61.5t-13.5 -74q-7 -37 -5 -72.5t11 -63.5t35.5 -45t69.5 -17z" />
    <glyph glyph-name="y.school" unicode="&#xe064;" horiz-adv-x="500" 
d="M167 -261q-88 0 -146 27l7 60q82 -28 147 -28q38 0 66.5 11t43 24.5t25 40.5t13.5 41.5t7 44.5l8 71q-67 -41 -140 -41q-170 0 -151 150l44 360h70l-45 -363q-6 -46 17.5 -65.5t72.5 -19.5q78 0 139 32l51 416h70l-66 -540q-7 -52 -18.5 -87.5t-36 -68.5t-69 -49
t-109.5 -16z" />
    <glyph glyph-name="ordfeminine.school" unicode="&#xe06b;" horiz-adv-x="411" 
d="M74 563q23 198 198 198q61 0 104 -34l10 24h42l-46 -376h-42l-5 24q-50 -34 -112 -34q-174 0 -149 198zM355 679q-37 26 -86 26q-115 0 -132 -142q-19 -142 97 -142q49 0 92 26z" />
    <glyph glyph-name="a.small" unicode="&#xe06c;" horiz-adv-x="530" 
d="M470 0h-73l-32 120h-233l-59 -120h-73l272 510h50zM287 427l-128 -255h193z" />
    <glyph glyph-name="b.small" unicode="&#xe06d;" horiz-adv-x="520" 
d="M45 0l61 500h219q84 0 116.5 -32.5t24.5 -97.5q-4 -29 -21.5 -55t-40.5 -38q32 -14 48 -49.5t11 -76.5q-19 -151 -182 -151h-236zM392 151q5 43 -12.5 66.5t-74.5 23.5h-165l-22 -180h165q57 0 80.5 23.5t28.5 66.5zM148 302h167q45 0 62.5 16.5t21.5 51.5t-10.5 52
t-63.5 17h-161z" />
    <glyph glyph-name="c.small" unicode="&#xe06e;" horiz-adv-x="505" 
d="M60 250q15 116 81.5 188t186.5 72q91 0 146 -25l-7 -60q-67 23 -147 23q-87 0 -133.5 -56.5t-56.5 -141.5t22 -141.5t119 -56.5q80 0 153 23l-8 -60q-61 -25 -152 -25q-120 0 -169 72t-35 188z" />
    <glyph glyph-name="d.small" unicode="&#xe06f;" horiz-adv-x="545" 
d="M213 0h-168l61 500h168q242 0 211 -250t-272 -250zM118 61h101q94 0 139.5 49t56.5 140t-22 140t-128 49h-101z" />
    <glyph glyph-name="e.small" unicode="&#xe070;" horiz-adv-x="500" 
d="M410 287l-8 -61h-264l-20 -165h299l-7 -61h-365l61 500h365l-8 -61h-299l-18 -152h264z" />
    <glyph glyph-name="f.small" unicode="&#xe071;" horiz-adv-x="480" 
d="M400 287l-8 -61h-254l-27 -226h-66l61 500h355l-8 -61h-289l-18 -152h254z" />
    <glyph glyph-name="g.small" unicode="&#xe072;" horiz-adv-x="550" 
d="M271 52q56 0 115 11l17 135h-109l7 61h175l-29 -236q-69 -33 -184 -33q-120 0 -168.5 71.5t-34.5 188.5q15 116 81 188t186 72q111 0 166 -30l-7 -60q-72 28 -166 28q-87 0 -133.5 -56.5t-56.5 -141.5t22 -141.5t119 -56.5z" />
    <glyph glyph-name="h.small" unicode="&#xe073;" 
d="M465 0h-66l27 226h-288l-27 -226h-66l61 500h66l-26 -213h288l26 213h66z" />
    <glyph glyph-name="i.small" unicode="&#xe074;" horiz-adv-x="260" 
d="M133 0h-66l61 500h66z" />
    <glyph glyph-name="j.small" unicode="&#xe075;" horiz-adv-x="375" 
d="M4 -3l8 63q31 -8 69 -8q109 0 119 85l45 363h66l-44 -360q-19 -150 -194 -150q-41 0 -69 7z" />
    <glyph glyph-name="k.small" unicode="&#xe076;" horiz-adv-x="515" 
d="M492 500l-240 -206l206 -294h-87l-166 254l-71 -60l-23 -194h-66l61 500h66l-28 -227l254 227h94z" />
    <glyph glyph-name="l.small" unicode="&#xe077;" horiz-adv-x="480" 
d="M172 500l-54 -439h299l-7 -61h-365l61 500h66z" />
    <glyph glyph-name="m.small" unicode="&#xe078;" horiz-adv-x="670" 
d="M341 65h-58l-127 344l-46 -409h-65l61 500h85l130 -363l220 363h85l-61 -500h-65l54 409z" />
    <glyph glyph-name="n.small" unicode="&#xe079;" 
d="M465 0h-44l-265 378l-45 -378h-66l61 500h44l264 -378l46 378h66z" />
    <glyph glyph-name="o.small" unicode="&#xe07a;" horiz-adv-x="580" 
d="M523 250q-32 -260 -265 -260t-201 260t265 260t201 -260zM453 250q7 42 3 78.5t-17 63t-44.5 41.5t-79.5 15q-94 0 -135 -51t-53 -147q-12 -95 16.5 -146.5t122.5 -51.5q93 0 134 51.5t53 146.5z" />
    <glyph glyph-name="p.small" unicode="&#xe07b;" horiz-adv-x="490" 
d="M268 178h-136l-21 -178h-66l61 500h202q87 0 121.5 -45t25.5 -116q-8 -71 -54 -116t-133 -45zM384 339q12 100 -86 100h-134l-24 -200h134q98 0 110 100z" />
    <glyph glyph-name="q.small" unicode="&#xe07c;" horiz-adv-x="580" 
d="M625 -124l-440 122q-154 43 -128 252q32 260 265 260t201 -260q-25 -198 -165 -245v-1l276 -56zM453 250q7 42 3 78.5t-17 63t-44.5 41.5t-79.5 15q-94 0 -135 -51t-53 -147q-12 -95 16.5 -146.5t122.5 -51.5q93 0 134 51.5t53 146.5z" />
    <glyph glyph-name="r.small" unicode="&#xe07d;" horiz-adv-x="512" 
d="M288 198h-153l-24 -198h-66l61 500h214q165 0 146 -151q-14 -113 -111 -142l94 -207h-78zM395 349q5 41 -14 65.5t-76 24.5h-141l-22 -180h141q101 0 112 90z" />
    <glyph glyph-name="s.small" unicode="&#xe07e;" horiz-adv-x="500" 
d="M135 358q-4 -36 22.5 -50t101.5 -20q105 -10 143.5 -42t29.5 -100q-8 -70 -65 -113t-170 -43q-39 0 -89 8.5t-71 18.5l7 60q58 -25 162 -25q80 0 117 23t42 70q5 41 -20 59t-99 24q-107 10 -146.5 38.5t-31.5 91.5q20 152 225 152q101 0 156 -25l-7 -60q-67 23 -157 23
q-78 0 -111 -20.5t-39 -69.5z" />
    <glyph glyph-name="t.small" unicode="&#xe07f;" horiz-adv-x="485" 
d="M468 439h-167l-53 -439h-71l53 439h-167l8 61h405z" />
    <glyph glyph-name="u.small" unicode="&#xe080;" 
d="M253 -10q-109 0 -156.5 44t-37.5 126l42 340h66l-42 -341q-7 -57 29.5 -82t106.5 -25q149 0 162 107l42 341h66l-42 -340q-21 -170 -236 -170z" />
    <glyph glyph-name="v.small" unicode="&#xe081;" horiz-adv-x="530" 
d="M456 500h75l-271 -510h-54l-145 510h75l107 -427z" />
    <glyph glyph-name="w.small" unicode="&#xe082;" horiz-adv-x="740" 
d="M664 500h77l-209 -510h-52l-88 437l-196 -437h-52l-83 510h77l48 -397l178 397h74l80 -397z" />
    <glyph glyph-name="x.small" unicode="&#xe083;" horiz-adv-x="520" 
d="M80 0h-85l226 257l-155 243h85l116 -194l164 194h85l-215 -243l164 -257h-85l-125 208z" />
    <glyph glyph-name="y.small" unicode="&#xe084;" horiz-adv-x="542" 
d="M465 500h83l-249 -320l-22 -180h-71l22 180l-172 320h83l130 -267z" />
    <glyph glyph-name="z.small" unicode="&#xe085;" horiz-adv-x="510" 
d="M435 0h-420l5 45l365 393h-302l8 62h395l-6 -45l-365 -393h327z" />
    <glyph glyph-name="aacute.small" unicode="&#xe086;" horiz-adv-x="530" 
d="M470 0h-73l-32 120h-233l-59 -120h-73l272 510h50zM287 427l-128 -255h193zM327 550h-50l75 200h80z" />
    <glyph glyph-name="agrave.small" unicode="&#xe087;" horiz-adv-x="530" 
d="M470 0h-73l-32 120h-233l-59 -120h-73l272 510h50zM287 427l-128 -255h193zM327 550h-50l-55 200h80z" />
    <glyph glyph-name="acircumflex.small" unicode="&#xe088;" horiz-adv-x="530" 
d="M470 0h-73l-32 120h-233l-59 -120h-73l272 510h50zM287 427l-128 -255h193zM487 550h-55l-113 141l-147 -141h-55l170 200h80z" />
    <glyph glyph-name="adieresis.small" unicode="&#xe089;" horiz-adv-x="530" 
d="M470 0h-73l-32 120h-233l-59 -120h-73l272 510h50zM287 427l-128 -255h193zM169 650q0 21 14.5 35.5t35.5 14.5t35.5 -14.5t14.5 -35.5t-14.5 -35.5t-35.5 -14.5t-35.5 14.5t-14.5 35.5zM359 650q0 21 14.5 35.5t35.5 14.5t35.5 -14.5t14.5 -35.5t-14.5 -35.5
t-35.5 -14.5t-35.5 14.5t-14.5 35.5z" />
    <glyph glyph-name="atilde.small" unicode="&#xe08a;" horiz-adv-x="530" 
d="M470 0h-73l-32 120h-233l-59 -120h-73l272 510h50zM287 427l-128 -255h193zM390 644q21 0 33.5 9.5t16 18.5t5.5 23h56q-3 -52 -36 -81t-87 -29q-28 0 -48.5 11t-31 24.5t-26 24.5t-33.5 11q-50 0 -55 -51h-56q2 52 35 81t87 29q28 0 49 -11t31.5 -24.5t26 -24.5
t33.5 -11z" />
    </font>
</defs>
</svg>
